G04 #@! TF.GenerationSoftware,KiCad,Pcbnew,(5.99.0-12750-ge81b516a82)*
G04 #@! TF.CreationDate,2021-10-13T14:39:12-04:00*
G04 #@! TF.ProjectId,Audio_teensy,41756469-6f5f-4746-9565-6e73792e6b69,1.3*
G04 #@! TF.SameCoordinates,Original*
G04 #@! TF.FileFunction,Copper,L2,Bot*
G04 #@! TF.FilePolarity,Positive*
%FSLAX46Y46*%
G04 Gerber Fmt 4.6, Leading zero omitted, Abs format (unit mm)*
G04 Created by KiCad (PCBNEW (5.99.0-12750-ge81b516a82)) date 2021-10-13 14:39:12*
%MOMM*%
%LPD*%
G01*
G04 APERTURE LIST*
G04 #@! TA.AperFunction,ComponentPad*
%ADD10R,1.500000X1.500000*%
G04 #@! TD*
G04 #@! TA.AperFunction,ComponentPad*
%ADD11C,1.500000*%
G04 #@! TD*
G04 #@! TA.AperFunction,ComponentPad*
%ADD12O,1.350000X2.250000*%
G04 #@! TD*
G04 #@! TA.AperFunction,ComponentPad*
%ADD13O,1.350000X2.750000*%
G04 #@! TD*
G04 #@! TA.AperFunction,ViaPad*
%ADD14C,0.800000*%
G04 #@! TD*
G04 #@! TA.AperFunction,Conductor*
%ADD15C,0.254000*%
G04 #@! TD*
G04 APERTURE END LIST*
D10*
X132155000Y-97340000D03*
D11*
X130885000Y-99880000D03*
X129615000Y-97340000D03*
X128345000Y-99880000D03*
X127075000Y-97340000D03*
X125805000Y-99880000D03*
X124535000Y-97340000D03*
X123265000Y-99880000D03*
D12*
X157857500Y-116082500D03*
D13*
X162557500Y-124782500D03*
X162557500Y-117882500D03*
D12*
X162257500Y-93917500D03*
D13*
X157557500Y-85217500D03*
X157557500Y-92117500D03*
D14*
X147300000Y-91700000D03*
X153100000Y-113200000D03*
X158200000Y-108000000D03*
X123600000Y-124300000D03*
X146125000Y-98150000D03*
X145000000Y-110200000D03*
X148600000Y-109400000D03*
X147300000Y-96023500D03*
X141500000Y-104200000D03*
X139340510Y-102026500D03*
X155500000Y-94200000D03*
X154700000Y-96000000D03*
X138700000Y-100000000D03*
X143600000Y-101300000D03*
X142800000Y-107400000D03*
X152600000Y-102300000D03*
X148200000Y-98900000D03*
D15*
X146125000Y-106475000D02*
X146125000Y-98150000D01*
X145000000Y-107600000D02*
X146125000Y-106475000D01*
X145000000Y-110200000D02*
X145000000Y-107600000D01*
X147300000Y-108100000D02*
X147300000Y-96023500D01*
X148600000Y-109400000D02*
X147300000Y-108100000D01*
X139340510Y-102026500D02*
X141500000Y-104185990D01*
X141500000Y-104185990D02*
X141500000Y-104200000D01*
X155500000Y-94200000D02*
X156550000Y-94200000D01*
X162400000Y-100050000D02*
X162400000Y-117725000D01*
X156550000Y-94200000D02*
X162400000Y-100050000D01*
X162400000Y-117725000D02*
X162557500Y-117882500D01*
X154700000Y-88225000D02*
X157707500Y-85217500D01*
X154700000Y-99300000D02*
X155500000Y-100100000D01*
X154700000Y-96000000D02*
X154700000Y-88225000D01*
X155500000Y-100100000D02*
X155500000Y-117725000D01*
X155500000Y-117725000D02*
X162557500Y-124782500D01*
X154700000Y-96000000D02*
X154700000Y-99300000D01*
X143600000Y-106600000D02*
X142800000Y-107400000D01*
X140000000Y-101300000D02*
X143600000Y-101300000D01*
X138700000Y-100000000D02*
X140000000Y-101300000D01*
X143600000Y-101300000D02*
X143600000Y-106600000D01*
X152600000Y-102300000D02*
X151600000Y-102300000D01*
X151600000Y-102300000D02*
X148200000Y-98900000D01*
G04 #@! TA.AperFunction,Conductor*
G36*
X156452839Y-83828002D02*
G01*
X156499332Y-83881658D01*
X156509436Y-83951932D01*
X156496226Y-83992668D01*
X156459405Y-84062654D01*
X156394903Y-84270382D01*
X156374000Y-84446990D01*
X156374000Y-85600077D01*
X156353998Y-85668198D01*
X156337095Y-85689172D01*
X154306517Y-87719750D01*
X154298191Y-87727326D01*
X154291697Y-87731447D01*
X154286274Y-87737222D01*
X154244915Y-87781265D01*
X154242160Y-87784107D01*
X154222361Y-87803906D01*
X154219937Y-87807031D01*
X154219929Y-87807040D01*
X154219863Y-87807126D01*
X154212155Y-87816151D01*
X154181783Y-87848494D01*
X154177965Y-87855438D01*
X154177964Y-87855440D01*
X154171978Y-87866329D01*
X154161127Y-87882847D01*
X154148650Y-87898933D01*
X154131024Y-87939666D01*
X154125807Y-87950314D01*
X154104431Y-87989197D01*
X154102460Y-87996872D01*
X154102458Y-87996878D01*
X154099369Y-88008911D01*
X154092966Y-88027613D01*
X154084883Y-88046292D01*
X154083644Y-88054117D01*
X154077940Y-88090127D01*
X154075535Y-88101740D01*
X154064500Y-88144718D01*
X154064500Y-88165065D01*
X154062949Y-88184776D01*
X154059765Y-88204879D01*
X154060511Y-88212771D01*
X154063941Y-88249056D01*
X154064500Y-88260914D01*
X154064500Y-95299697D01*
X154044498Y-95367818D01*
X154032136Y-95384007D01*
X153993854Y-95426524D01*
X153960960Y-95463056D01*
X153865473Y-95628444D01*
X153806458Y-95810072D01*
X153786496Y-96000000D01*
X153787186Y-96006565D01*
X153802809Y-96155205D01*
X153806458Y-96189928D01*
X153865473Y-96371556D01*
X153960960Y-96536944D01*
X153965378Y-96541851D01*
X153965379Y-96541852D01*
X154032136Y-96615993D01*
X154062854Y-96680000D01*
X154064500Y-96700303D01*
X154064500Y-99220980D01*
X154063970Y-99232214D01*
X154062292Y-99239719D01*
X154062541Y-99247638D01*
X154064438Y-99308012D01*
X154064500Y-99311969D01*
X154064500Y-99339983D01*
X154064996Y-99343908D01*
X154064996Y-99343909D01*
X154065008Y-99344004D01*
X154065941Y-99355849D01*
X154067335Y-99400205D01*
X154069547Y-99407817D01*
X154073013Y-99419748D01*
X154077023Y-99439112D01*
X154079573Y-99459299D01*
X154082489Y-99466663D01*
X154082490Y-99466668D01*
X154095907Y-99500556D01*
X154099752Y-99511785D01*
X154112131Y-99554393D01*
X154116169Y-99561220D01*
X154116170Y-99561223D01*
X154122488Y-99571906D01*
X154131188Y-99589664D01*
X154135761Y-99601215D01*
X154135765Y-99601221D01*
X154138681Y-99608588D01*
X154157674Y-99634729D01*
X154164764Y-99644488D01*
X154171281Y-99654410D01*
X154189826Y-99685768D01*
X154189829Y-99685772D01*
X154193866Y-99692598D01*
X154208250Y-99706982D01*
X154221091Y-99722016D01*
X154233058Y-99738487D01*
X154253638Y-99755512D01*
X154267250Y-99766773D01*
X154276031Y-99774763D01*
X154827596Y-100326329D01*
X154861621Y-100388641D01*
X154864500Y-100415424D01*
X154864500Y-117645980D01*
X154863970Y-117657214D01*
X154862292Y-117664719D01*
X154862541Y-117672638D01*
X154864438Y-117733012D01*
X154864500Y-117736969D01*
X154864500Y-117764983D01*
X154864996Y-117768908D01*
X154864996Y-117768909D01*
X154865008Y-117769004D01*
X154865941Y-117780849D01*
X154867335Y-117825205D01*
X154869547Y-117832817D01*
X154873013Y-117844748D01*
X154877023Y-117864112D01*
X154879573Y-117884299D01*
X154882489Y-117891663D01*
X154882490Y-117891668D01*
X154895907Y-117925556D01*
X154899752Y-117936785D01*
X154904598Y-117953465D01*
X154912131Y-117979393D01*
X154916169Y-117986220D01*
X154916170Y-117986223D01*
X154922488Y-117996906D01*
X154931188Y-118014664D01*
X154935761Y-118026215D01*
X154935765Y-118026221D01*
X154938681Y-118033588D01*
X154943339Y-118039999D01*
X154943340Y-118040001D01*
X154964764Y-118069488D01*
X154971281Y-118079410D01*
X154989826Y-118110768D01*
X154989829Y-118110772D01*
X154993866Y-118117598D01*
X155008250Y-118131982D01*
X155021091Y-118147016D01*
X155033058Y-118163487D01*
X155039166Y-118168540D01*
X155067255Y-118191777D01*
X155076035Y-118199767D01*
X159628479Y-122752211D01*
X159662505Y-122814523D01*
X159657440Y-122885338D01*
X159614893Y-122942174D01*
X159592634Y-122955501D01*
X159405738Y-123042651D01*
X159405733Y-123042654D01*
X159400751Y-123044977D01*
X159357040Y-123075584D01*
X159217711Y-123173143D01*
X159217708Y-123173145D01*
X159213200Y-123176302D01*
X159051302Y-123338200D01*
X158919977Y-123525751D01*
X158917654Y-123530733D01*
X158917651Y-123530738D01*
X158825539Y-123728275D01*
X158823216Y-123733257D01*
X158763957Y-123954413D01*
X158744002Y-124182500D01*
X158763957Y-124410587D01*
X158765381Y-124415900D01*
X158765381Y-124415902D01*
X158787308Y-124497732D01*
X158823216Y-124631743D01*
X158825539Y-124636724D01*
X158825539Y-124636725D01*
X158917651Y-124834262D01*
X158917654Y-124834267D01*
X158919977Y-124839249D01*
X158923134Y-124843757D01*
X159020818Y-124983264D01*
X159051302Y-125026800D01*
X159213200Y-125188698D01*
X159217708Y-125191855D01*
X159217711Y-125191857D01*
X159295889Y-125246598D01*
X159400751Y-125320023D01*
X159405733Y-125322346D01*
X159405738Y-125322349D01*
X159603275Y-125414461D01*
X159608257Y-125416784D01*
X159613565Y-125418206D01*
X159613567Y-125418207D01*
X159824098Y-125474619D01*
X159824100Y-125474619D01*
X159829413Y-125476043D01*
X159928980Y-125484754D01*
X159997649Y-125490762D01*
X159997656Y-125490762D01*
X160000373Y-125491000D01*
X160114627Y-125491000D01*
X160117344Y-125490762D01*
X160117351Y-125490762D01*
X160186020Y-125484754D01*
X160285587Y-125476043D01*
X160290900Y-125474619D01*
X160290902Y-125474619D01*
X160501433Y-125418207D01*
X160501435Y-125418206D01*
X160506743Y-125416784D01*
X160511725Y-125414461D01*
X160709262Y-125322349D01*
X160709267Y-125322346D01*
X160714249Y-125320023D01*
X160819111Y-125246598D01*
X160897289Y-125191857D01*
X160897292Y-125191855D01*
X160901800Y-125188698D01*
X161063698Y-125026800D01*
X161144787Y-124910993D01*
X161200244Y-124866665D01*
X161270863Y-124859356D01*
X161334224Y-124891387D01*
X161370209Y-124952588D01*
X161374000Y-124983264D01*
X161374000Y-125537676D01*
X161388833Y-125699100D01*
X161447874Y-125908445D01*
X161522748Y-126060274D01*
X161534937Y-126130214D01*
X161507378Y-126195643D01*
X161448820Y-126235787D01*
X161409741Y-126242000D01*
X120334000Y-126242000D01*
X120265879Y-126221998D01*
X120219386Y-126168342D01*
X120208000Y-126116000D01*
X120208000Y-117277733D01*
X138703822Y-117277733D01*
X138703975Y-117282121D01*
X138703975Y-117282127D01*
X138712483Y-117525751D01*
X138713625Y-117558458D01*
X138714387Y-117562781D01*
X138714388Y-117562788D01*
X138738164Y-117697624D01*
X138762402Y-117835087D01*
X138849203Y-118102235D01*
X138851131Y-118106188D01*
X138851133Y-118106193D01*
X138867133Y-118138997D01*
X138972340Y-118354702D01*
X138974795Y-118358341D01*
X138974798Y-118358347D01*
X139013620Y-118415902D01*
X139129415Y-118587576D01*
X139317371Y-118796322D01*
X139532550Y-118976879D01*
X139770764Y-119125731D01*
X140027375Y-119239982D01*
X140297390Y-119317407D01*
X140301740Y-119318018D01*
X140301743Y-119318019D01*
X140404690Y-119332487D01*
X140575552Y-119356500D01*
X140786146Y-119356500D01*
X140788332Y-119356347D01*
X140788336Y-119356347D01*
X140991827Y-119342118D01*
X140991832Y-119342117D01*
X140996212Y-119341811D01*
X141270970Y-119283409D01*
X141275099Y-119281906D01*
X141275103Y-119281905D01*
X141530781Y-119188846D01*
X141530785Y-119188844D01*
X141534926Y-119187337D01*
X141782942Y-119055464D01*
X141840525Y-119013628D01*
X142006629Y-118892947D01*
X142006632Y-118892944D01*
X142010192Y-118890358D01*
X142054038Y-118848017D01*
X142209087Y-118698287D01*
X142212252Y-118695231D01*
X142385188Y-118473882D01*
X142387384Y-118470078D01*
X142387389Y-118470071D01*
X142523435Y-118234431D01*
X142525636Y-118230619D01*
X142630862Y-117970176D01*
X142639187Y-117936785D01*
X142697753Y-117701893D01*
X142697754Y-117701888D01*
X142698817Y-117697624D01*
X142700610Y-117680570D01*
X142727719Y-117422636D01*
X142727719Y-117422633D01*
X142728178Y-117418267D01*
X142727875Y-117409577D01*
X142718529Y-117141939D01*
X142718528Y-117141933D01*
X142718375Y-117137542D01*
X142713220Y-117108303D01*
X142674458Y-116888478D01*
X142669598Y-116860913D01*
X142582797Y-116593765D01*
X142579828Y-116587676D01*
X142518320Y-116461569D01*
X142459660Y-116341298D01*
X142457205Y-116337659D01*
X142457202Y-116337653D01*
X142376935Y-116218653D01*
X142302585Y-116108424D01*
X142294011Y-116098901D01*
X142117566Y-115902940D01*
X142114629Y-115899678D01*
X141899450Y-115719121D01*
X141661236Y-115570269D01*
X141404625Y-115456018D01*
X141134610Y-115378593D01*
X141130260Y-115377982D01*
X141130257Y-115377981D01*
X141027310Y-115363513D01*
X140856448Y-115339500D01*
X140645854Y-115339500D01*
X140643668Y-115339653D01*
X140643664Y-115339653D01*
X140440173Y-115353882D01*
X140440168Y-115353883D01*
X140435788Y-115354189D01*
X140161030Y-115412591D01*
X140156901Y-115414094D01*
X140156897Y-115414095D01*
X139901219Y-115507154D01*
X139901215Y-115507156D01*
X139897074Y-115508663D01*
X139649058Y-115640536D01*
X139645499Y-115643122D01*
X139645497Y-115643123D01*
X139540895Y-115719121D01*
X139421808Y-115805642D01*
X139219748Y-116000769D01*
X139046812Y-116222118D01*
X139044616Y-116225922D01*
X139044611Y-116225929D01*
X138966900Y-116360530D01*
X138906364Y-116465381D01*
X138801138Y-116725824D01*
X138800073Y-116730097D01*
X138800072Y-116730099D01*
X138737309Y-116981829D01*
X138733183Y-116998376D01*
X138732724Y-117002744D01*
X138732723Y-117002749D01*
X138714073Y-117180199D01*
X138703822Y-117277733D01*
X120208000Y-117277733D01*
X120208000Y-110200000D01*
X144086496Y-110200000D01*
X144106458Y-110389928D01*
X144165473Y-110571556D01*
X144260960Y-110736944D01*
X144388747Y-110878866D01*
X144543248Y-110991118D01*
X144549276Y-110993802D01*
X144549278Y-110993803D01*
X144711681Y-111066109D01*
X144717712Y-111068794D01*
X144811112Y-111088647D01*
X144898056Y-111107128D01*
X144898061Y-111107128D01*
X144904513Y-111108500D01*
X145095487Y-111108500D01*
X145101939Y-111107128D01*
X145101944Y-111107128D01*
X145188888Y-111088647D01*
X145282288Y-111068794D01*
X145288319Y-111066109D01*
X145450722Y-110993803D01*
X145450724Y-110993802D01*
X145456752Y-110991118D01*
X145611253Y-110878866D01*
X145739040Y-110736944D01*
X145834527Y-110571556D01*
X145893542Y-110389928D01*
X145913504Y-110200000D01*
X145901181Y-110082749D01*
X145894232Y-110016635D01*
X145894232Y-110016633D01*
X145893542Y-110010072D01*
X145834527Y-109828444D01*
X145739040Y-109663056D01*
X145667864Y-109584007D01*
X145637146Y-109520000D01*
X145635500Y-109499697D01*
X145635500Y-107915422D01*
X145655502Y-107847301D01*
X145672405Y-107826327D01*
X146449405Y-107049327D01*
X146511717Y-107015301D01*
X146582532Y-107020366D01*
X146639368Y-107062913D01*
X146664179Y-107129433D01*
X146664500Y-107138422D01*
X146664500Y-108020980D01*
X146663970Y-108032214D01*
X146662292Y-108039719D01*
X146662541Y-108047638D01*
X146664438Y-108108012D01*
X146664500Y-108111969D01*
X146664500Y-108139983D01*
X146664996Y-108143908D01*
X146664996Y-108143909D01*
X146665008Y-108144004D01*
X146665942Y-108155856D01*
X146667050Y-108191118D01*
X146667335Y-108200205D01*
X146669547Y-108207817D01*
X146673013Y-108219748D01*
X146677023Y-108239112D01*
X146679573Y-108259299D01*
X146682489Y-108266663D01*
X146682490Y-108266668D01*
X146695907Y-108300556D01*
X146699752Y-108311785D01*
X146712131Y-108354393D01*
X146716169Y-108361220D01*
X146716170Y-108361223D01*
X146722488Y-108371906D01*
X146731188Y-108389664D01*
X146735761Y-108401215D01*
X146735765Y-108401221D01*
X146738681Y-108408588D01*
X146743339Y-108414999D01*
X146743340Y-108415001D01*
X146764764Y-108444488D01*
X146771281Y-108454410D01*
X146789826Y-108485768D01*
X146789829Y-108485772D01*
X146793866Y-108492598D01*
X146808250Y-108506982D01*
X146821091Y-108522016D01*
X146833058Y-108538487D01*
X146865264Y-108565130D01*
X146867250Y-108566773D01*
X146876031Y-108574763D01*
X147653211Y-109351944D01*
X147687236Y-109414256D01*
X147689425Y-109427868D01*
X147706458Y-109589928D01*
X147765473Y-109771556D01*
X147860960Y-109936944D01*
X147988747Y-110078866D01*
X148143248Y-110191118D01*
X148149276Y-110193802D01*
X148149278Y-110193803D01*
X148311681Y-110266109D01*
X148317712Y-110268794D01*
X148411112Y-110288647D01*
X148498056Y-110307128D01*
X148498061Y-110307128D01*
X148504513Y-110308500D01*
X148695487Y-110308500D01*
X148701939Y-110307128D01*
X148701944Y-110307128D01*
X148788888Y-110288647D01*
X148882288Y-110268794D01*
X148888319Y-110266109D01*
X149050722Y-110193803D01*
X149050724Y-110193802D01*
X149056752Y-110191118D01*
X149211253Y-110078866D01*
X149339040Y-109936944D01*
X149434527Y-109771556D01*
X149493542Y-109589928D01*
X149513504Y-109400000D01*
X149493542Y-109210072D01*
X149434527Y-109028444D01*
X149339040Y-108863056D01*
X149211253Y-108721134D01*
X149056752Y-108608882D01*
X149050724Y-108606198D01*
X149050722Y-108606197D01*
X148888319Y-108533891D01*
X148888318Y-108533891D01*
X148882288Y-108531206D01*
X148768324Y-108506982D01*
X148701944Y-108492872D01*
X148701939Y-108492872D01*
X148695487Y-108491500D01*
X148642423Y-108491500D01*
X148574302Y-108471498D01*
X148553328Y-108454595D01*
X147972405Y-107873672D01*
X147938379Y-107811360D01*
X147935500Y-107784577D01*
X147935500Y-99928173D01*
X147955502Y-99860052D01*
X148009158Y-99813559D01*
X148079432Y-99803455D01*
X148087694Y-99804926D01*
X148098049Y-99807127D01*
X148098058Y-99807128D01*
X148104513Y-99808500D01*
X148157578Y-99808500D01*
X148225699Y-99828502D01*
X148246673Y-99845405D01*
X149694702Y-101293435D01*
X151094750Y-102693483D01*
X151102326Y-102701809D01*
X151106447Y-102708303D01*
X151112222Y-102713726D01*
X151156265Y-102755085D01*
X151159107Y-102757840D01*
X151178906Y-102777639D01*
X151182037Y-102780068D01*
X151182042Y-102780072D01*
X151182128Y-102780139D01*
X151191153Y-102787847D01*
X151217715Y-102812791D01*
X151217719Y-102812794D01*
X151223494Y-102818217D01*
X151230440Y-102822036D01*
X151230445Y-102822039D01*
X151241328Y-102828022D01*
X151257856Y-102838878D01*
X151267671Y-102846492D01*
X151267674Y-102846494D01*
X151273933Y-102851349D01*
X151281203Y-102854495D01*
X151281208Y-102854498D01*
X151314650Y-102868969D01*
X151325311Y-102874192D01*
X151357247Y-102891749D01*
X151357252Y-102891751D01*
X151364197Y-102895569D01*
X151371871Y-102897539D01*
X151371878Y-102897542D01*
X151383913Y-102900632D01*
X151402618Y-102907036D01*
X151414013Y-102911967D01*
X151421292Y-102915117D01*
X151448342Y-102919401D01*
X151465127Y-102922060D01*
X151476740Y-102924465D01*
X151519718Y-102935500D01*
X151540065Y-102935500D01*
X151559777Y-102937051D01*
X151579879Y-102940235D01*
X151587771Y-102939489D01*
X151624056Y-102936059D01*
X151635914Y-102935500D01*
X151893601Y-102935500D01*
X151961722Y-102955502D01*
X151978908Y-102970109D01*
X151979420Y-102969540D01*
X151984332Y-102973963D01*
X151988747Y-102978866D01*
X152143248Y-103091118D01*
X152149276Y-103093802D01*
X152149278Y-103093803D01*
X152311681Y-103166109D01*
X152317712Y-103168794D01*
X152411113Y-103188647D01*
X152498056Y-103207128D01*
X152498061Y-103207128D01*
X152504513Y-103208500D01*
X152695487Y-103208500D01*
X152701939Y-103207128D01*
X152701944Y-103207128D01*
X152788887Y-103188647D01*
X152882288Y-103168794D01*
X152888319Y-103166109D01*
X153050722Y-103093803D01*
X153050724Y-103093802D01*
X153056752Y-103091118D01*
X153211253Y-102978866D01*
X153232740Y-102955002D01*
X153334621Y-102841852D01*
X153334622Y-102841851D01*
X153339040Y-102836944D01*
X153418246Y-102699756D01*
X153431223Y-102677279D01*
X153431224Y-102677278D01*
X153434527Y-102671556D01*
X153493542Y-102489928D01*
X153513504Y-102300000D01*
X153493542Y-102110072D01*
X153434527Y-101928444D01*
X153427339Y-101915993D01*
X153381699Y-101836944D01*
X153339040Y-101763056D01*
X153211253Y-101621134D01*
X153056752Y-101508882D01*
X153050724Y-101506198D01*
X153050722Y-101506197D01*
X152888319Y-101433891D01*
X152888318Y-101433891D01*
X152882288Y-101431206D01*
X152788887Y-101411353D01*
X152701944Y-101392872D01*
X152701939Y-101392872D01*
X152695487Y-101391500D01*
X152504513Y-101391500D01*
X152498061Y-101392872D01*
X152498056Y-101392872D01*
X152411112Y-101411353D01*
X152317712Y-101431206D01*
X152311682Y-101433891D01*
X152311681Y-101433891D01*
X152149278Y-101506197D01*
X152149276Y-101506198D01*
X152143248Y-101508882D01*
X151988747Y-101621134D01*
X151987592Y-101622417D01*
X151925212Y-101652349D01*
X151854759Y-101643581D01*
X151815821Y-101617089D01*
X149146790Y-98948057D01*
X149112764Y-98885745D01*
X149110575Y-98872132D01*
X149094232Y-98716635D01*
X149094232Y-98716633D01*
X149093542Y-98710072D01*
X149034527Y-98528444D01*
X148939040Y-98363056D01*
X148918216Y-98339928D01*
X148815675Y-98226045D01*
X148815674Y-98226044D01*
X148811253Y-98221134D01*
X148656752Y-98108882D01*
X148650724Y-98106198D01*
X148650722Y-98106197D01*
X148488319Y-98033891D01*
X148488318Y-98033891D01*
X148482288Y-98031206D01*
X148388888Y-98011353D01*
X148301944Y-97992872D01*
X148301939Y-97992872D01*
X148295487Y-97991500D01*
X148104513Y-97991500D01*
X148098058Y-97992872D01*
X148098049Y-97992873D01*
X148087694Y-97995074D01*
X148016904Y-97989671D01*
X147960272Y-97946853D01*
X147935780Y-97880215D01*
X147935500Y-97871827D01*
X147935500Y-96723803D01*
X147955502Y-96655682D01*
X147967864Y-96639493D01*
X148034621Y-96565352D01*
X148034622Y-96565351D01*
X148039040Y-96560444D01*
X148134527Y-96395056D01*
X148193542Y-96213428D01*
X148199662Y-96155205D01*
X148212814Y-96030065D01*
X148213504Y-96023500D01*
X148193542Y-95833572D01*
X148134527Y-95651944D01*
X148039040Y-95486556D01*
X148013462Y-95458148D01*
X147915675Y-95349545D01*
X147915674Y-95349544D01*
X147911253Y-95344634D01*
X147756752Y-95232382D01*
X147750724Y-95229698D01*
X147750722Y-95229697D01*
X147588319Y-95157391D01*
X147588318Y-95157391D01*
X147582288Y-95154706D01*
X147488888Y-95134853D01*
X147401944Y-95116372D01*
X147401939Y-95116372D01*
X147395487Y-95115000D01*
X147204513Y-95115000D01*
X147198061Y-95116372D01*
X147198056Y-95116372D01*
X147111112Y-95134853D01*
X147017712Y-95154706D01*
X147011682Y-95157391D01*
X147011681Y-95157391D01*
X146849278Y-95229697D01*
X146849276Y-95229698D01*
X146843248Y-95232382D01*
X146688747Y-95344634D01*
X146684326Y-95349544D01*
X146684325Y-95349545D01*
X146586539Y-95458148D01*
X146560960Y-95486556D01*
X146465473Y-95651944D01*
X146406458Y-95833572D01*
X146386496Y-96023500D01*
X146387186Y-96030065D01*
X146400339Y-96155205D01*
X146406458Y-96213428D01*
X146465473Y-96395056D01*
X146560960Y-96560444D01*
X146565378Y-96565351D01*
X146565379Y-96565352D01*
X146632136Y-96639493D01*
X146662854Y-96703500D01*
X146664500Y-96723803D01*
X146664500Y-97201701D01*
X146644498Y-97269822D01*
X146590842Y-97316315D01*
X146520568Y-97326419D01*
X146487253Y-97316809D01*
X146407288Y-97281206D01*
X146313888Y-97261353D01*
X146226944Y-97242872D01*
X146226939Y-97242872D01*
X146220487Y-97241500D01*
X146029513Y-97241500D01*
X146023061Y-97242872D01*
X146023056Y-97242872D01*
X145936112Y-97261353D01*
X145842712Y-97281206D01*
X145836682Y-97283891D01*
X145836681Y-97283891D01*
X145674278Y-97356197D01*
X145674276Y-97356198D01*
X145668248Y-97358882D01*
X145513747Y-97471134D01*
X145509326Y-97476044D01*
X145509325Y-97476045D01*
X145439230Y-97553894D01*
X145385960Y-97613056D01*
X145382659Y-97618774D01*
X145294150Y-97772076D01*
X145290473Y-97778444D01*
X145231458Y-97960072D01*
X145230768Y-97966633D01*
X145230768Y-97966635D01*
X145223971Y-98031305D01*
X145211496Y-98150000D01*
X145212186Y-98156565D01*
X145230236Y-98328297D01*
X145231458Y-98339928D01*
X145290473Y-98521556D01*
X145293776Y-98527278D01*
X145293777Y-98527279D01*
X145308972Y-98553598D01*
X145385960Y-98686944D01*
X145390378Y-98691851D01*
X145390379Y-98691852D01*
X145457136Y-98765993D01*
X145487854Y-98830000D01*
X145489500Y-98850303D01*
X145489500Y-106159577D01*
X145469498Y-106227698D01*
X145452595Y-106248672D01*
X144606517Y-107094750D01*
X144598191Y-107102326D01*
X144591697Y-107106447D01*
X144586274Y-107112222D01*
X144544915Y-107156265D01*
X144542160Y-107159107D01*
X144522361Y-107178906D01*
X144519937Y-107182031D01*
X144519929Y-107182040D01*
X144519863Y-107182126D01*
X144512155Y-107191151D01*
X144481783Y-107223494D01*
X144477965Y-107230438D01*
X144477964Y-107230440D01*
X144471978Y-107241329D01*
X144461127Y-107257847D01*
X144448650Y-107273933D01*
X144431024Y-107314666D01*
X144425807Y-107325314D01*
X144404431Y-107364197D01*
X144402460Y-107371872D01*
X144402458Y-107371878D01*
X144399369Y-107383911D01*
X144392966Y-107402613D01*
X144384883Y-107421292D01*
X144383644Y-107429117D01*
X144377940Y-107465127D01*
X144375535Y-107476740D01*
X144364500Y-107519718D01*
X144364500Y-107540065D01*
X144362949Y-107559776D01*
X144359765Y-107579879D01*
X144360511Y-107587771D01*
X144363941Y-107624056D01*
X144364500Y-107635914D01*
X144364500Y-109499697D01*
X144344498Y-109567818D01*
X144332136Y-109584006D01*
X144260960Y-109663056D01*
X144165473Y-109828444D01*
X144106458Y-110010072D01*
X144105768Y-110016633D01*
X144105768Y-110016635D01*
X144098819Y-110082749D01*
X144086496Y-110200000D01*
X120208000Y-110200000D01*
X120208000Y-99880000D01*
X122001693Y-99880000D01*
X122020885Y-100099371D01*
X122077880Y-100312076D01*
X122101735Y-100363233D01*
X122168618Y-100506666D01*
X122168621Y-100506671D01*
X122170944Y-100511653D01*
X122174100Y-100516160D01*
X122174101Y-100516162D01*
X122290747Y-100682749D01*
X122297251Y-100692038D01*
X122452962Y-100847749D01*
X122457471Y-100850906D01*
X122457473Y-100850908D01*
X122532241Y-100903261D01*
X122633346Y-100974056D01*
X122832924Y-101067120D01*
X123045629Y-101124115D01*
X123265000Y-101143307D01*
X123484371Y-101124115D01*
X123697076Y-101067120D01*
X123896654Y-100974056D01*
X123997759Y-100903261D01*
X124072527Y-100850908D01*
X124072529Y-100850906D01*
X124077038Y-100847749D01*
X124232749Y-100692038D01*
X124239254Y-100682749D01*
X124355899Y-100516162D01*
X124355900Y-100516160D01*
X124359056Y-100511653D01*
X124361379Y-100506671D01*
X124361382Y-100506666D01*
X124420805Y-100379231D01*
X124467722Y-100325946D01*
X124535999Y-100306485D01*
X124603959Y-100327027D01*
X124649195Y-100379231D01*
X124708618Y-100506666D01*
X124708621Y-100506671D01*
X124710944Y-100511653D01*
X124714100Y-100516160D01*
X124714101Y-100516162D01*
X124830747Y-100682749D01*
X124837251Y-100692038D01*
X124992962Y-100847749D01*
X124997471Y-100850906D01*
X124997473Y-100850908D01*
X125072241Y-100903261D01*
X125173346Y-100974056D01*
X125372924Y-101067120D01*
X125585629Y-101124115D01*
X125805000Y-101143307D01*
X126024371Y-101124115D01*
X126237076Y-101067120D01*
X126436654Y-100974056D01*
X126537759Y-100903261D01*
X126612527Y-100850908D01*
X126612529Y-100850906D01*
X126617038Y-100847749D01*
X126772749Y-100692038D01*
X126779254Y-100682749D01*
X126895899Y-100516162D01*
X126895900Y-100516160D01*
X126899056Y-100511653D01*
X126901379Y-100506671D01*
X126901382Y-100506666D01*
X126960805Y-100379231D01*
X127007722Y-100325946D01*
X127075999Y-100306485D01*
X127143959Y-100327027D01*
X127189195Y-100379231D01*
X127248618Y-100506666D01*
X127248621Y-100506671D01*
X127250944Y-100511653D01*
X127254100Y-100516160D01*
X127254101Y-100516162D01*
X127370747Y-100682749D01*
X127377251Y-100692038D01*
X127532962Y-100847749D01*
X127537471Y-100850906D01*
X127537473Y-100850908D01*
X127612241Y-100903261D01*
X127713346Y-100974056D01*
X127912924Y-101067120D01*
X128125629Y-101124115D01*
X128345000Y-101143307D01*
X128564371Y-101124115D01*
X128777076Y-101067120D01*
X128976654Y-100974056D01*
X129039342Y-100930161D01*
X130199393Y-100930161D01*
X130208687Y-100942175D01*
X130249088Y-100970464D01*
X130258584Y-100975947D01*
X130448113Y-101064326D01*
X130458405Y-101068072D01*
X130660401Y-101122196D01*
X130671196Y-101124099D01*
X130879525Y-101142326D01*
X130890475Y-101142326D01*
X131098804Y-101124099D01*
X131109599Y-101122196D01*
X131311595Y-101068072D01*
X131321887Y-101064326D01*
X131511416Y-100975947D01*
X131520912Y-100970464D01*
X131562148Y-100941590D01*
X131570523Y-100931112D01*
X131563457Y-100917668D01*
X130897811Y-100252021D01*
X130883868Y-100244408D01*
X130882034Y-100244539D01*
X130875420Y-100248790D01*
X130205820Y-100918391D01*
X130199393Y-100930161D01*
X129039342Y-100930161D01*
X129077759Y-100903261D01*
X129152527Y-100850908D01*
X129152529Y-100850906D01*
X129157038Y-100847749D01*
X129312749Y-100692038D01*
X129319254Y-100682749D01*
X129435899Y-100516162D01*
X129435900Y-100516160D01*
X129439056Y-100511653D01*
X129441379Y-100506671D01*
X129441382Y-100506666D01*
X129501081Y-100378640D01*
X129547998Y-100325355D01*
X129616276Y-100305894D01*
X129684236Y-100326436D01*
X129729471Y-100378640D01*
X129789054Y-100506417D01*
X129794534Y-100515907D01*
X129823411Y-100557149D01*
X129833887Y-100565523D01*
X129847334Y-100558455D01*
X130512979Y-99892811D01*
X130519356Y-99881132D01*
X131249408Y-99881132D01*
X131249539Y-99882966D01*
X131253790Y-99889580D01*
X131923391Y-100559180D01*
X131935161Y-100565607D01*
X131947176Y-100556311D01*
X131975466Y-100515907D01*
X131980946Y-100506417D01*
X132069326Y-100316887D01*
X132073072Y-100306595D01*
X132127196Y-100104599D01*
X132129099Y-100093804D01*
X132137306Y-100000000D01*
X137786496Y-100000000D01*
X137787186Y-100006565D01*
X137804381Y-100170163D01*
X137806458Y-100189928D01*
X137865473Y-100371556D01*
X137960960Y-100536944D01*
X137965378Y-100541851D01*
X137965379Y-100541852D01*
X138045162Y-100630460D01*
X138088747Y-100678866D01*
X138243248Y-100791118D01*
X138249276Y-100793802D01*
X138249278Y-100793803D01*
X138377539Y-100850908D01*
X138417712Y-100868794D01*
X138511112Y-100888647D01*
X138598056Y-100907128D01*
X138598061Y-100907128D01*
X138604513Y-100908500D01*
X138657578Y-100908500D01*
X138725699Y-100928502D01*
X138746673Y-100945405D01*
X138867995Y-101066727D01*
X138902021Y-101129039D01*
X138896956Y-101199854D01*
X138852962Y-101257757D01*
X138729257Y-101347634D01*
X138724836Y-101352544D01*
X138724835Y-101352545D01*
X138654009Y-101431206D01*
X138601470Y-101489556D01*
X138505983Y-101654944D01*
X138446968Y-101836572D01*
X138446278Y-101843133D01*
X138446278Y-101843135D01*
X138437913Y-101922721D01*
X138427006Y-102026500D01*
X138446968Y-102216428D01*
X138505983Y-102398056D01*
X138601470Y-102563444D01*
X138605888Y-102568351D01*
X138605889Y-102568352D01*
X138724206Y-102699756D01*
X138729257Y-102705366D01*
X138883758Y-102817618D01*
X138889786Y-102820302D01*
X138889788Y-102820303D01*
X139052191Y-102892609D01*
X139058222Y-102895294D01*
X139136662Y-102911967D01*
X139238566Y-102933628D01*
X139238571Y-102933628D01*
X139245023Y-102935000D01*
X139298088Y-102935000D01*
X139366209Y-102955002D01*
X139387183Y-102971905D01*
X140551565Y-104136288D01*
X140585591Y-104198600D01*
X140587779Y-104212206D01*
X140606458Y-104389928D01*
X140665473Y-104571556D01*
X140760960Y-104736944D01*
X140888747Y-104878866D01*
X141043248Y-104991118D01*
X141049276Y-104993802D01*
X141049278Y-104993803D01*
X141211681Y-105066109D01*
X141217712Y-105068794D01*
X141311112Y-105088647D01*
X141398056Y-105107128D01*
X141398061Y-105107128D01*
X141404513Y-105108500D01*
X141595487Y-105108500D01*
X141601939Y-105107128D01*
X141601944Y-105107128D01*
X141688888Y-105088647D01*
X141782288Y-105068794D01*
X141788319Y-105066109D01*
X141950722Y-104993803D01*
X141950724Y-104993802D01*
X141956752Y-104991118D01*
X142111253Y-104878866D01*
X142239040Y-104736944D01*
X142334527Y-104571556D01*
X142393542Y-104389928D01*
X142413504Y-104200000D01*
X142393542Y-104010072D01*
X142334527Y-103828444D01*
X142239040Y-103663056D01*
X142111253Y-103521134D01*
X141956752Y-103408882D01*
X141950724Y-103406198D01*
X141950722Y-103406197D01*
X141788319Y-103333891D01*
X141788318Y-103333891D01*
X141782288Y-103331206D01*
X141688888Y-103311353D01*
X141601944Y-103292872D01*
X141601939Y-103292872D01*
X141595487Y-103291500D01*
X141556432Y-103291500D01*
X141488311Y-103271498D01*
X141467337Y-103254595D01*
X140363338Y-102150595D01*
X140329312Y-102088283D01*
X140334377Y-102017467D01*
X140376924Y-101960632D01*
X140443444Y-101935821D01*
X140452433Y-101935500D01*
X142838500Y-101935500D01*
X142906621Y-101955502D01*
X142953114Y-102009158D01*
X142964500Y-102061500D01*
X142964500Y-106284578D01*
X142944498Y-106352699D01*
X142927595Y-106373673D01*
X142846673Y-106454595D01*
X142784361Y-106488621D01*
X142757578Y-106491500D01*
X142704513Y-106491500D01*
X142698061Y-106492872D01*
X142698056Y-106492872D01*
X142611113Y-106511353D01*
X142517712Y-106531206D01*
X142511682Y-106533891D01*
X142511681Y-106533891D01*
X142349278Y-106606197D01*
X142349276Y-106606198D01*
X142343248Y-106608882D01*
X142188747Y-106721134D01*
X142184326Y-106726044D01*
X142184325Y-106726045D01*
X142071360Y-106851506D01*
X142060960Y-106863056D01*
X142029647Y-106917291D01*
X141969717Y-107021094D01*
X141965473Y-107028444D01*
X141906458Y-107210072D01*
X141905768Y-107216633D01*
X141905768Y-107216635D01*
X141905047Y-107223494D01*
X141886496Y-107400000D01*
X141887186Y-107406565D01*
X141894563Y-107476749D01*
X141906458Y-107589928D01*
X141965473Y-107771556D01*
X142060960Y-107936944D01*
X142188747Y-108078866D01*
X142343248Y-108191118D01*
X142349276Y-108193802D01*
X142349278Y-108193803D01*
X142511681Y-108266109D01*
X142517712Y-108268794D01*
X142611112Y-108288647D01*
X142698056Y-108307128D01*
X142698061Y-108307128D01*
X142704513Y-108308500D01*
X142895487Y-108308500D01*
X142901939Y-108307128D01*
X142901944Y-108307128D01*
X142988888Y-108288647D01*
X143082288Y-108268794D01*
X143088319Y-108266109D01*
X143250722Y-108193803D01*
X143250724Y-108193802D01*
X143256752Y-108191118D01*
X143411253Y-108078866D01*
X143539040Y-107936944D01*
X143634527Y-107771556D01*
X143693542Y-107589928D01*
X143705438Y-107476749D01*
X143710575Y-107427868D01*
X143737588Y-107362211D01*
X143746790Y-107351942D01*
X143857404Y-107241329D01*
X143993488Y-107105245D01*
X144001807Y-107097675D01*
X144008303Y-107093553D01*
X144055086Y-107043734D01*
X144057840Y-107040893D01*
X144077639Y-107021094D01*
X144080063Y-107017969D01*
X144080071Y-107017960D01*
X144080137Y-107017874D01*
X144087845Y-107008849D01*
X144112790Y-106982285D01*
X144118217Y-106976506D01*
X144122590Y-106968553D01*
X144128022Y-106958671D01*
X144138873Y-106942153D01*
X144151350Y-106926067D01*
X144168976Y-106885334D01*
X144174193Y-106874686D01*
X144191749Y-106842751D01*
X144195569Y-106835803D01*
X144197540Y-106828128D01*
X144197542Y-106828122D01*
X144200631Y-106816089D01*
X144207034Y-106797387D01*
X144215117Y-106778708D01*
X144222060Y-106734873D01*
X144224467Y-106723251D01*
X144226008Y-106717251D01*
X144235500Y-106680282D01*
X144235500Y-106659935D01*
X144237051Y-106640224D01*
X144238995Y-106627950D01*
X144240235Y-106620121D01*
X144236059Y-106575944D01*
X144235500Y-106564086D01*
X144235500Y-102000303D01*
X144255502Y-101932182D01*
X144267864Y-101915993D01*
X144334621Y-101841852D01*
X144334622Y-101841851D01*
X144339040Y-101836944D01*
X144434527Y-101671556D01*
X144493542Y-101489928D01*
X144513504Y-101300000D01*
X144509064Y-101257758D01*
X144494232Y-101116635D01*
X144494232Y-101116633D01*
X144493542Y-101110072D01*
X144434527Y-100928444D01*
X144428306Y-100917668D01*
X144356792Y-100793803D01*
X144339040Y-100763056D01*
X144271034Y-100687527D01*
X144215675Y-100626045D01*
X144215674Y-100626044D01*
X144211253Y-100621134D01*
X144056752Y-100508882D01*
X144050724Y-100506198D01*
X144050722Y-100506197D01*
X143888319Y-100433891D01*
X143888318Y-100433891D01*
X143882288Y-100431206D01*
X143788887Y-100411353D01*
X143701944Y-100392872D01*
X143701939Y-100392872D01*
X143695487Y-100391500D01*
X143504513Y-100391500D01*
X143498061Y-100392872D01*
X143498056Y-100392872D01*
X143411113Y-100411353D01*
X143317712Y-100431206D01*
X143311682Y-100433891D01*
X143311681Y-100433891D01*
X143149278Y-100506197D01*
X143149276Y-100506198D01*
X143143248Y-100508882D01*
X142988747Y-100621134D01*
X142984332Y-100626037D01*
X142979420Y-100630460D01*
X142977779Y-100628638D01*
X142926790Y-100660050D01*
X142893601Y-100664500D01*
X140315423Y-100664500D01*
X140247302Y-100644498D01*
X140226328Y-100627595D01*
X139646790Y-100048057D01*
X139612764Y-99985745D01*
X139610575Y-99972132D01*
X139594232Y-99816635D01*
X139594232Y-99816633D01*
X139593542Y-99810072D01*
X139534527Y-99628444D01*
X139508422Y-99583228D01*
X139463878Y-99506077D01*
X139439040Y-99463056D01*
X139430982Y-99454106D01*
X139315675Y-99326045D01*
X139315674Y-99326044D01*
X139311253Y-99321134D01*
X139189729Y-99232841D01*
X139162094Y-99212763D01*
X139162093Y-99212762D01*
X139156752Y-99208882D01*
X139150724Y-99206198D01*
X139150722Y-99206197D01*
X138988319Y-99133891D01*
X138988318Y-99133891D01*
X138982288Y-99131206D01*
X138888888Y-99111353D01*
X138801944Y-99092872D01*
X138801939Y-99092872D01*
X138795487Y-99091500D01*
X138604513Y-99091500D01*
X138598061Y-99092872D01*
X138598056Y-99092872D01*
X138511112Y-99111353D01*
X138417712Y-99131206D01*
X138411682Y-99133891D01*
X138411681Y-99133891D01*
X138249278Y-99206197D01*
X138249276Y-99206198D01*
X138243248Y-99208882D01*
X138237907Y-99212762D01*
X138237906Y-99212763D01*
X138210271Y-99232841D01*
X138088747Y-99321134D01*
X138084326Y-99326044D01*
X138084325Y-99326045D01*
X137969019Y-99454106D01*
X137960960Y-99463056D01*
X137936122Y-99506077D01*
X137891579Y-99583228D01*
X137865473Y-99628444D01*
X137806458Y-99810072D01*
X137805768Y-99816633D01*
X137805768Y-99816635D01*
X137792573Y-99942178D01*
X137786496Y-100000000D01*
X132137306Y-100000000D01*
X132147326Y-99885475D01*
X132147326Y-99874525D01*
X132129099Y-99666196D01*
X132127196Y-99655401D01*
X132073072Y-99453405D01*
X132069326Y-99443113D01*
X131980946Y-99253583D01*
X131975466Y-99244093D01*
X131946589Y-99202851D01*
X131936113Y-99194477D01*
X131922666Y-99201545D01*
X131257021Y-99867189D01*
X131249408Y-99881132D01*
X130519356Y-99881132D01*
X130520592Y-99878868D01*
X130520461Y-99877034D01*
X130516210Y-99870420D01*
X129846609Y-99200820D01*
X129834839Y-99194393D01*
X129822824Y-99203689D01*
X129794534Y-99244093D01*
X129789054Y-99253583D01*
X129729471Y-99381360D01*
X129682554Y-99434645D01*
X129614276Y-99454106D01*
X129546316Y-99433564D01*
X129501081Y-99381360D01*
X129441382Y-99253334D01*
X129441379Y-99253329D01*
X129439056Y-99248347D01*
X129426098Y-99229841D01*
X129315908Y-99072473D01*
X129315906Y-99072470D01*
X129312749Y-99067962D01*
X129157038Y-98912251D01*
X129099743Y-98872132D01*
X129039342Y-98829839D01*
X128976654Y-98785944D01*
X128777076Y-98692880D01*
X128564371Y-98635885D01*
X128345000Y-98616693D01*
X128125629Y-98635885D01*
X127912924Y-98692880D01*
X127819562Y-98736415D01*
X127718334Y-98783618D01*
X127718329Y-98783621D01*
X127713347Y-98785944D01*
X127708840Y-98789100D01*
X127708838Y-98789101D01*
X127537473Y-98909092D01*
X127537470Y-98909094D01*
X127532962Y-98912251D01*
X127377251Y-99067962D01*
X127374094Y-99072470D01*
X127374092Y-99072473D01*
X127263902Y-99229841D01*
X127250944Y-99248347D01*
X127248621Y-99253329D01*
X127248618Y-99253334D01*
X127189195Y-99380769D01*
X127142278Y-99434054D01*
X127074001Y-99453515D01*
X127006041Y-99432973D01*
X126960805Y-99380769D01*
X126901382Y-99253334D01*
X126901379Y-99253329D01*
X126899056Y-99248347D01*
X126886098Y-99229841D01*
X126775908Y-99072473D01*
X126775906Y-99072470D01*
X126772749Y-99067962D01*
X126617038Y-98912251D01*
X126559743Y-98872132D01*
X126499342Y-98829839D01*
X126436654Y-98785944D01*
X126237076Y-98692880D01*
X126024371Y-98635885D01*
X125805000Y-98616693D01*
X125585629Y-98635885D01*
X125372924Y-98692880D01*
X125279562Y-98736415D01*
X125178334Y-98783618D01*
X125178329Y-98783621D01*
X125173347Y-98785944D01*
X125168840Y-98789100D01*
X125168838Y-98789101D01*
X124997473Y-98909092D01*
X124997470Y-98909094D01*
X124992962Y-98912251D01*
X124837251Y-99067962D01*
X124834094Y-99072470D01*
X124834092Y-99072473D01*
X124723902Y-99229841D01*
X124710944Y-99248347D01*
X124708621Y-99253329D01*
X124708618Y-99253334D01*
X124649195Y-99380769D01*
X124602278Y-99434054D01*
X124534001Y-99453515D01*
X124466041Y-99432973D01*
X124420805Y-99380769D01*
X124361382Y-99253334D01*
X124361379Y-99253329D01*
X124359056Y-99248347D01*
X124346098Y-99229841D01*
X124235908Y-99072473D01*
X124235906Y-99072470D01*
X124232749Y-99067962D01*
X124077038Y-98912251D01*
X124019743Y-98872132D01*
X123959342Y-98829839D01*
X123896654Y-98785944D01*
X123697076Y-98692880D01*
X123484371Y-98635885D01*
X123265000Y-98616693D01*
X123045629Y-98635885D01*
X122832924Y-98692880D01*
X122739562Y-98736415D01*
X122638334Y-98783618D01*
X122638329Y-98783621D01*
X122633347Y-98785944D01*
X122628840Y-98789100D01*
X122628838Y-98789101D01*
X122457473Y-98909092D01*
X122457470Y-98909094D01*
X122452962Y-98912251D01*
X122297251Y-99067962D01*
X122294094Y-99072470D01*
X122294092Y-99072473D01*
X122183902Y-99229841D01*
X122170944Y-99248347D01*
X122168621Y-99253329D01*
X122168618Y-99253334D01*
X122123582Y-99349915D01*
X122077880Y-99447924D01*
X122020885Y-99660629D01*
X122001693Y-99880000D01*
X120208000Y-99880000D01*
X120208000Y-97340000D01*
X123271693Y-97340000D01*
X123290885Y-97559371D01*
X123347880Y-97772076D01*
X123354348Y-97785946D01*
X123438618Y-97966666D01*
X123438621Y-97966671D01*
X123440944Y-97971653D01*
X123444100Y-97976160D01*
X123444101Y-97976162D01*
X123555123Y-98134717D01*
X123567251Y-98152038D01*
X123722962Y-98307749D01*
X123903346Y-98434056D01*
X124102924Y-98527120D01*
X124315629Y-98584115D01*
X124535000Y-98603307D01*
X124754371Y-98584115D01*
X124967076Y-98527120D01*
X125166654Y-98434056D01*
X125347038Y-98307749D01*
X125502749Y-98152038D01*
X125514878Y-98134717D01*
X125625899Y-97976162D01*
X125625900Y-97976160D01*
X125629056Y-97971653D01*
X125631379Y-97966671D01*
X125631382Y-97966666D01*
X125690805Y-97839231D01*
X125737722Y-97785946D01*
X125805999Y-97766485D01*
X125873959Y-97787027D01*
X125919195Y-97839231D01*
X125978618Y-97966666D01*
X125978621Y-97966671D01*
X125980944Y-97971653D01*
X125984100Y-97976160D01*
X125984101Y-97976162D01*
X126095123Y-98134717D01*
X126107251Y-98152038D01*
X126262962Y-98307749D01*
X126443346Y-98434056D01*
X126642924Y-98527120D01*
X126855629Y-98584115D01*
X127075000Y-98603307D01*
X127294371Y-98584115D01*
X127507076Y-98527120D01*
X127706654Y-98434056D01*
X127887038Y-98307749D01*
X128042749Y-98152038D01*
X128054878Y-98134717D01*
X128165899Y-97976162D01*
X128165900Y-97976160D01*
X128169056Y-97971653D01*
X128171379Y-97966671D01*
X128171382Y-97966666D01*
X128230805Y-97839231D01*
X128277722Y-97785946D01*
X128345999Y-97766485D01*
X128413959Y-97787027D01*
X128459195Y-97839231D01*
X128518618Y-97966666D01*
X128518621Y-97966671D01*
X128520944Y-97971653D01*
X128524100Y-97976160D01*
X128524101Y-97976162D01*
X128635123Y-98134717D01*
X128647251Y-98152038D01*
X128802962Y-98307749D01*
X128983346Y-98434056D01*
X129182924Y-98527120D01*
X129395629Y-98584115D01*
X129615000Y-98603307D01*
X129834371Y-98584115D01*
X130047076Y-98527120D01*
X130246654Y-98434056D01*
X130427038Y-98307749D01*
X130582749Y-98152038D01*
X130594878Y-98134717D01*
X130667287Y-98031305D01*
X130722744Y-97986977D01*
X130793363Y-97979668D01*
X130856724Y-98011699D01*
X130892709Y-98072900D01*
X130896500Y-98103576D01*
X130896500Y-98138134D01*
X130903255Y-98200316D01*
X130954385Y-98336705D01*
X130959770Y-98343890D01*
X130959771Y-98343892D01*
X131015094Y-98417709D01*
X131039942Y-98484216D01*
X131024889Y-98553598D01*
X130974715Y-98603828D01*
X130903285Y-98618794D01*
X130890485Y-98617674D01*
X130879525Y-98617674D01*
X130671196Y-98635901D01*
X130660401Y-98637804D01*
X130458405Y-98691928D01*
X130448113Y-98695674D01*
X130258583Y-98784054D01*
X130249093Y-98789534D01*
X130207851Y-98818411D01*
X130199477Y-98828887D01*
X130206545Y-98842334D01*
X130872189Y-99507979D01*
X130886132Y-99515592D01*
X130887966Y-99515461D01*
X130894580Y-99511210D01*
X131564180Y-98841609D01*
X131570607Y-98829839D01*
X131549602Y-98802688D01*
X131553204Y-98799902D01*
X131531108Y-98772262D01*
X131523795Y-98701643D01*
X131555823Y-98638281D01*
X131617022Y-98602293D01*
X131647705Y-98598500D01*
X132953134Y-98598500D01*
X133015316Y-98591745D01*
X133151705Y-98540615D01*
X133268261Y-98453261D01*
X133355615Y-98336705D01*
X133406745Y-98200316D01*
X133413500Y-98138134D01*
X133413500Y-96541866D01*
X133406745Y-96479684D01*
X133355615Y-96343295D01*
X133268261Y-96226739D01*
X133151705Y-96139385D01*
X133015316Y-96088255D01*
X132953134Y-96081500D01*
X131356866Y-96081500D01*
X131294684Y-96088255D01*
X131158295Y-96139385D01*
X131041739Y-96226739D01*
X130954385Y-96343295D01*
X130903255Y-96479684D01*
X130896500Y-96541866D01*
X130896500Y-96576424D01*
X130876498Y-96644545D01*
X130822842Y-96691038D01*
X130752568Y-96701142D01*
X130687988Y-96671648D01*
X130667287Y-96648695D01*
X130585908Y-96532473D01*
X130585906Y-96532470D01*
X130582749Y-96527962D01*
X130427038Y-96372251D01*
X130246654Y-96245944D01*
X130047076Y-96152880D01*
X129834371Y-96095885D01*
X129615000Y-96076693D01*
X129395629Y-96095885D01*
X129182924Y-96152880D01*
X129117549Y-96183365D01*
X128988334Y-96243618D01*
X128988329Y-96243621D01*
X128983347Y-96245944D01*
X128978840Y-96249100D01*
X128978838Y-96249101D01*
X128807473Y-96369092D01*
X128807470Y-96369094D01*
X128802962Y-96372251D01*
X128647251Y-96527962D01*
X128644094Y-96532470D01*
X128644092Y-96532473D01*
X128557820Y-96655682D01*
X128520944Y-96708347D01*
X128518621Y-96713329D01*
X128518618Y-96713334D01*
X128459195Y-96840769D01*
X128412278Y-96894054D01*
X128344001Y-96913515D01*
X128276041Y-96892973D01*
X128230805Y-96840769D01*
X128171382Y-96713334D01*
X128171379Y-96713329D01*
X128169056Y-96708347D01*
X128132180Y-96655682D01*
X128045908Y-96532473D01*
X128045906Y-96532470D01*
X128042749Y-96527962D01*
X127887038Y-96372251D01*
X127706654Y-96245944D01*
X127507076Y-96152880D01*
X127294371Y-96095885D01*
X127075000Y-96076693D01*
X126855629Y-96095885D01*
X126642924Y-96152880D01*
X126577549Y-96183365D01*
X126448334Y-96243618D01*
X126448329Y-96243621D01*
X126443347Y-96245944D01*
X126438840Y-96249100D01*
X126438838Y-96249101D01*
X126267473Y-96369092D01*
X126267470Y-96369094D01*
X126262962Y-96372251D01*
X126107251Y-96527962D01*
X126104094Y-96532470D01*
X126104092Y-96532473D01*
X126017820Y-96655682D01*
X125980944Y-96708347D01*
X125978621Y-96713329D01*
X125978618Y-96713334D01*
X125919195Y-96840769D01*
X125872278Y-96894054D01*
X125804001Y-96913515D01*
X125736041Y-96892973D01*
X125690805Y-96840769D01*
X125631382Y-96713334D01*
X125631379Y-96713329D01*
X125629056Y-96708347D01*
X125592180Y-96655682D01*
X125505908Y-96532473D01*
X125505906Y-96532470D01*
X125502749Y-96527962D01*
X125347038Y-96372251D01*
X125166654Y-96245944D01*
X124967076Y-96152880D01*
X124754371Y-96095885D01*
X124535000Y-96076693D01*
X124315629Y-96095885D01*
X124102924Y-96152880D01*
X124037549Y-96183365D01*
X123908334Y-96243618D01*
X123908329Y-96243621D01*
X123903347Y-96245944D01*
X123898840Y-96249100D01*
X123898838Y-96249101D01*
X123727473Y-96369092D01*
X123727470Y-96369094D01*
X123722962Y-96372251D01*
X123567251Y-96527962D01*
X123564094Y-96532470D01*
X123564092Y-96532473D01*
X123477820Y-96655682D01*
X123440944Y-96708347D01*
X123438621Y-96713329D01*
X123438618Y-96713334D01*
X123391415Y-96814562D01*
X123347880Y-96907924D01*
X123290885Y-97120629D01*
X123271693Y-97340000D01*
X120208000Y-97340000D01*
X120208000Y-92668596D01*
X120228002Y-92600475D01*
X120281658Y-92553982D01*
X120351932Y-92543878D01*
X120416512Y-92573372D01*
X120426151Y-92582664D01*
X120462642Y-92621796D01*
X120691918Y-92810125D01*
X120944088Y-92966477D01*
X121214722Y-93088105D01*
X121387390Y-93139580D01*
X121495065Y-93171679D01*
X121495067Y-93171679D01*
X121499064Y-93172871D01*
X121503184Y-93173524D01*
X121503186Y-93173524D01*
X121622106Y-93192359D01*
X121792119Y-93219286D01*
X121837146Y-93221331D01*
X121883497Y-93223436D01*
X121883516Y-93223436D01*
X121884916Y-93223500D01*
X122070264Y-93223500D01*
X122291056Y-93208835D01*
X122581910Y-93150188D01*
X122862453Y-93053590D01*
X122866196Y-93051716D01*
X122866200Y-93051714D01*
X123124012Y-92922611D01*
X123124014Y-92922610D01*
X123127756Y-92920736D01*
X123373158Y-92753961D01*
X123594346Y-92556196D01*
X123622013Y-92523917D01*
X123721491Y-92407853D01*
X123787436Y-92330914D01*
X123816235Y-92286568D01*
X123946763Y-92085572D01*
X123946765Y-92085569D01*
X123949035Y-92082073D01*
X123990805Y-91994107D01*
X123997629Y-91979734D01*
X124076304Y-91814046D01*
X124077584Y-91810060D01*
X124165726Y-91535530D01*
X124165727Y-91535524D01*
X124167006Y-91531542D01*
X124202091Y-91336548D01*
X124218809Y-91243632D01*
X124218810Y-91243627D01*
X124219548Y-91239523D01*
X124220166Y-91225929D01*
X124228751Y-91036880D01*
X131186992Y-91036880D01*
X131187355Y-91041028D01*
X131187355Y-91041032D01*
X131212487Y-91328293D01*
X131212488Y-91328301D01*
X131212852Y-91332459D01*
X131277577Y-91622021D01*
X131279019Y-91625941D01*
X131279021Y-91625947D01*
X131349619Y-91817827D01*
X131380029Y-91900480D01*
X131381980Y-91904180D01*
X131381982Y-91904185D01*
X131459338Y-92050902D01*
X131518410Y-92162942D01*
X131690288Y-92404797D01*
X131892642Y-92621796D01*
X132121918Y-92810125D01*
X132374088Y-92966477D01*
X132644722Y-93088105D01*
X132817390Y-93139580D01*
X132925065Y-93171679D01*
X132925067Y-93171679D01*
X132929064Y-93172871D01*
X132933184Y-93173524D01*
X132933186Y-93173524D01*
X133052106Y-93192359D01*
X133222119Y-93219286D01*
X133267146Y-93221331D01*
X133313497Y-93223436D01*
X133313516Y-93223436D01*
X133314916Y-93223500D01*
X133500264Y-93223500D01*
X133721056Y-93208835D01*
X134011910Y-93150188D01*
X134292453Y-93053590D01*
X134296196Y-93051716D01*
X134296200Y-93051714D01*
X134554012Y-92922611D01*
X134554014Y-92922610D01*
X134557756Y-92920736D01*
X134803158Y-92753961D01*
X135024346Y-92556196D01*
X135052013Y-92523917D01*
X135151491Y-92407853D01*
X135217436Y-92330914D01*
X135246235Y-92286568D01*
X135251973Y-92277733D01*
X138703822Y-92277733D01*
X138703975Y-92282121D01*
X138703975Y-92282127D01*
X138713469Y-92553982D01*
X138713625Y-92558458D01*
X138714387Y-92562781D01*
X138714388Y-92562788D01*
X138738164Y-92697624D01*
X138762402Y-92835087D01*
X138849203Y-93102235D01*
X138851131Y-93106188D01*
X138851133Y-93106193D01*
X138883973Y-93173524D01*
X138972340Y-93354702D01*
X138974795Y-93358341D01*
X138974798Y-93358347D01*
X139028880Y-93438526D01*
X139129415Y-93587576D01*
X139132360Y-93590847D01*
X139132361Y-93590848D01*
X139172708Y-93635658D01*
X139317371Y-93796322D01*
X139532550Y-93976879D01*
X139770764Y-94125731D01*
X140027375Y-94239982D01*
X140297390Y-94317407D01*
X140301740Y-94318018D01*
X140301743Y-94318019D01*
X140404690Y-94332487D01*
X140575552Y-94356500D01*
X140786146Y-94356500D01*
X140788332Y-94356347D01*
X140788336Y-94356347D01*
X140991827Y-94342118D01*
X140991832Y-94342117D01*
X140996212Y-94341811D01*
X141270970Y-94283409D01*
X141275099Y-94281906D01*
X141275103Y-94281905D01*
X141530781Y-94188846D01*
X141530785Y-94188844D01*
X141534926Y-94187337D01*
X141782942Y-94055464D01*
X141786503Y-94052877D01*
X142006629Y-93892947D01*
X142006632Y-93892944D01*
X142010192Y-93890358D01*
X142212252Y-93695231D01*
X142385188Y-93473882D01*
X142387384Y-93470078D01*
X142387389Y-93470071D01*
X142523435Y-93234431D01*
X142525636Y-93230619D01*
X142630862Y-92970176D01*
X142651048Y-92889214D01*
X142697753Y-92701893D01*
X142697754Y-92701888D01*
X142698817Y-92697624D01*
X142702583Y-92661800D01*
X142727719Y-92422636D01*
X142727719Y-92422633D01*
X142728178Y-92418267D01*
X142727944Y-92411557D01*
X142718529Y-92141939D01*
X142718528Y-92141933D01*
X142718375Y-92137542D01*
X142709212Y-92085572D01*
X142670360Y-91865236D01*
X142669598Y-91860913D01*
X142582797Y-91593765D01*
X142580675Y-91589413D01*
X142518320Y-91461569D01*
X142459660Y-91341298D01*
X142457205Y-91337659D01*
X142457202Y-91337653D01*
X142361865Y-91196311D01*
X142302585Y-91108424D01*
X142114629Y-90899678D01*
X141899450Y-90719121D01*
X141661236Y-90570269D01*
X141404625Y-90456018D01*
X141134610Y-90378593D01*
X141130260Y-90377982D01*
X141130257Y-90377981D01*
X141027310Y-90363513D01*
X140856448Y-90339500D01*
X140645854Y-90339500D01*
X140643668Y-90339653D01*
X140643664Y-90339653D01*
X140440173Y-90353882D01*
X140440168Y-90353883D01*
X140435788Y-90354189D01*
X140161030Y-90412591D01*
X140156901Y-90414094D01*
X140156897Y-90414095D01*
X139901219Y-90507154D01*
X139901215Y-90507156D01*
X139897074Y-90508663D01*
X139649058Y-90640536D01*
X139645499Y-90643122D01*
X139645497Y-90643123D01*
X139427296Y-90801655D01*
X139421808Y-90805642D01*
X139219748Y-91000769D01*
X139135639Y-91108424D01*
X139066975Y-91196311D01*
X139046812Y-91222118D01*
X139044616Y-91225922D01*
X139044611Y-91225929D01*
X138959373Y-91373567D01*
X138906364Y-91465381D01*
X138801138Y-91725824D01*
X138800073Y-91730097D01*
X138800072Y-91730099D01*
X138756668Y-91904185D01*
X138733183Y-91998376D01*
X138732724Y-92002744D01*
X138732723Y-92002749D01*
X138719011Y-92133212D01*
X138703822Y-92277733D01*
X135251973Y-92277733D01*
X135376763Y-92085572D01*
X135376765Y-92085569D01*
X135379035Y-92082073D01*
X135420805Y-91994107D01*
X135427629Y-91979734D01*
X135506304Y-91814046D01*
X135507584Y-91810060D01*
X135595726Y-91535530D01*
X135595727Y-91535524D01*
X135597006Y-91531542D01*
X135632091Y-91336548D01*
X135648809Y-91243632D01*
X135648810Y-91243627D01*
X135649548Y-91239523D01*
X135650166Y-91225929D01*
X135662819Y-90947290D01*
X135662819Y-90947285D01*
X135663008Y-90943120D01*
X135659493Y-90902940D01*
X135637513Y-90651707D01*
X135637512Y-90651699D01*
X135637148Y-90647541D01*
X135605768Y-90507154D01*
X135573336Y-90362063D01*
X135573336Y-90362061D01*
X135572423Y-90357979D01*
X135567543Y-90344714D01*
X135471418Y-90083452D01*
X135471416Y-90083448D01*
X135469971Y-90079520D01*
X135331590Y-89817058D01*
X135159712Y-89575203D01*
X134957358Y-89358204D01*
X134728082Y-89169875D01*
X134475912Y-89013523D01*
X134205278Y-88891895D01*
X134032610Y-88840420D01*
X133924935Y-88808321D01*
X133924933Y-88808321D01*
X133920936Y-88807129D01*
X133916816Y-88806476D01*
X133916814Y-88806476D01*
X133797894Y-88787641D01*
X133627881Y-88760714D01*
X133582854Y-88758669D01*
X133536503Y-88756564D01*
X133536484Y-88756564D01*
X133535084Y-88756500D01*
X133349736Y-88756500D01*
X133128944Y-88771165D01*
X132838090Y-88829812D01*
X132557547Y-88926410D01*
X132553804Y-88928284D01*
X132553800Y-88928286D01*
X132379179Y-89015730D01*
X132292244Y-89059264D01*
X132046842Y-89226039D01*
X131825654Y-89423804D01*
X131632564Y-89649086D01*
X131630290Y-89652588D01*
X131630289Y-89652589D01*
X131525698Y-89813646D01*
X131470965Y-89897927D01*
X131343696Y-90165954D01*
X131342417Y-90169937D01*
X131342416Y-90169940D01*
X131264027Y-90414095D01*
X131252994Y-90448458D01*
X131247595Y-90478463D01*
X131203786Y-90721949D01*
X131200452Y-90740477D01*
X131200263Y-90744644D01*
X131200262Y-90744651D01*
X131188474Y-91004236D01*
X131186992Y-91036880D01*
X124228751Y-91036880D01*
X124232819Y-90947290D01*
X124232819Y-90947285D01*
X124233008Y-90943120D01*
X124229493Y-90902940D01*
X124207513Y-90651707D01*
X124207512Y-90651699D01*
X124207148Y-90647541D01*
X124175768Y-90507154D01*
X124143336Y-90362063D01*
X124143336Y-90362061D01*
X124142423Y-90357979D01*
X124137543Y-90344714D01*
X124041418Y-90083452D01*
X124041416Y-90083448D01*
X124039971Y-90079520D01*
X123901590Y-89817058D01*
X123729712Y-89575203D01*
X123527358Y-89358204D01*
X123298082Y-89169875D01*
X123045912Y-89013523D01*
X122775278Y-88891895D01*
X122602610Y-88840420D01*
X122494935Y-88808321D01*
X122494933Y-88808321D01*
X122490936Y-88807129D01*
X122486816Y-88806476D01*
X122486814Y-88806476D01*
X122367894Y-88787641D01*
X122197881Y-88760714D01*
X122152854Y-88758669D01*
X122106503Y-88756564D01*
X122106484Y-88756564D01*
X122105084Y-88756500D01*
X121919736Y-88756500D01*
X121698944Y-88771165D01*
X121408090Y-88829812D01*
X121127547Y-88926410D01*
X121123804Y-88928284D01*
X121123800Y-88928286D01*
X120949179Y-89015730D01*
X120862244Y-89059264D01*
X120616842Y-89226039D01*
X120471987Y-89355555D01*
X120417983Y-89403840D01*
X120353869Y-89434334D01*
X120283446Y-89425324D01*
X120229074Y-89379671D01*
X120208000Y-89309910D01*
X120208000Y-83934000D01*
X120228002Y-83865879D01*
X120281658Y-83819386D01*
X120334000Y-83808000D01*
X156384718Y-83808000D01*
X156452839Y-83828002D01*
G37*
G04 #@! TD.AperFunction*
G04 #@! TA.AperFunction,Conductor*
G36*
X156302699Y-94855502D02*
G01*
X156323673Y-94872405D01*
X161727595Y-100276327D01*
X161761621Y-100338639D01*
X161764500Y-100365422D01*
X161764500Y-116246602D01*
X161744498Y-116314723D01*
X161721577Y-116341334D01*
X161699688Y-116360530D01*
X161699684Y-116360534D01*
X161695342Y-116364342D01*
X161691767Y-116368877D01*
X161691766Y-116368878D01*
X161612473Y-116469461D01*
X161560681Y-116535158D01*
X161459405Y-116727654D01*
X161457692Y-116733171D01*
X161409319Y-116888957D01*
X161394903Y-116935382D01*
X161394224Y-116941119D01*
X161381932Y-117044977D01*
X161374000Y-117111990D01*
X161374000Y-117381736D01*
X161353998Y-117449857D01*
X161300342Y-117496350D01*
X161230068Y-117506454D01*
X161165488Y-117476960D01*
X161144787Y-117454007D01*
X161132431Y-117436360D01*
X161075086Y-117354463D01*
X161066857Y-117342711D01*
X161066855Y-117342708D01*
X161063698Y-117338200D01*
X160901800Y-117176302D01*
X160897292Y-117173145D01*
X160897289Y-117173143D01*
X160804688Y-117108303D01*
X160714249Y-117044977D01*
X160709267Y-117042654D01*
X160709262Y-117042651D01*
X160511725Y-116950539D01*
X160511724Y-116950539D01*
X160506743Y-116948216D01*
X160501435Y-116946794D01*
X160501433Y-116946793D01*
X160290902Y-116890381D01*
X160290900Y-116890381D01*
X160285587Y-116888957D01*
X160186020Y-116880246D01*
X160117351Y-116874238D01*
X160117344Y-116874238D01*
X160114627Y-116874000D01*
X160000373Y-116874000D01*
X159997656Y-116874238D01*
X159997649Y-116874238D01*
X159928980Y-116880246D01*
X159829413Y-116888957D01*
X159824100Y-116890381D01*
X159824098Y-116890381D01*
X159613567Y-116946793D01*
X159613565Y-116946794D01*
X159608257Y-116948216D01*
X159603276Y-116950539D01*
X159603275Y-116950539D01*
X159405738Y-117042651D01*
X159405733Y-117042654D01*
X159400751Y-117044977D01*
X159310312Y-117108303D01*
X159217711Y-117173143D01*
X159217708Y-117173145D01*
X159213200Y-117176302D01*
X159051302Y-117338200D01*
X159048145Y-117342708D01*
X159048143Y-117342711D01*
X159001323Y-117409577D01*
X158919977Y-117525751D01*
X158917654Y-117530733D01*
X158917651Y-117530738D01*
X158831064Y-117716427D01*
X158823216Y-117733257D01*
X158821794Y-117738565D01*
X158821793Y-117738567D01*
X158771689Y-117925556D01*
X158763957Y-117954413D01*
X158744002Y-118182500D01*
X158763957Y-118410587D01*
X158823216Y-118631743D01*
X158825539Y-118636724D01*
X158825539Y-118636725D01*
X158917651Y-118834262D01*
X158917654Y-118834267D01*
X158919977Y-118839249D01*
X158953623Y-118887300D01*
X159038450Y-119008445D01*
X159051302Y-119026800D01*
X159213200Y-119188698D01*
X159217708Y-119191855D01*
X159217711Y-119191857D01*
X159283889Y-119238195D01*
X159400751Y-119320023D01*
X159405733Y-119322346D01*
X159405738Y-119322349D01*
X159524674Y-119377809D01*
X159608257Y-119416784D01*
X159613565Y-119418206D01*
X159613567Y-119418207D01*
X159824098Y-119474619D01*
X159824100Y-119474619D01*
X159829413Y-119476043D01*
X159928980Y-119484754D01*
X159997649Y-119490762D01*
X159997656Y-119490762D01*
X160000373Y-119491000D01*
X160114627Y-119491000D01*
X160117344Y-119490762D01*
X160117351Y-119490762D01*
X160186020Y-119484754D01*
X160285587Y-119476043D01*
X160290900Y-119474619D01*
X160290902Y-119474619D01*
X160501433Y-119418207D01*
X160501435Y-119418206D01*
X160506743Y-119416784D01*
X160590326Y-119377809D01*
X160709262Y-119322349D01*
X160709267Y-119322346D01*
X160714249Y-119320023D01*
X160831111Y-119238195D01*
X160897289Y-119191857D01*
X160897292Y-119191855D01*
X160901800Y-119188698D01*
X161063698Y-119026800D01*
X161066857Y-119022289D01*
X161188884Y-118848017D01*
X161244341Y-118803689D01*
X161314961Y-118796380D01*
X161378321Y-118828411D01*
X161413365Y-118886086D01*
X161447874Y-119008445D01*
X161450430Y-119013628D01*
X161538323Y-119191857D01*
X161544077Y-119203526D01*
X161547531Y-119208152D01*
X161547532Y-119208153D01*
X161658308Y-119356500D01*
X161674220Y-119377809D01*
X161678454Y-119381723D01*
X161678456Y-119381725D01*
X161796670Y-119491000D01*
X161833944Y-119525456D01*
X162017901Y-119641524D01*
X162219928Y-119722124D01*
X162433261Y-119764559D01*
X162439036Y-119764635D01*
X162439040Y-119764635D01*
X162548081Y-119766062D01*
X162650754Y-119767406D01*
X162656451Y-119766427D01*
X162656452Y-119766427D01*
X162859435Y-119731548D01*
X162859438Y-119731547D01*
X162865125Y-119730570D01*
X163069193Y-119655286D01*
X163074155Y-119652334D01*
X163074159Y-119652332D01*
X163101576Y-119636020D01*
X163170346Y-119618379D01*
X163237736Y-119640719D01*
X163282351Y-119695946D01*
X163292000Y-119744304D01*
X163292000Y-122917965D01*
X163271998Y-122986086D01*
X163218342Y-123032579D01*
X163148068Y-123042683D01*
X163107806Y-123027858D01*
X163107132Y-123029181D01*
X163101983Y-123026557D01*
X163097099Y-123023476D01*
X162895072Y-122942876D01*
X162681739Y-122900441D01*
X162675964Y-122900365D01*
X162675960Y-122900365D01*
X162566919Y-122898938D01*
X162464246Y-122897594D01*
X162458549Y-122898573D01*
X162458548Y-122898573D01*
X162255565Y-122933452D01*
X162255562Y-122933453D01*
X162249875Y-122934430D01*
X162045807Y-123009714D01*
X161935090Y-123075584D01*
X161902835Y-123094774D01*
X161834065Y-123112414D01*
X161766675Y-123090074D01*
X161749317Y-123075584D01*
X156172405Y-117498672D01*
X156138379Y-117436360D01*
X156135500Y-117409577D01*
X156135500Y-116587676D01*
X156674000Y-116587676D01*
X156688833Y-116749100D01*
X156747874Y-116958445D01*
X156844077Y-117153526D01*
X156847531Y-117158152D01*
X156847532Y-117158153D01*
X156940108Y-117282127D01*
X156974220Y-117327809D01*
X156978454Y-117331723D01*
X156978456Y-117331725D01*
X157110741Y-117454007D01*
X157133944Y-117475456D01*
X157317901Y-117591524D01*
X157519928Y-117672124D01*
X157733261Y-117714559D01*
X157739036Y-117714635D01*
X157739040Y-117714635D01*
X157848081Y-117716062D01*
X157950754Y-117717406D01*
X157956451Y-117716427D01*
X157956452Y-117716427D01*
X158159435Y-117681548D01*
X158159438Y-117681547D01*
X158165125Y-117680570D01*
X158369193Y-117605286D01*
X158556124Y-117494073D01*
X158719658Y-117350658D01*
X158854319Y-117179842D01*
X158857844Y-117173143D01*
X158952907Y-116992455D01*
X158955595Y-116987346D01*
X158986295Y-116888478D01*
X159018383Y-116785139D01*
X159018384Y-116785136D01*
X159020097Y-116779618D01*
X159041000Y-116603010D01*
X159041000Y-115577324D01*
X159026167Y-115415900D01*
X159015646Y-115378593D01*
X158968695Y-115212119D01*
X158967126Y-115206555D01*
X158870923Y-115011474D01*
X158740780Y-114837191D01*
X158581056Y-114689544D01*
X158397099Y-114573476D01*
X158195072Y-114492876D01*
X157981739Y-114450441D01*
X157975964Y-114450365D01*
X157975960Y-114450365D01*
X157866919Y-114448938D01*
X157764246Y-114447594D01*
X157758549Y-114448573D01*
X157758548Y-114448573D01*
X157555565Y-114483452D01*
X157555562Y-114483453D01*
X157549875Y-114484430D01*
X157345807Y-114559714D01*
X157158876Y-114670927D01*
X156995342Y-114814342D01*
X156860681Y-114985158D01*
X156759405Y-115177654D01*
X156757692Y-115183171D01*
X156696635Y-115379805D01*
X156694903Y-115385382D01*
X156694224Y-115391119D01*
X156680067Y-115510733D01*
X156674000Y-115561990D01*
X156674000Y-116587676D01*
X156135500Y-116587676D01*
X156135500Y-100179032D01*
X156136030Y-100167793D01*
X156137709Y-100160281D01*
X156136727Y-100129020D01*
X156135562Y-100091970D01*
X156135500Y-100088012D01*
X156135500Y-100060017D01*
X156134992Y-100055994D01*
X156134059Y-100044152D01*
X156133992Y-100042002D01*
X156132665Y-99999795D01*
X156126987Y-99980251D01*
X156122977Y-99960888D01*
X156121420Y-99948560D01*
X156121420Y-99948558D01*
X156120427Y-99940701D01*
X156117511Y-99933337D01*
X156117510Y-99933332D01*
X156104093Y-99899444D01*
X156100248Y-99888215D01*
X156094139Y-99867189D01*
X156087869Y-99845607D01*
X156083830Y-99838777D01*
X156077512Y-99828094D01*
X156068812Y-99810336D01*
X156064239Y-99798785D01*
X156064235Y-99798779D01*
X156061319Y-99791412D01*
X156035234Y-99755509D01*
X156028719Y-99745590D01*
X156010174Y-99714232D01*
X156010171Y-99714228D01*
X156006134Y-99707402D01*
X155991750Y-99693018D01*
X155978909Y-99677984D01*
X155971602Y-99667927D01*
X155966942Y-99661513D01*
X155932750Y-99633227D01*
X155923969Y-99625237D01*
X155372404Y-99073671D01*
X155338379Y-99011359D01*
X155335500Y-98984576D01*
X155335500Y-96700303D01*
X155355502Y-96632182D01*
X155367864Y-96615993D01*
X155434621Y-96541852D01*
X155434622Y-96541851D01*
X155439040Y-96536944D01*
X155534527Y-96371556D01*
X155593542Y-96189928D01*
X155597192Y-96155205D01*
X155612814Y-96006565D01*
X155613504Y-96000000D01*
X155593542Y-95810072D01*
X155534527Y-95628444D01*
X155439040Y-95463056D01*
X155406147Y-95426524D01*
X155367864Y-95384007D01*
X155337146Y-95320000D01*
X155335500Y-95299697D01*
X155335500Y-95234500D01*
X155355502Y-95166379D01*
X155409158Y-95119886D01*
X155461500Y-95108500D01*
X155595487Y-95108500D01*
X155601939Y-95107128D01*
X155601944Y-95107128D01*
X155688887Y-95088647D01*
X155782288Y-95068794D01*
X155903467Y-95014842D01*
X155950722Y-94993803D01*
X155950724Y-94993802D01*
X155956752Y-94991118D01*
X156111253Y-94878866D01*
X156115668Y-94873963D01*
X156120580Y-94869540D01*
X156122221Y-94871362D01*
X156173210Y-94839950D01*
X156206399Y-94835500D01*
X156234578Y-94835500D01*
X156302699Y-94855502D01*
G37*
G04 #@! TD.AperFunction*
M02*
