M48
; DRILL file {KiCad (5.99.0-11678-ga208dac8d8)} date Wednesday, September 01, 2021 at 07:56:03 PM
; FORMAT={-:-/ absolute / inch / decimal}
; #@! TF.CreationDate,2021-09-01T19:56:03-04:00
; #@! TF.GenerationSoftware,Kicad,Pcbnew,(5.99.0-11678-ga208dac8d8)
; #@! TF.FileFunction,MixedPlating,1,2
FMAT,2
INCH
; #@! TA.AperFunction,Plated,PTH,ViaDrill
T1C0.0157
; #@! TA.AperFunction,Plated,PTH,ComponentDrill
T2C0.0236
; #@! TA.AperFunction,Plated,PTH,ComponentDrill
T3C0.0354
; #@! TA.AperFunction,NonPlated,NPTH,ComponentDrill
T4C0.0630
; #@! TA.AperFunction,NonPlated,NPTH,ComponentDrill
T5C0.1181
; #@! TA.AperFunction,NonPlated,NPTH,ComponentDrill
T6C0.1358
%
G90
G05
T1
X5.4134Y-3.9882
X5.4858Y-4.0168
X5.5709Y-4.1024
X5.622Y-4.2283
X5.6535Y-3.9882
X5.752Y-4.2953
X5.753Y-3.8642
X5.7992Y-3.7805
X5.8268Y-4.126
X5.8327Y-3.5945
X5.8346Y-3.8937
X5.9882Y-4.0118
X6.0276Y-4.4567
X6.0906Y-3.7874
X6.2283Y-4.252
T3
X4.853Y-3.9323
X4.903Y-3.8323
X4.953Y-3.9323
X5.003Y-3.8323
X5.053Y-3.9323
X5.103Y-3.8323
X5.153Y-3.9323
X5.203Y-3.8323
T4
X6.3015Y-3.3786
X6.3015Y-3.6149
X6.3015Y-4.6529
X6.3015Y-4.8891
T5
X5.54Y-3.6357
X5.54Y-4.62
T6
X4.803Y-3.5823
X5.253Y-3.5823
T2
G00X6.2031Y-3.3826
M15
G01X6.2031Y-3.3275
M16
G05
G00X6.2031Y-3.6542
M15
G01X6.2031Y-3.5991
M16
G05
G00X6.2149Y-4.5879
M15
G01X6.2149Y-4.5525
M16
G05
G00X6.3881Y-3.6798
M15
G01X6.3881Y-3.7153
M16
G05
G00X6.3999Y-4.6135
M15
G01X6.3999Y-4.6686
M16
G05
G00X6.3999Y-4.8851
M15
G01X6.3999Y-4.9403
M16
G05
T0
M30
