G04 #@! TF.GenerationSoftware,KiCad,Pcbnew,(5.99.0-11678-ga208dac8d8)*
G04 #@! TF.CreationDate,2021-09-01T19:56:06-04:00*
G04 #@! TF.ProjectId,Audio_teensy,41756469-6f5f-4746-9565-6e73792e6b69,1.1*
G04 #@! TF.SameCoordinates,Original*
G04 #@! TF.FileFunction,Legend,Top*
G04 #@! TF.FilePolarity,Positive*
%FSLAX46Y46*%
G04 Gerber Fmt 4.6, Leading zero omitted, Abs format (unit mm)*
G04 Created by KiCad (PCBNEW (5.99.0-11678-ga208dac8d8)) date 2021-09-01 19:56:06*
%MOMM*%
%LPD*%
G01*
G04 APERTURE LIST*
%ADD10C,0.177800*%
%ADD11C,0.150000*%
%ADD12C,0.120000*%
G04 APERTURE END LIST*
D10*
X136821428Y-83971071D02*
X137678571Y-83971071D01*
X137250000Y-85471071D02*
X137250000Y-83971071D01*
X138750000Y-85399642D02*
X138607142Y-85471071D01*
X138321428Y-85471071D01*
X138178571Y-85399642D01*
X138107142Y-85256785D01*
X138107142Y-84685357D01*
X138178571Y-84542500D01*
X138321428Y-84471071D01*
X138607142Y-84471071D01*
X138750000Y-84542500D01*
X138821428Y-84685357D01*
X138821428Y-84828214D01*
X138107142Y-84971071D01*
X140035714Y-85399642D02*
X139892857Y-85471071D01*
X139607142Y-85471071D01*
X139464285Y-85399642D01*
X139392857Y-85256785D01*
X139392857Y-84685357D01*
X139464285Y-84542500D01*
X139607142Y-84471071D01*
X139892857Y-84471071D01*
X140035714Y-84542500D01*
X140107142Y-84685357D01*
X140107142Y-84828214D01*
X139392857Y-84971071D01*
X140750000Y-84471071D02*
X140750000Y-85471071D01*
X140750000Y-84613928D02*
X140821428Y-84542500D01*
X140964285Y-84471071D01*
X141178571Y-84471071D01*
X141321428Y-84542500D01*
X141392857Y-84685357D01*
X141392857Y-85471071D01*
X142035714Y-85399642D02*
X142178571Y-85471071D01*
X142464285Y-85471071D01*
X142607142Y-85399642D01*
X142678571Y-85256785D01*
X142678571Y-85185357D01*
X142607142Y-85042500D01*
X142464285Y-84971071D01*
X142250000Y-84971071D01*
X142107142Y-84899642D01*
X142035714Y-84756785D01*
X142035714Y-84685357D01*
X142107142Y-84542500D01*
X142250000Y-84471071D01*
X142464285Y-84471071D01*
X142607142Y-84542500D01*
X143178571Y-84471071D02*
X143535714Y-85471071D01*
X143892857Y-84471071D02*
X143535714Y-85471071D01*
X143392857Y-85828214D01*
X143321428Y-85899642D01*
X143178571Y-85971071D01*
X145535714Y-85042500D02*
X146250000Y-85042500D01*
X145392857Y-85471071D02*
X145892857Y-83971071D01*
X146392857Y-85471071D01*
X147535714Y-84471071D02*
X147535714Y-85471071D01*
X146892857Y-84471071D02*
X146892857Y-85256785D01*
X146964285Y-85399642D01*
X147107142Y-85471071D01*
X147321428Y-85471071D01*
X147464285Y-85399642D01*
X147535714Y-85328214D01*
X148892857Y-85471071D02*
X148892857Y-83971071D01*
X148892857Y-85399642D02*
X148750000Y-85471071D01*
X148464285Y-85471071D01*
X148321428Y-85399642D01*
X148250000Y-85328214D01*
X148178571Y-85185357D01*
X148178571Y-84756785D01*
X148250000Y-84613928D01*
X148321428Y-84542500D01*
X148464285Y-84471071D01*
X148750000Y-84471071D01*
X148892857Y-84542500D01*
X149607142Y-85471071D02*
X149607142Y-84471071D01*
X149607142Y-83971071D02*
X149535714Y-84042500D01*
X149607142Y-84113928D01*
X149678571Y-84042500D01*
X149607142Y-83971071D01*
X149607142Y-84113928D01*
X150535714Y-85471071D02*
X150392857Y-85399642D01*
X150321428Y-85328214D01*
X150250000Y-85185357D01*
X150250000Y-84756785D01*
X150321428Y-84613928D01*
X150392857Y-84542500D01*
X150535714Y-84471071D01*
X150750000Y-84471071D01*
X150892857Y-84542500D01*
X150964285Y-84613928D01*
X151035714Y-84756785D01*
X151035714Y-85185357D01*
X150964285Y-85328214D01*
X150892857Y-85399642D01*
X150750000Y-85471071D01*
X150535714Y-85471071D01*
X138678571Y-87100357D02*
X138892857Y-87171785D01*
X138964285Y-87243214D01*
X139035714Y-87386071D01*
X139035714Y-87600357D01*
X138964285Y-87743214D01*
X138892857Y-87814642D01*
X138750000Y-87886071D01*
X138178571Y-87886071D01*
X138178571Y-86386071D01*
X138678571Y-86386071D01*
X138821428Y-86457500D01*
X138892857Y-86528928D01*
X138964285Y-86671785D01*
X138964285Y-86814642D01*
X138892857Y-86957500D01*
X138821428Y-87028928D01*
X138678571Y-87100357D01*
X138178571Y-87100357D01*
X139892857Y-87886071D02*
X139750000Y-87814642D01*
X139678571Y-87743214D01*
X139607142Y-87600357D01*
X139607142Y-87171785D01*
X139678571Y-87028928D01*
X139750000Y-86957500D01*
X139892857Y-86886071D01*
X140107142Y-86886071D01*
X140250000Y-86957500D01*
X140321428Y-87028928D01*
X140392857Y-87171785D01*
X140392857Y-87600357D01*
X140321428Y-87743214D01*
X140250000Y-87814642D01*
X140107142Y-87886071D01*
X139892857Y-87886071D01*
X141678571Y-87886071D02*
X141678571Y-87100357D01*
X141607142Y-86957500D01*
X141464285Y-86886071D01*
X141178571Y-86886071D01*
X141035714Y-86957500D01*
X141678571Y-87814642D02*
X141535714Y-87886071D01*
X141178571Y-87886071D01*
X141035714Y-87814642D01*
X140964285Y-87671785D01*
X140964285Y-87528928D01*
X141035714Y-87386071D01*
X141178571Y-87314642D01*
X141535714Y-87314642D01*
X141678571Y-87243214D01*
X142392857Y-87886071D02*
X142392857Y-86886071D01*
X142392857Y-87171785D02*
X142464285Y-87028928D01*
X142535714Y-86957500D01*
X142678571Y-86886071D01*
X142821428Y-86886071D01*
X143964285Y-87886071D02*
X143964285Y-86386071D01*
X143964285Y-87814642D02*
X143821428Y-87886071D01*
X143535714Y-87886071D01*
X143392857Y-87814642D01*
X143321428Y-87743214D01*
X143250000Y-87600357D01*
X143250000Y-87171785D01*
X143321428Y-87028928D01*
X143392857Y-86957500D01*
X143535714Y-86886071D01*
X143821428Y-86886071D01*
X143964285Y-86957500D01*
X145678571Y-86886071D02*
X146035714Y-87886071D01*
X146392857Y-86886071D01*
X147750000Y-87886071D02*
X146892857Y-87886071D01*
X147321428Y-87886071D02*
X147321428Y-86386071D01*
X147178571Y-86600357D01*
X147035714Y-86743214D01*
X146892857Y-86814642D01*
X148392857Y-87743214D02*
X148464285Y-87814642D01*
X148392857Y-87886071D01*
X148321428Y-87814642D01*
X148392857Y-87743214D01*
X148392857Y-87886071D01*
X149035714Y-86528928D02*
X149107142Y-86457500D01*
X149250000Y-86386071D01*
X149607142Y-86386071D01*
X149750000Y-86457500D01*
X149821428Y-86528928D01*
X149892857Y-86671785D01*
X149892857Y-86814642D01*
X149821428Y-87028928D01*
X148964285Y-87886071D01*
X149892857Y-87886071D01*
D11*
X126868666Y-85362380D02*
X126868666Y-86076666D01*
X126821047Y-86219523D01*
X126725809Y-86314761D01*
X126582952Y-86362380D01*
X126487714Y-86362380D01*
X127868666Y-86362380D02*
X127297238Y-86362380D01*
X127582952Y-86362380D02*
X127582952Y-85362380D01*
X127487714Y-85505238D01*
X127392476Y-85600476D01*
X127297238Y-85648095D01*
X154766666Y-84552380D02*
X154766666Y-85266666D01*
X154719047Y-85409523D01*
X154623809Y-85504761D01*
X154480952Y-85552380D01*
X154385714Y-85552380D01*
X155671428Y-84885714D02*
X155671428Y-85552380D01*
X155433333Y-84504761D02*
X155195238Y-85219047D01*
X155814285Y-85219047D01*
X157466666Y-113352380D02*
X157466666Y-114066666D01*
X157419047Y-114209523D01*
X157323809Y-114304761D01*
X157180952Y-114352380D01*
X157085714Y-114352380D01*
X158419047Y-113352380D02*
X157942857Y-113352380D01*
X157895238Y-113828571D01*
X157942857Y-113780952D01*
X158038095Y-113733333D01*
X158276190Y-113733333D01*
X158371428Y-113780952D01*
X158419047Y-113828571D01*
X158466666Y-113923809D01*
X158466666Y-114161904D01*
X158419047Y-114257142D01*
X158371428Y-114304761D01*
X158276190Y-114352380D01*
X158038095Y-114352380D01*
X157942857Y-114304761D01*
X157895238Y-114257142D01*
X146957142Y-97066666D02*
X147004761Y-97114285D01*
X147052380Y-97257142D01*
X147052380Y-97352380D01*
X147004761Y-97495238D01*
X146909523Y-97590476D01*
X146814285Y-97638095D01*
X146623809Y-97685714D01*
X146480952Y-97685714D01*
X146290476Y-97638095D01*
X146195238Y-97590476D01*
X146100000Y-97495238D01*
X146052380Y-97352380D01*
X146052380Y-97257142D01*
X146100000Y-97114285D01*
X146147619Y-97066666D01*
X146147619Y-96685714D02*
X146100000Y-96638095D01*
X146052380Y-96542857D01*
X146052380Y-96304761D01*
X146100000Y-96209523D01*
X146147619Y-96161904D01*
X146242857Y-96114285D01*
X146338095Y-96114285D01*
X146480952Y-96161904D01*
X147052380Y-96733333D01*
X147052380Y-96114285D01*
X145357142Y-97066666D02*
X145404761Y-97114285D01*
X145452380Y-97257142D01*
X145452380Y-97352380D01*
X145404761Y-97495238D01*
X145309523Y-97590476D01*
X145214285Y-97638095D01*
X145023809Y-97685714D01*
X144880952Y-97685714D01*
X144690476Y-97638095D01*
X144595238Y-97590476D01*
X144500000Y-97495238D01*
X144452380Y-97352380D01*
X144452380Y-97257142D01*
X144500000Y-97114285D01*
X144547619Y-97066666D01*
X144452380Y-96733333D02*
X144452380Y-96114285D01*
X144833333Y-96447619D01*
X144833333Y-96304761D01*
X144880952Y-96209523D01*
X144928571Y-96161904D01*
X145023809Y-96114285D01*
X145261904Y-96114285D01*
X145357142Y-96161904D01*
X145404761Y-96209523D01*
X145452380Y-96304761D01*
X145452380Y-96590476D01*
X145404761Y-96685714D01*
X145357142Y-96733333D01*
X156357142Y-99606666D02*
X156404761Y-99654285D01*
X156452380Y-99797142D01*
X156452380Y-99892380D01*
X156404761Y-100035238D01*
X156309523Y-100130476D01*
X156214285Y-100178095D01*
X156023809Y-100225714D01*
X155880952Y-100225714D01*
X155690476Y-100178095D01*
X155595238Y-100130476D01*
X155500000Y-100035238D01*
X155452380Y-99892380D01*
X155452380Y-99797142D01*
X155500000Y-99654285D01*
X155547619Y-99606666D01*
X155452380Y-98749523D02*
X155452380Y-98940000D01*
X155500000Y-99035238D01*
X155547619Y-99082857D01*
X155690476Y-99178095D01*
X155880952Y-99225714D01*
X156261904Y-99225714D01*
X156357142Y-99178095D01*
X156404761Y-99130476D01*
X156452380Y-99035238D01*
X156452380Y-98844761D01*
X156404761Y-98749523D01*
X156357142Y-98701904D01*
X156261904Y-98654285D01*
X156023809Y-98654285D01*
X155928571Y-98701904D01*
X155880952Y-98749523D01*
X155833333Y-98844761D01*
X155833333Y-99035238D01*
X155880952Y-99130476D01*
X155928571Y-99178095D01*
X156023809Y-99225714D01*
X158257142Y-99594166D02*
X158304761Y-99641785D01*
X158352380Y-99784642D01*
X158352380Y-99879880D01*
X158304761Y-100022738D01*
X158209523Y-100117976D01*
X158114285Y-100165595D01*
X157923809Y-100213214D01*
X157780952Y-100213214D01*
X157590476Y-100165595D01*
X157495238Y-100117976D01*
X157400000Y-100022738D01*
X157352380Y-99879880D01*
X157352380Y-99784642D01*
X157400000Y-99641785D01*
X157447619Y-99594166D01*
X157352380Y-99260833D02*
X157352380Y-98594166D01*
X158352380Y-99022738D01*
X142276380Y-98950666D02*
X141800190Y-99284000D01*
X142276380Y-99522095D02*
X141276380Y-99522095D01*
X141276380Y-99141142D01*
X141324000Y-99045904D01*
X141371619Y-98998285D01*
X141466857Y-98950666D01*
X141609714Y-98950666D01*
X141704952Y-98998285D01*
X141752571Y-99045904D01*
X141800190Y-99141142D01*
X141800190Y-99522095D01*
X141371619Y-98569714D02*
X141324000Y-98522095D01*
X141276380Y-98426857D01*
X141276380Y-98188761D01*
X141324000Y-98093523D01*
X141371619Y-98045904D01*
X141466857Y-97998285D01*
X141562095Y-97998285D01*
X141704952Y-98045904D01*
X142276380Y-98617333D01*
X142276380Y-97998285D01*
X137133333Y-101752380D02*
X136800000Y-101276190D01*
X136561904Y-101752380D02*
X136561904Y-100752380D01*
X136942857Y-100752380D01*
X137038095Y-100800000D01*
X137085714Y-100847619D01*
X137133333Y-100942857D01*
X137133333Y-101085714D01*
X137085714Y-101180952D01*
X137038095Y-101228571D01*
X136942857Y-101276190D01*
X136561904Y-101276190D01*
X137466666Y-100752380D02*
X138085714Y-100752380D01*
X137752380Y-101133333D01*
X137895238Y-101133333D01*
X137990476Y-101180952D01*
X138038095Y-101228571D01*
X138085714Y-101323809D01*
X138085714Y-101561904D01*
X138038095Y-101657142D01*
X137990476Y-101704761D01*
X137895238Y-101752380D01*
X137609523Y-101752380D01*
X137514285Y-101704761D01*
X137466666Y-101657142D01*
X136837142Y-114916666D02*
X136884761Y-114964285D01*
X136932380Y-115107142D01*
X136932380Y-115202380D01*
X136884761Y-115345238D01*
X136789523Y-115440476D01*
X136694285Y-115488095D01*
X136503809Y-115535714D01*
X136360952Y-115535714D01*
X136170476Y-115488095D01*
X136075238Y-115440476D01*
X135980000Y-115345238D01*
X135932380Y-115202380D01*
X135932380Y-115107142D01*
X135980000Y-114964285D01*
X136027619Y-114916666D01*
X135932380Y-114011904D02*
X135932380Y-114488095D01*
X136408571Y-114535714D01*
X136360952Y-114488095D01*
X136313333Y-114392857D01*
X136313333Y-114154761D01*
X136360952Y-114059523D01*
X136408571Y-114011904D01*
X136503809Y-113964285D01*
X136741904Y-113964285D01*
X136837142Y-114011904D01*
X136884761Y-114059523D01*
X136932380Y-114154761D01*
X136932380Y-114392857D01*
X136884761Y-114488095D01*
X136837142Y-114535714D01*
X149428380Y-114817466D02*
X148952190Y-115150800D01*
X149428380Y-115388895D02*
X148428380Y-115388895D01*
X148428380Y-115007942D01*
X148476000Y-114912704D01*
X148523619Y-114865085D01*
X148618857Y-114817466D01*
X148761714Y-114817466D01*
X148856952Y-114865085D01*
X148904571Y-114912704D01*
X148952190Y-115007942D01*
X148952190Y-115388895D01*
X149428380Y-113865085D02*
X149428380Y-114436514D01*
X149428380Y-114150800D02*
X148428380Y-114150800D01*
X148571238Y-114246038D01*
X148666476Y-114341276D01*
X148714095Y-114436514D01*
X128287333Y-115481142D02*
X128239714Y-115528761D01*
X128096857Y-115576380D01*
X128001619Y-115576380D01*
X127858761Y-115528761D01*
X127763523Y-115433523D01*
X127715904Y-115338285D01*
X127668285Y-115147809D01*
X127668285Y-115004952D01*
X127715904Y-114814476D01*
X127763523Y-114719238D01*
X127858761Y-114624000D01*
X128001619Y-114576380D01*
X128096857Y-114576380D01*
X128239714Y-114624000D01*
X128287333Y-114671619D01*
X129239714Y-115576380D02*
X128668285Y-115576380D01*
X128954000Y-115576380D02*
X128954000Y-114576380D01*
X128858761Y-114719238D01*
X128763523Y-114814476D01*
X128668285Y-114862095D01*
X119296380Y-108413333D02*
X120010666Y-108413333D01*
X120153523Y-108460952D01*
X120248761Y-108556190D01*
X120296380Y-108699047D01*
X120296380Y-108794285D01*
X119296380Y-108032380D02*
X119296380Y-107413333D01*
X119677333Y-107746666D01*
X119677333Y-107603809D01*
X119724952Y-107508571D01*
X119772571Y-107460952D01*
X119867809Y-107413333D01*
X120105904Y-107413333D01*
X120201142Y-107460952D01*
X120248761Y-107508571D01*
X120296380Y-107603809D01*
X120296380Y-107889523D01*
X120248761Y-107984761D01*
X120201142Y-108032380D01*
X131061095Y-117409880D02*
X131061095Y-118219404D01*
X131108714Y-118314642D01*
X131156333Y-118362261D01*
X131251571Y-118409880D01*
X131442047Y-118409880D01*
X131537285Y-118362261D01*
X131584904Y-118314642D01*
X131632523Y-118219404D01*
X131632523Y-117409880D01*
X132061095Y-117505119D02*
X132108714Y-117457500D01*
X132203952Y-117409880D01*
X132442047Y-117409880D01*
X132537285Y-117457500D01*
X132584904Y-117505119D01*
X132632523Y-117600357D01*
X132632523Y-117695595D01*
X132584904Y-117838452D01*
X132013476Y-118409880D01*
X132632523Y-118409880D01*
X137266666Y-94928571D02*
X136933333Y-94928571D01*
X136933333Y-95452380D02*
X136933333Y-94452380D01*
X137409523Y-94452380D01*
X138123809Y-94928571D02*
X138266666Y-94976190D01*
X138314285Y-95023809D01*
X138361904Y-95119047D01*
X138361904Y-95261904D01*
X138314285Y-95357142D01*
X138266666Y-95404761D01*
X138171428Y-95452380D01*
X137790476Y-95452380D01*
X137790476Y-94452380D01*
X138123809Y-94452380D01*
X138219047Y-94500000D01*
X138266666Y-94547619D01*
X138314285Y-94642857D01*
X138314285Y-94738095D01*
X138266666Y-94833333D01*
X138219047Y-94880952D01*
X138123809Y-94928571D01*
X137790476Y-94928571D01*
X139314285Y-95452380D02*
X138742857Y-95452380D01*
X139028571Y-95452380D02*
X139028571Y-94452380D01*
X138933333Y-94595238D01*
X138838095Y-94690476D01*
X138742857Y-94738095D01*
X151233333Y-89757142D02*
X151185714Y-89804761D01*
X151042857Y-89852380D01*
X150947619Y-89852380D01*
X150804761Y-89804761D01*
X150709523Y-89709523D01*
X150661904Y-89614285D01*
X150614285Y-89423809D01*
X150614285Y-89280952D01*
X150661904Y-89090476D01*
X150709523Y-88995238D01*
X150804761Y-88900000D01*
X150947619Y-88852380D01*
X151042857Y-88852380D01*
X151185714Y-88900000D01*
X151233333Y-88947619D01*
X152090476Y-89185714D02*
X152090476Y-89852380D01*
X151852380Y-88804761D02*
X151614285Y-89519047D01*
X152233333Y-89519047D01*
X152438095Y-98852380D02*
X152438095Y-99661904D01*
X152485714Y-99757142D01*
X152533333Y-99804761D01*
X152628571Y-99852380D01*
X152819047Y-99852380D01*
X152914285Y-99804761D01*
X152961904Y-99757142D01*
X153009523Y-99661904D01*
X153009523Y-98852380D01*
X153390476Y-98852380D02*
X154009523Y-98852380D01*
X153676190Y-99233333D01*
X153819047Y-99233333D01*
X153914285Y-99280952D01*
X153961904Y-99328571D01*
X154009523Y-99423809D01*
X154009523Y-99661904D01*
X153961904Y-99757142D01*
X153914285Y-99804761D01*
X153819047Y-99852380D01*
X153533333Y-99852380D01*
X153438095Y-99804761D01*
X153390476Y-99757142D01*
X119296380Y-123653333D02*
X120010666Y-123653333D01*
X120153523Y-123700952D01*
X120248761Y-123796190D01*
X120296380Y-123939047D01*
X120296380Y-124034285D01*
X119391619Y-123224761D02*
X119344000Y-123177142D01*
X119296380Y-123081904D01*
X119296380Y-122843809D01*
X119344000Y-122748571D01*
X119391619Y-122700952D01*
X119486857Y-122653333D01*
X119582095Y-122653333D01*
X119724952Y-122700952D01*
X120296380Y-123272380D01*
X120296380Y-122653333D01*
G36*
X162164675Y-102446564D02*
G01*
X162146376Y-102569924D01*
X162116074Y-102690897D01*
X162074060Y-102808316D01*
X162020740Y-102921053D01*
X161956626Y-103028020D01*
X161882337Y-103128188D01*
X161798587Y-103220592D01*
X161706183Y-103304342D01*
X161606015Y-103378631D01*
X161499048Y-103442745D01*
X161386312Y-103496065D01*
X161268892Y-103538078D01*
X161147920Y-103568380D01*
X161024560Y-103586679D01*
X160900000Y-103592798D01*
X160775440Y-103586679D01*
X160652080Y-103568380D01*
X160531108Y-103538078D01*
X160413688Y-103496065D01*
X160300952Y-103442745D01*
X160193985Y-103378631D01*
X160093817Y-103304342D01*
X160001413Y-103220592D01*
X159917663Y-103128188D01*
X159843374Y-103028020D01*
X159779260Y-102921053D01*
X159725940Y-102808316D01*
X159683926Y-102690897D01*
X159653624Y-102569924D01*
X159635325Y-102446564D01*
X159629206Y-102322005D01*
X159629206Y-101485987D01*
X160026081Y-101485987D01*
X160040369Y-101605050D01*
X160089184Y-101668153D01*
X160149906Y-101689584D01*
X160230869Y-101693156D01*
X161428638Y-101693156D01*
X161428638Y-102147975D01*
X161450069Y-102269419D01*
X161501266Y-102309900D01*
X161600088Y-102321806D01*
X161700100Y-102309900D01*
X161756059Y-102262275D01*
X161773919Y-102150356D01*
X161773919Y-100826381D01*
X161752488Y-100704937D01*
X161701291Y-100664456D01*
X161602469Y-100652550D01*
X161502456Y-100664456D01*
X161446497Y-100712081D01*
X161428638Y-100824000D01*
X161428638Y-101281200D01*
X160233250Y-101281200D01*
X160151097Y-101284772D01*
X160089184Y-101306203D01*
X160040369Y-101368116D01*
X160026081Y-101485987D01*
X159629206Y-101485987D01*
X159629206Y-99404775D01*
X160026081Y-99404775D01*
X160042155Y-99527409D01*
X160090375Y-99590512D01*
X160152287Y-99613134D01*
X160235631Y-99616706D01*
X160685687Y-99616706D01*
X160685687Y-100083431D01*
X160697594Y-100204875D01*
X160762483Y-100272741D01*
X160895237Y-100295362D01*
X161018467Y-100279884D01*
X161083356Y-100233450D01*
X161105978Y-100170347D01*
X161109550Y-100085812D01*
X161109550Y-99616706D01*
X161350056Y-99616706D01*
X161350056Y-100345369D01*
X161353628Y-100429903D01*
X161375059Y-100493006D01*
X161438163Y-100543012D01*
X161559606Y-100557300D01*
X161681050Y-100543012D01*
X161745344Y-100494197D01*
X161767966Y-100432284D01*
X161771538Y-100350131D01*
X161771538Y-99411919D01*
X161727484Y-99240469D01*
X161561988Y-99195225D01*
X160238012Y-99195225D01*
X160116569Y-99209512D01*
X160048703Y-99272616D01*
X160026081Y-99404775D01*
X159629206Y-99404775D01*
X159629206Y-97885537D01*
X160026081Y-97885537D01*
X160026081Y-98828512D01*
X160040369Y-98952337D01*
X160103472Y-99018417D01*
X160235631Y-99040444D01*
X160358266Y-99024370D01*
X160421369Y-98976150D01*
X160443991Y-98913047D01*
X160447562Y-98830894D01*
X160447562Y-98097469D01*
X160688069Y-98097469D01*
X160688069Y-98564194D01*
X160702356Y-98688019D01*
X160765459Y-98755884D01*
X160897619Y-98778506D01*
X161020253Y-98762433D01*
X161083356Y-98714212D01*
X161105978Y-98651109D01*
X161109550Y-98568956D01*
X161109550Y-98097469D01*
X161350056Y-98097469D01*
X161350056Y-98828512D01*
X161364344Y-98952337D01*
X161427447Y-99018417D01*
X161559606Y-99040444D01*
X161682241Y-99024370D01*
X161745344Y-98976150D01*
X161767966Y-98913047D01*
X161771538Y-98830894D01*
X161771538Y-97892681D01*
X161727484Y-97721231D01*
X161561988Y-97675987D01*
X160238012Y-97675987D01*
X160116569Y-97690275D01*
X160048703Y-97753378D01*
X160026081Y-97885537D01*
X159629206Y-97885537D01*
X159629206Y-96487744D01*
X160026081Y-96487744D01*
X160026081Y-97344994D01*
X160049894Y-97468819D01*
X160102281Y-97509300D01*
X160203484Y-97521206D01*
X160304687Y-97509300D01*
X160360647Y-97461675D01*
X160378506Y-97347375D01*
X160378506Y-96699675D01*
X161559606Y-96699675D01*
X161683431Y-96687769D01*
X161749511Y-96622880D01*
X161771538Y-96490125D01*
X161755464Y-96367491D01*
X161707244Y-96304387D01*
X161644141Y-96281766D01*
X161561988Y-96278194D01*
X160238012Y-96278194D01*
X160116569Y-96292481D01*
X160048703Y-96355584D01*
X160026081Y-96487744D01*
X159629206Y-96487744D01*
X159629206Y-96277995D01*
X159635325Y-96153436D01*
X159653624Y-96030076D01*
X159683926Y-95909103D01*
X159725940Y-95791684D01*
X159779260Y-95678947D01*
X159843374Y-95571980D01*
X159917663Y-95471812D01*
X160001413Y-95379408D01*
X160093817Y-95295658D01*
X160193985Y-95221369D01*
X160300952Y-95157255D01*
X160413688Y-95103935D01*
X160531108Y-95061922D01*
X160652080Y-95031620D01*
X160775440Y-95013321D01*
X160900000Y-95007202D01*
X161024560Y-95013321D01*
X161147920Y-95031620D01*
X161268892Y-95061922D01*
X161386312Y-95103935D01*
X161499048Y-95157255D01*
X161606015Y-95221369D01*
X161706183Y-95295658D01*
X161798587Y-95379408D01*
X161882337Y-95471812D01*
X161956626Y-95571980D01*
X162020740Y-95678947D01*
X162074060Y-95791684D01*
X162116074Y-95909103D01*
X162146376Y-96030076D01*
X162164675Y-96153436D01*
X162170794Y-96277995D01*
X162170794Y-102322005D01*
X162164675Y-102446564D01*
G37*
G36*
X162190742Y-113771816D02*
G01*
X162172066Y-113897719D01*
X162141140Y-114021185D01*
X162098260Y-114141025D01*
X162043841Y-114256085D01*
X161978406Y-114365257D01*
X161902585Y-114467489D01*
X161817109Y-114561798D01*
X161722800Y-114647274D01*
X161620568Y-114723095D01*
X161511396Y-114788530D01*
X161396336Y-114842949D01*
X161276496Y-114885829D01*
X161153030Y-114916755D01*
X161027127Y-114935431D01*
X160900000Y-114941677D01*
X160772873Y-114935431D01*
X160646970Y-114916755D01*
X160523504Y-114885829D01*
X160403664Y-114842949D01*
X160288604Y-114788530D01*
X160179432Y-114723095D01*
X160077200Y-114647274D01*
X159982891Y-114561798D01*
X159897415Y-114467489D01*
X159821594Y-114365257D01*
X159756159Y-114256085D01*
X159701740Y-114141025D01*
X159658860Y-114021185D01*
X159627934Y-113897719D01*
X159609258Y-113771816D01*
X159603012Y-113644689D01*
X159603012Y-112808672D01*
X160023700Y-112808672D01*
X160037987Y-112927734D01*
X160086803Y-112990837D01*
X160147525Y-113012269D01*
X160228487Y-113015841D01*
X161426256Y-113015841D01*
X161426256Y-113470659D01*
X161447688Y-113592103D01*
X161498884Y-113632584D01*
X161597706Y-113644491D01*
X161697719Y-113632584D01*
X161753678Y-113584959D01*
X161771538Y-113473041D01*
X161771538Y-112149066D01*
X161750106Y-112027622D01*
X161698909Y-111987141D01*
X161600088Y-111975234D01*
X161500075Y-111987141D01*
X161444116Y-112034766D01*
X161426256Y-112146684D01*
X161426256Y-112603884D01*
X160230869Y-112603884D01*
X160148716Y-112607456D01*
X160086803Y-112628887D01*
X160037987Y-112690800D01*
X160023700Y-112808672D01*
X159603012Y-112808672D01*
X159603012Y-110579822D01*
X160026081Y-110579822D01*
X160042155Y-110702456D01*
X160090375Y-110765559D01*
X160153478Y-110788181D01*
X160235631Y-110791753D01*
X160721406Y-110791753D01*
X160721406Y-111422784D01*
X160238012Y-111422784D01*
X160114187Y-111437072D01*
X160048108Y-111500175D01*
X160026081Y-111632334D01*
X160042155Y-111754969D01*
X160090375Y-111818072D01*
X160153478Y-111840694D01*
X160235631Y-111844266D01*
X161557225Y-111844266D01*
X161681050Y-111832359D01*
X161728675Y-111799022D01*
X161757250Y-111737109D01*
X161769156Y-111627572D01*
X161754869Y-111513272D01*
X161704863Y-111448978D01*
X161641759Y-111426356D01*
X161559606Y-111422784D01*
X161071450Y-111422784D01*
X161071450Y-110791753D01*
X161557225Y-110791753D01*
X161681050Y-110779847D01*
X161747130Y-110714958D01*
X161769156Y-110582203D01*
X161753083Y-110459569D01*
X161704863Y-110396466D01*
X161641759Y-110373844D01*
X161559606Y-110370272D01*
X160238012Y-110370272D01*
X160114187Y-110384559D01*
X160048108Y-110447662D01*
X160026081Y-110579822D01*
X159603012Y-110579822D01*
X159603012Y-109513022D01*
X159999887Y-109513022D01*
X160012836Y-109700545D01*
X160051680Y-109863066D01*
X160116420Y-110000583D01*
X160207056Y-110113097D01*
X160352312Y-110179772D01*
X160876187Y-110179772D01*
X161009538Y-110155959D01*
X161076213Y-109998797D01*
X161076213Y-109579697D01*
X161054781Y-109465397D01*
X161002394Y-109426106D01*
X160901191Y-109415391D01*
X160801178Y-109424916D01*
X160745219Y-109465397D01*
X160726169Y-109570172D01*
X160726169Y-109758291D01*
X160466612Y-109758291D01*
X160434466Y-109646967D01*
X160423750Y-109522547D01*
X160459766Y-109351097D01*
X160567816Y-109198697D01*
X160670739Y-109119322D01*
X160787420Y-109071697D01*
X160917859Y-109055822D01*
X161104192Y-109090945D01*
X161251234Y-109196316D01*
X161346782Y-109346930D01*
X161378631Y-109517784D01*
X161362260Y-109646372D01*
X161313147Y-109755909D01*
X161247663Y-109901166D01*
X161279214Y-109981533D01*
X161373869Y-110070234D01*
X161508409Y-110125003D01*
X161614375Y-110060709D01*
X161717563Y-109890582D01*
X161779475Y-109713576D01*
X161800113Y-109529691D01*
X161784262Y-109354669D01*
X161736712Y-109191553D01*
X161657461Y-109040344D01*
X161546509Y-108901041D01*
X161411894Y-108784359D01*
X161261652Y-108701016D01*
X161095783Y-108651009D01*
X160914288Y-108634341D01*
X160731899Y-108650712D01*
X160563351Y-108699825D01*
X160408644Y-108781680D01*
X160267778Y-108896278D01*
X160150576Y-109033051D01*
X160066860Y-109181433D01*
X160016631Y-109341423D01*
X159999887Y-109513022D01*
X159603012Y-109513022D01*
X159603012Y-108267628D01*
X160023700Y-108267628D01*
X160039773Y-108390262D01*
X160087994Y-108453366D01*
X160149906Y-108475987D01*
X160233250Y-108479559D01*
X161557225Y-108479559D01*
X161681050Y-108467653D01*
X161747130Y-108402764D01*
X161769156Y-108270009D01*
X161753083Y-108147375D01*
X161704863Y-108084272D01*
X161641759Y-108061650D01*
X161559606Y-108058078D01*
X160235631Y-108058078D01*
X160114187Y-108072366D01*
X160046322Y-108135469D01*
X160023700Y-108267628D01*
X159603012Y-108267628D01*
X159603012Y-107656837D01*
X160009412Y-107656837D01*
X160042750Y-107779472D01*
X160111806Y-107890200D01*
X160195150Y-107927109D01*
X160318975Y-107891391D01*
X160470581Y-107824716D01*
X160595200Y-107770741D01*
X160692831Y-107729466D01*
X160819302Y-107828684D01*
X160966940Y-107888216D01*
X161135744Y-107908059D01*
X161283381Y-107892581D01*
X161416731Y-107846147D01*
X161529841Y-107775900D01*
X161616756Y-107688984D01*
X161701423Y-107555899D01*
X161752223Y-107420168D01*
X161769156Y-107281791D01*
X161769156Y-106767441D01*
X161753083Y-106644806D01*
X161704863Y-106581703D01*
X161641759Y-106559081D01*
X161559606Y-106555509D01*
X160238012Y-106555509D01*
X160114187Y-106569797D01*
X160048108Y-106632900D01*
X160026081Y-106765059D01*
X160042155Y-106887694D01*
X160090375Y-106950797D01*
X160153478Y-106973419D01*
X160235631Y-106976991D01*
X160504712Y-106976991D01*
X160504712Y-107277028D01*
X160509475Y-107350847D01*
X160290135Y-107443451D01*
X160146467Y-107505364D01*
X160078469Y-107536584D01*
X160032034Y-107580637D01*
X160009412Y-107656837D01*
X159603012Y-107656837D01*
X159603012Y-106555311D01*
X159609258Y-106428184D01*
X159627934Y-106302281D01*
X159658860Y-106178815D01*
X159701740Y-106058975D01*
X159756159Y-105943915D01*
X159821594Y-105834743D01*
X159897415Y-105732511D01*
X159982891Y-105638202D01*
X160077200Y-105552726D01*
X160179432Y-105476905D01*
X160288604Y-105411470D01*
X160403664Y-105357051D01*
X160523504Y-105314171D01*
X160646970Y-105283245D01*
X160772873Y-105264569D01*
X160900000Y-105258323D01*
X161027127Y-105264569D01*
X161153030Y-105283245D01*
X161276496Y-105314171D01*
X161396336Y-105357051D01*
X161511396Y-105411470D01*
X161620568Y-105476905D01*
X161722800Y-105552726D01*
X161817109Y-105638202D01*
X161902585Y-105732511D01*
X161978406Y-105834743D01*
X162043841Y-105943915D01*
X162098260Y-106058975D01*
X162141140Y-106178815D01*
X162172066Y-106302281D01*
X162190742Y-106428184D01*
X162196988Y-106555311D01*
X162196988Y-113644689D01*
X162190742Y-113771816D01*
G37*
G36*
X161347675Y-107277028D02*
G01*
X161294097Y-107419903D01*
X161135744Y-107488959D01*
X160978581Y-107419903D01*
X160926194Y-107281791D01*
X160926194Y-106976991D01*
X161347675Y-106976991D01*
X161347675Y-107277028D01*
G37*
D12*
X135655000Y-97340000D02*
X136155000Y-97840000D01*
X136155000Y-96840000D02*
X135655000Y-97340000D01*
X119845000Y-101130000D02*
X119845000Y-83370000D01*
X135575000Y-101130000D02*
X135575000Y-83370000D01*
X136155000Y-97840000D02*
X136155000Y-96840000D01*
X119845000Y-83370000D02*
X135575000Y-83370000D01*
X119855000Y-101130000D02*
X135575000Y-101130000D01*
X158257500Y-80817500D02*
X161857500Y-80817500D01*
X161857500Y-80817500D02*
X161857500Y-83317500D01*
X161857500Y-83317500D02*
X158257500Y-83317500D01*
X158257500Y-83317500D02*
X158257500Y-80817500D01*
X157057500Y-83317500D02*
X163057500Y-83317500D01*
X163057500Y-83317500D02*
X163057500Y-94817500D01*
X163057500Y-94817500D02*
X157057500Y-94817500D01*
X157057500Y-94817500D02*
X157057500Y-83317500D01*
X161857500Y-129182500D02*
X158257500Y-129182500D01*
X158257500Y-129182500D02*
X158257500Y-126682500D01*
X158257500Y-126682500D02*
X161857500Y-126682500D01*
X161857500Y-126682500D02*
X161857500Y-129182500D01*
X163057500Y-126682500D02*
X157057500Y-126682500D01*
X157057500Y-126682500D02*
X157057500Y-115182500D01*
X157057500Y-115182500D02*
X163057500Y-115182500D01*
X163057500Y-115182500D02*
X163057500Y-126682500D01*
X146090000Y-93937221D02*
X146090000Y-94262779D01*
X147110000Y-93937221D02*
X147110000Y-94262779D01*
X144490000Y-93937221D02*
X144490000Y-94262779D01*
X145510000Y-93937221D02*
X145510000Y-94262779D01*
X156510000Y-97062779D02*
X156510000Y-96737221D01*
X155490000Y-97062779D02*
X155490000Y-96737221D01*
X158410000Y-97050279D02*
X158410000Y-96724721D01*
X157390000Y-97050279D02*
X157390000Y-96724721D01*
X140810000Y-98837221D02*
X140810000Y-99162779D01*
X139790000Y-98837221D02*
X139790000Y-99162779D01*
X136790000Y-98837221D02*
X136790000Y-99162779D01*
X137810000Y-98837221D02*
X137810000Y-99162779D01*
X134540000Y-114587221D02*
X134540000Y-114912779D01*
X135560000Y-114587221D02*
X135560000Y-114912779D01*
X149990000Y-114762779D02*
X149990000Y-114437221D01*
X151010000Y-114762779D02*
X151010000Y-114437221D01*
X128037221Y-113090000D02*
X128362779Y-113090000D01*
X128037221Y-114110000D02*
X128362779Y-114110000D01*
X148334000Y-109410000D02*
X151894000Y-109410000D01*
X138174000Y-109410000D02*
X141734000Y-109410000D01*
X150874000Y-106750000D02*
X154434000Y-106750000D01*
X145794000Y-106750000D02*
X149354000Y-106750000D01*
X156524000Y-109410000D02*
X156524000Y-106750000D01*
X153414000Y-109410000D02*
X156524000Y-109410000D01*
X125474000Y-106750000D02*
X129034000Y-106750000D01*
X155954000Y-106750000D02*
X156524000Y-106750000D01*
X122934000Y-109410000D02*
X126494000Y-109410000D01*
X120844000Y-106750000D02*
X123954000Y-106750000D01*
X120844000Y-109410000D02*
X120844000Y-106750000D01*
X120844000Y-109410000D02*
X121414000Y-109410000D01*
X140714000Y-106750000D02*
X144274000Y-106750000D01*
X128014000Y-109410000D02*
X131574000Y-109410000D01*
X143254000Y-109410000D02*
X146814000Y-109410000D01*
X135634000Y-106750000D02*
X139194000Y-106750000D01*
X121414000Y-109410000D02*
X121414000Y-110930000D01*
X130554000Y-106750000D02*
X134114000Y-106750000D01*
X133094000Y-109410000D02*
X136654000Y-109410000D01*
D11*
X120904000Y-106810000D02*
X156464000Y-106810000D01*
X125984000Y-119510000D02*
X125984000Y-111890000D01*
X119634000Y-111890000D02*
X120904000Y-111890000D01*
X156464000Y-106810000D02*
X156464000Y-124590000D01*
X120904000Y-119510000D02*
X119634000Y-119510000D01*
X125984000Y-119510000D02*
X120904000Y-119510000D01*
X156464000Y-124590000D02*
X120904000Y-124590000D01*
X119634000Y-119510000D02*
X119634000Y-111890000D01*
X120904000Y-124590000D02*
X120904000Y-106810000D01*
X125984000Y-111890000D02*
X120904000Y-111890000D01*
D12*
X130400000Y-116050000D02*
X130400000Y-114200000D01*
X131450000Y-116050000D02*
X130400000Y-116050000D01*
X133450000Y-116050000D02*
X132450000Y-116050000D01*
X133460000Y-116030000D02*
X133460000Y-113600000D01*
X138262779Y-95990000D02*
X137937221Y-95990000D01*
X138262779Y-97010000D02*
X137937221Y-97010000D01*
X151562779Y-90490000D02*
X151237221Y-90490000D01*
X151562779Y-91510000D02*
X151237221Y-91510000D01*
X153135000Y-98110000D02*
X153610000Y-98110000D01*
X153610000Y-92890000D02*
X153610000Y-93365000D01*
X148390000Y-92890000D02*
X148390000Y-93365000D01*
X148865000Y-92890000D02*
X148390000Y-92890000D01*
X148390000Y-98110000D02*
X148390000Y-97635000D01*
X153135000Y-92890000D02*
X153610000Y-92890000D01*
X148865000Y-98110000D02*
X148390000Y-98110000D01*
X128014000Y-124650000D02*
X131574000Y-124650000D01*
X120844000Y-121990000D02*
X123954000Y-121990000D01*
X156524000Y-124650000D02*
X156524000Y-121990000D01*
X135634000Y-121990000D02*
X139194000Y-121990000D01*
X140714000Y-121990000D02*
X144274000Y-121990000D01*
X153414000Y-124650000D02*
X156524000Y-124650000D01*
X121414000Y-124650000D02*
X121414000Y-126170000D01*
X125474000Y-121990000D02*
X129034000Y-121990000D01*
X130554000Y-121990000D02*
X134114000Y-121990000D01*
X122934000Y-124650000D02*
X126494000Y-124650000D01*
X148334000Y-124650000D02*
X151894000Y-124650000D01*
X120844000Y-124650000D02*
X120844000Y-121990000D01*
X138174000Y-124650000D02*
X141734000Y-124650000D01*
X155954000Y-121990000D02*
X156524000Y-121990000D01*
X150874000Y-121990000D02*
X154434000Y-121990000D01*
X133094000Y-124650000D02*
X136654000Y-124650000D01*
X143254000Y-124650000D02*
X146814000Y-124650000D01*
X145794000Y-121990000D02*
X149354000Y-121990000D01*
X120844000Y-124650000D02*
X121414000Y-124650000D01*
M02*
