G04 #@! TF.GenerationSoftware,KiCad,Pcbnew,(5.99.0-12750-ge81b516a82)*
G04 #@! TF.CreationDate,2021-10-13T14:39:13-04:00*
G04 #@! TF.ProjectId,Audio_teensy,41756469-6f5f-4746-9565-6e73792e6b69,1.3*
G04 #@! TF.SameCoordinates,Original*
G04 #@! TF.FileFunction,Legend,Top*
G04 #@! TF.FilePolarity,Positive*
%FSLAX46Y46*%
G04 Gerber Fmt 4.6, Leading zero omitted, Abs format (unit mm)*
G04 Created by KiCad (PCBNEW (5.99.0-12750-ge81b516a82)) date 2021-10-13 14:39:13*
%MOMM*%
%LPD*%
G01*
G04 APERTURE LIST*
%ADD10C,0.200000*%
%ADD11C,0.150000*%
%ADD12C,0.120000*%
G04 APERTURE END LIST*
D10*
X136225000Y-83832916D02*
X137225000Y-83832916D01*
X136725000Y-85582916D02*
X136725000Y-83832916D01*
X138475000Y-85499583D02*
X138308333Y-85582916D01*
X137975000Y-85582916D01*
X137808333Y-85499583D01*
X137725000Y-85332916D01*
X137725000Y-84666250D01*
X137808333Y-84499583D01*
X137975000Y-84416250D01*
X138308333Y-84416250D01*
X138475000Y-84499583D01*
X138558333Y-84666250D01*
X138558333Y-84832916D01*
X137725000Y-84999583D01*
X139975000Y-85499583D02*
X139808333Y-85582916D01*
X139475000Y-85582916D01*
X139308333Y-85499583D01*
X139225000Y-85332916D01*
X139225000Y-84666250D01*
X139308333Y-84499583D01*
X139475000Y-84416250D01*
X139808333Y-84416250D01*
X139975000Y-84499583D01*
X140058333Y-84666250D01*
X140058333Y-84832916D01*
X139225000Y-84999583D01*
X140808333Y-84416250D02*
X140808333Y-85582916D01*
X140808333Y-84582916D02*
X140891666Y-84499583D01*
X141058333Y-84416250D01*
X141308333Y-84416250D01*
X141475000Y-84499583D01*
X141558333Y-84666250D01*
X141558333Y-85582916D01*
X142308333Y-85499583D02*
X142475000Y-85582916D01*
X142808333Y-85582916D01*
X142975000Y-85499583D01*
X143058333Y-85332916D01*
X143058333Y-85249583D01*
X142975000Y-85082916D01*
X142808333Y-84999583D01*
X142558333Y-84999583D01*
X142391666Y-84916250D01*
X142308333Y-84749583D01*
X142308333Y-84666250D01*
X142391666Y-84499583D01*
X142558333Y-84416250D01*
X142808333Y-84416250D01*
X142975000Y-84499583D01*
X143641666Y-84416250D02*
X144058333Y-85582916D01*
X144475000Y-84416250D02*
X144058333Y-85582916D01*
X143891666Y-85999583D01*
X143808333Y-86082916D01*
X143641666Y-86166250D01*
X146391666Y-85082916D02*
X147225000Y-85082916D01*
X146225000Y-85582916D02*
X146808333Y-83832916D01*
X147391666Y-85582916D01*
X148725000Y-84416250D02*
X148725000Y-85582916D01*
X147975000Y-84416250D02*
X147975000Y-85332916D01*
X148058333Y-85499583D01*
X148225000Y-85582916D01*
X148475000Y-85582916D01*
X148641666Y-85499583D01*
X148725000Y-85416250D01*
X150308333Y-85582916D02*
X150308333Y-83832916D01*
X150308333Y-85499583D02*
X150141666Y-85582916D01*
X149808333Y-85582916D01*
X149641666Y-85499583D01*
X149558333Y-85416250D01*
X149475000Y-85249583D01*
X149475000Y-84749583D01*
X149558333Y-84582916D01*
X149641666Y-84499583D01*
X149808333Y-84416250D01*
X150141666Y-84416250D01*
X150308333Y-84499583D01*
X151141666Y-85582916D02*
X151141666Y-84416250D01*
X151141666Y-83832916D02*
X151058333Y-83916250D01*
X151141666Y-83999583D01*
X151225000Y-83916250D01*
X151141666Y-83832916D01*
X151141666Y-83999583D01*
X152225000Y-85582916D02*
X152058333Y-85499583D01*
X151975000Y-85416250D01*
X151891666Y-85249583D01*
X151891666Y-84749583D01*
X151975000Y-84582916D01*
X152058333Y-84499583D01*
X152225000Y-84416250D01*
X152475000Y-84416250D01*
X152641666Y-84499583D01*
X152725000Y-84582916D01*
X152808333Y-84749583D01*
X152808333Y-85249583D01*
X152725000Y-85416250D01*
X152641666Y-85499583D01*
X152475000Y-85582916D01*
X152225000Y-85582916D01*
X138391666Y-87483750D02*
X138641666Y-87567083D01*
X138725000Y-87650416D01*
X138808333Y-87817083D01*
X138808333Y-88067083D01*
X138725000Y-88233750D01*
X138641666Y-88317083D01*
X138475000Y-88400416D01*
X137808333Y-88400416D01*
X137808333Y-86650416D01*
X138391666Y-86650416D01*
X138558333Y-86733750D01*
X138641666Y-86817083D01*
X138725000Y-86983750D01*
X138725000Y-87150416D01*
X138641666Y-87317083D01*
X138558333Y-87400416D01*
X138391666Y-87483750D01*
X137808333Y-87483750D01*
X139808333Y-88400416D02*
X139641666Y-88317083D01*
X139558333Y-88233750D01*
X139475000Y-88067083D01*
X139475000Y-87567083D01*
X139558333Y-87400416D01*
X139641666Y-87317083D01*
X139808333Y-87233750D01*
X140058333Y-87233750D01*
X140225000Y-87317083D01*
X140308333Y-87400416D01*
X140391666Y-87567083D01*
X140391666Y-88067083D01*
X140308333Y-88233750D01*
X140225000Y-88317083D01*
X140058333Y-88400416D01*
X139808333Y-88400416D01*
X141891666Y-88400416D02*
X141891666Y-87483750D01*
X141808333Y-87317083D01*
X141641666Y-87233750D01*
X141308333Y-87233750D01*
X141141666Y-87317083D01*
X141891666Y-88317083D02*
X141725000Y-88400416D01*
X141308333Y-88400416D01*
X141141666Y-88317083D01*
X141058333Y-88150416D01*
X141058333Y-87983750D01*
X141141666Y-87817083D01*
X141308333Y-87733750D01*
X141725000Y-87733750D01*
X141891666Y-87650416D01*
X142725000Y-88400416D02*
X142725000Y-87233750D01*
X142725000Y-87567083D02*
X142808333Y-87400416D01*
X142891666Y-87317083D01*
X143058333Y-87233750D01*
X143225000Y-87233750D01*
X144558333Y-88400416D02*
X144558333Y-86650416D01*
X144558333Y-88317083D02*
X144391666Y-88400416D01*
X144058333Y-88400416D01*
X143891666Y-88317083D01*
X143808333Y-88233750D01*
X143725000Y-88067083D01*
X143725000Y-87567083D01*
X143808333Y-87400416D01*
X143891666Y-87317083D01*
X144058333Y-87233750D01*
X144391666Y-87233750D01*
X144558333Y-87317083D01*
X146558333Y-87233750D02*
X146975000Y-88400416D01*
X147391666Y-87233750D01*
X148975000Y-88400416D02*
X147975000Y-88400416D01*
X148475000Y-88400416D02*
X148475000Y-86650416D01*
X148308333Y-86900416D01*
X148141666Y-87067083D01*
X147975000Y-87150416D01*
X149725000Y-88233750D02*
X149808333Y-88317083D01*
X149725000Y-88400416D01*
X149641666Y-88317083D01*
X149725000Y-88233750D01*
X149725000Y-88400416D01*
X150391666Y-86650416D02*
X151475000Y-86650416D01*
X150891666Y-87317083D01*
X151141666Y-87317083D01*
X151308333Y-87400416D01*
X151391666Y-87483750D01*
X151475000Y-87650416D01*
X151475000Y-88067083D01*
X151391666Y-88233750D01*
X151308333Y-88317083D01*
X151141666Y-88400416D01*
X150641666Y-88400416D01*
X150475000Y-88317083D01*
X150391666Y-88233750D01*
D11*
X147357142Y-97066666D02*
X147404761Y-97114285D01*
X147452380Y-97257142D01*
X147452380Y-97352380D01*
X147404761Y-97495238D01*
X147309523Y-97590476D01*
X147214285Y-97638095D01*
X147023809Y-97685714D01*
X146880952Y-97685714D01*
X146690476Y-97638095D01*
X146595238Y-97590476D01*
X146500000Y-97495238D01*
X146452380Y-97352380D01*
X146452380Y-97257142D01*
X146500000Y-97114285D01*
X146547619Y-97066666D01*
X146547619Y-96685714D02*
X146500000Y-96638095D01*
X146452380Y-96542857D01*
X146452380Y-96304761D01*
X146500000Y-96209523D01*
X146547619Y-96161904D01*
X146642857Y-96114285D01*
X146738095Y-96114285D01*
X146880952Y-96161904D01*
X147452380Y-96733333D01*
X147452380Y-96114285D01*
X145757142Y-97066666D02*
X145804761Y-97114285D01*
X145852380Y-97257142D01*
X145852380Y-97352380D01*
X145804761Y-97495238D01*
X145709523Y-97590476D01*
X145614285Y-97638095D01*
X145423809Y-97685714D01*
X145280952Y-97685714D01*
X145090476Y-97638095D01*
X144995238Y-97590476D01*
X144900000Y-97495238D01*
X144852380Y-97352380D01*
X144852380Y-97257142D01*
X144900000Y-97114285D01*
X144947619Y-97066666D01*
X144852380Y-96733333D02*
X144852380Y-96114285D01*
X145233333Y-96447619D01*
X145233333Y-96304761D01*
X145280952Y-96209523D01*
X145328571Y-96161904D01*
X145423809Y-96114285D01*
X145661904Y-96114285D01*
X145757142Y-96161904D01*
X145804761Y-96209523D01*
X145852380Y-96304761D01*
X145852380Y-96590476D01*
X145804761Y-96685714D01*
X145757142Y-96733333D01*
X126868666Y-85362380D02*
X126868666Y-86076666D01*
X126821047Y-86219523D01*
X126725809Y-86314761D01*
X126582952Y-86362380D01*
X126487714Y-86362380D01*
X127868666Y-86362380D02*
X127297238Y-86362380D01*
X127582952Y-86362380D02*
X127582952Y-85362380D01*
X127487714Y-85505238D01*
X127392476Y-85600476D01*
X127297238Y-85648095D01*
X157266666Y-113352380D02*
X157266666Y-114066666D01*
X157219047Y-114209523D01*
X157123809Y-114304761D01*
X156980952Y-114352380D01*
X156885714Y-114352380D01*
X157695238Y-113447619D02*
X157742857Y-113400000D01*
X157838095Y-113352380D01*
X158076190Y-113352380D01*
X158171428Y-113400000D01*
X158219047Y-113447619D01*
X158266666Y-113542857D01*
X158266666Y-113638095D01*
X158219047Y-113780952D01*
X157647619Y-114352380D01*
X158266666Y-114352380D01*
X156357142Y-99606666D02*
X156404761Y-99654285D01*
X156452380Y-99797142D01*
X156452380Y-99892380D01*
X156404761Y-100035238D01*
X156309523Y-100130476D01*
X156214285Y-100178095D01*
X156023809Y-100225714D01*
X155880952Y-100225714D01*
X155690476Y-100178095D01*
X155595238Y-100130476D01*
X155500000Y-100035238D01*
X155452380Y-99892380D01*
X155452380Y-99797142D01*
X155500000Y-99654285D01*
X155547619Y-99606666D01*
X155785714Y-98749523D02*
X156452380Y-98749523D01*
X155404761Y-98987619D02*
X156119047Y-99225714D01*
X156119047Y-98606666D01*
X158257142Y-99594166D02*
X158304761Y-99641785D01*
X158352380Y-99784642D01*
X158352380Y-99879880D01*
X158304761Y-100022738D01*
X158209523Y-100117976D01*
X158114285Y-100165595D01*
X157923809Y-100213214D01*
X157780952Y-100213214D01*
X157590476Y-100165595D01*
X157495238Y-100117976D01*
X157400000Y-100022738D01*
X157352380Y-99879880D01*
X157352380Y-99784642D01*
X157400000Y-99641785D01*
X157447619Y-99594166D01*
X157352380Y-98689404D02*
X157352380Y-99165595D01*
X157828571Y-99213214D01*
X157780952Y-99165595D01*
X157733333Y-99070357D01*
X157733333Y-98832261D01*
X157780952Y-98737023D01*
X157828571Y-98689404D01*
X157923809Y-98641785D01*
X158161904Y-98641785D01*
X158257142Y-98689404D01*
X158304761Y-98737023D01*
X158352380Y-98832261D01*
X158352380Y-99070357D01*
X158304761Y-99165595D01*
X158257142Y-99213214D01*
X140033333Y-97252380D02*
X139700000Y-96776190D01*
X139461904Y-97252380D02*
X139461904Y-96252380D01*
X139842857Y-96252380D01*
X139938095Y-96300000D01*
X139985714Y-96347619D01*
X140033333Y-96442857D01*
X140033333Y-96585714D01*
X139985714Y-96680952D01*
X139938095Y-96728571D01*
X139842857Y-96776190D01*
X139461904Y-96776190D01*
X140414285Y-96347619D02*
X140461904Y-96300000D01*
X140557142Y-96252380D01*
X140795238Y-96252380D01*
X140890476Y-96300000D01*
X140938095Y-96347619D01*
X140985714Y-96442857D01*
X140985714Y-96538095D01*
X140938095Y-96680952D01*
X140366666Y-97252380D01*
X140985714Y-97252380D01*
X137233333Y-97252380D02*
X136900000Y-96776190D01*
X136661904Y-97252380D02*
X136661904Y-96252380D01*
X137042857Y-96252380D01*
X137138095Y-96300000D01*
X137185714Y-96347619D01*
X137233333Y-96442857D01*
X137233333Y-96585714D01*
X137185714Y-96680952D01*
X137138095Y-96728571D01*
X137042857Y-96776190D01*
X136661904Y-96776190D01*
X138185714Y-97252380D02*
X137614285Y-97252380D01*
X137900000Y-97252380D02*
X137900000Y-96252380D01*
X137804761Y-96395238D01*
X137709523Y-96490476D01*
X137614285Y-96538095D01*
X136837142Y-114916666D02*
X136884761Y-114964285D01*
X136932380Y-115107142D01*
X136932380Y-115202380D01*
X136884761Y-115345238D01*
X136789523Y-115440476D01*
X136694285Y-115488095D01*
X136503809Y-115535714D01*
X136360952Y-115535714D01*
X136170476Y-115488095D01*
X136075238Y-115440476D01*
X135980000Y-115345238D01*
X135932380Y-115202380D01*
X135932380Y-115107142D01*
X135980000Y-114964285D01*
X136027619Y-114916666D01*
X135932380Y-114059523D02*
X135932380Y-114250000D01*
X135980000Y-114345238D01*
X136027619Y-114392857D01*
X136170476Y-114488095D01*
X136360952Y-114535714D01*
X136741904Y-114535714D01*
X136837142Y-114488095D01*
X136884761Y-114440476D01*
X136932380Y-114345238D01*
X136932380Y-114154761D01*
X136884761Y-114059523D01*
X136837142Y-114011904D01*
X136741904Y-113964285D01*
X136503809Y-113964285D01*
X136408571Y-114011904D01*
X136360952Y-114059523D01*
X136313333Y-114154761D01*
X136313333Y-114345238D01*
X136360952Y-114440476D01*
X136408571Y-114488095D01*
X136503809Y-114535714D01*
X147828380Y-114817466D02*
X147352190Y-115150800D01*
X147828380Y-115388895D02*
X146828380Y-115388895D01*
X146828380Y-115007942D01*
X146876000Y-114912704D01*
X146923619Y-114865085D01*
X147018857Y-114817466D01*
X147161714Y-114817466D01*
X147256952Y-114865085D01*
X147304571Y-114912704D01*
X147352190Y-115007942D01*
X147352190Y-115388895D01*
X146828380Y-114484133D02*
X146828380Y-113865085D01*
X147209333Y-114198419D01*
X147209333Y-114055561D01*
X147256952Y-113960323D01*
X147304571Y-113912704D01*
X147399809Y-113865085D01*
X147637904Y-113865085D01*
X147733142Y-113912704D01*
X147780761Y-113960323D01*
X147828380Y-114055561D01*
X147828380Y-114341276D01*
X147780761Y-114436514D01*
X147733142Y-114484133D01*
X128287333Y-115481142D02*
X128239714Y-115528761D01*
X128096857Y-115576380D01*
X128001619Y-115576380D01*
X127858761Y-115528761D01*
X127763523Y-115433523D01*
X127715904Y-115338285D01*
X127668285Y-115147809D01*
X127668285Y-115004952D01*
X127715904Y-114814476D01*
X127763523Y-114719238D01*
X127858761Y-114624000D01*
X128001619Y-114576380D01*
X128096857Y-114576380D01*
X128239714Y-114624000D01*
X128287333Y-114671619D01*
X129239714Y-115576380D02*
X128668285Y-115576380D01*
X128954000Y-115576380D02*
X128954000Y-114576380D01*
X128858761Y-114719238D01*
X128763523Y-114814476D01*
X128668285Y-114862095D01*
X120082666Y-105452380D02*
X120082666Y-106166666D01*
X120035047Y-106309523D01*
X119939809Y-106404761D01*
X119796952Y-106452380D01*
X119701714Y-106452380D01*
X121035047Y-105452380D02*
X120558857Y-105452380D01*
X120511238Y-105928571D01*
X120558857Y-105880952D01*
X120654095Y-105833333D01*
X120892190Y-105833333D01*
X120987428Y-105880952D01*
X121035047Y-105928571D01*
X121082666Y-106023809D01*
X121082666Y-106261904D01*
X121035047Y-106357142D01*
X120987428Y-106404761D01*
X120892190Y-106452380D01*
X120654095Y-106452380D01*
X120558857Y-106404761D01*
X120511238Y-106357142D01*
X121452380Y-116961904D02*
X122261904Y-116961904D01*
X122357142Y-116914285D01*
X122404761Y-116866666D01*
X122452380Y-116771428D01*
X122452380Y-116580952D01*
X122404761Y-116485714D01*
X122357142Y-116438095D01*
X122261904Y-116390476D01*
X121452380Y-116390476D01*
X122404761Y-115961904D02*
X122452380Y-115819047D01*
X122452380Y-115580952D01*
X122404761Y-115485714D01*
X122357142Y-115438095D01*
X122261904Y-115390476D01*
X122166666Y-115390476D01*
X122071428Y-115438095D01*
X122023809Y-115485714D01*
X121976190Y-115580952D01*
X121928571Y-115771428D01*
X121880952Y-115866666D01*
X121833333Y-115914285D01*
X121738095Y-115961904D01*
X121642857Y-115961904D01*
X121547619Y-115914285D01*
X121500000Y-115866666D01*
X121452380Y-115771428D01*
X121452380Y-115533333D01*
X121500000Y-115390476D01*
X121928571Y-114628571D02*
X121976190Y-114485714D01*
X122023809Y-114438095D01*
X122119047Y-114390476D01*
X122261904Y-114390476D01*
X122357142Y-114438095D01*
X122404761Y-114485714D01*
X122452380Y-114580952D01*
X122452380Y-114961904D01*
X121452380Y-114961904D01*
X121452380Y-114628571D01*
X121500000Y-114533333D01*
X121547619Y-114485714D01*
X121642857Y-114438095D01*
X121738095Y-114438095D01*
X121833333Y-114485714D01*
X121880952Y-114533333D01*
X121928571Y-114628571D01*
X121928571Y-114961904D01*
X151528571Y-116533333D02*
X151576190Y-116390476D01*
X151623809Y-116342857D01*
X151719047Y-116295238D01*
X151861904Y-116295238D01*
X151957142Y-116342857D01*
X152004761Y-116390476D01*
X152052380Y-116485714D01*
X152052380Y-116866666D01*
X151052380Y-116866666D01*
X151052380Y-116533333D01*
X151100000Y-116438095D01*
X151147619Y-116390476D01*
X151242857Y-116342857D01*
X151338095Y-116342857D01*
X151433333Y-116390476D01*
X151480952Y-116438095D01*
X151528571Y-116533333D01*
X151528571Y-116866666D01*
X151052380Y-116009523D02*
X151052380Y-115438095D01*
X152052380Y-115723809D02*
X151052380Y-115723809D01*
X152052380Y-115104761D02*
X151052380Y-115104761D01*
X152052380Y-114533333D01*
X151052380Y-114533333D01*
X155666666Y-88152380D02*
X155666666Y-88866666D01*
X155619047Y-89009523D01*
X155523809Y-89104761D01*
X155380952Y-89152380D01*
X155285714Y-89152380D01*
X156047619Y-88152380D02*
X156666666Y-88152380D01*
X156333333Y-88533333D01*
X156476190Y-88533333D01*
X156571428Y-88580952D01*
X156619047Y-88628571D01*
X156666666Y-88723809D01*
X156666666Y-88961904D01*
X156619047Y-89057142D01*
X156571428Y-89104761D01*
X156476190Y-89152380D01*
X156190476Y-89152380D01*
X156095238Y-89104761D01*
X156047619Y-89057142D01*
X131061095Y-117409880D02*
X131061095Y-118219404D01*
X131108714Y-118314642D01*
X131156333Y-118362261D01*
X131251571Y-118409880D01*
X131442047Y-118409880D01*
X131537285Y-118362261D01*
X131584904Y-118314642D01*
X131632523Y-118219404D01*
X131632523Y-117409880D01*
X132632523Y-118409880D02*
X132061095Y-118409880D01*
X132346809Y-118409880D02*
X132346809Y-117409880D01*
X132251571Y-117552738D01*
X132156333Y-117647976D01*
X132061095Y-117695595D01*
X142866666Y-99028571D02*
X142533333Y-99028571D01*
X142533333Y-99552380D02*
X142533333Y-98552380D01*
X143009523Y-98552380D01*
X143723809Y-99028571D02*
X143866666Y-99076190D01*
X143914285Y-99123809D01*
X143961904Y-99219047D01*
X143961904Y-99361904D01*
X143914285Y-99457142D01*
X143866666Y-99504761D01*
X143771428Y-99552380D01*
X143390476Y-99552380D01*
X143390476Y-98552380D01*
X143723809Y-98552380D01*
X143819047Y-98600000D01*
X143866666Y-98647619D01*
X143914285Y-98742857D01*
X143914285Y-98838095D01*
X143866666Y-98933333D01*
X143819047Y-98980952D01*
X143723809Y-99028571D01*
X143390476Y-99028571D01*
X144914285Y-99552380D02*
X144342857Y-99552380D01*
X144628571Y-99552380D02*
X144628571Y-98552380D01*
X144533333Y-98695238D01*
X144438095Y-98790476D01*
X144342857Y-98838095D01*
X149557142Y-91166666D02*
X149604761Y-91214285D01*
X149652380Y-91357142D01*
X149652380Y-91452380D01*
X149604761Y-91595238D01*
X149509523Y-91690476D01*
X149414285Y-91738095D01*
X149223809Y-91785714D01*
X149080952Y-91785714D01*
X148890476Y-91738095D01*
X148795238Y-91690476D01*
X148700000Y-91595238D01*
X148652380Y-91452380D01*
X148652380Y-91357142D01*
X148700000Y-91214285D01*
X148747619Y-91166666D01*
X148652380Y-90833333D02*
X148652380Y-90166666D01*
X149652380Y-90595238D01*
X152438095Y-98852380D02*
X152438095Y-99661904D01*
X152485714Y-99757142D01*
X152533333Y-99804761D01*
X152628571Y-99852380D01*
X152819047Y-99852380D01*
X152914285Y-99804761D01*
X152961904Y-99757142D01*
X153009523Y-99661904D01*
X153009523Y-98852380D01*
X153390476Y-98852380D02*
X154009523Y-98852380D01*
X153676190Y-99233333D01*
X153819047Y-99233333D01*
X153914285Y-99280952D01*
X153961904Y-99328571D01*
X154009523Y-99423809D01*
X154009523Y-99661904D01*
X153961904Y-99757142D01*
X153914285Y-99804761D01*
X153819047Y-99852380D01*
X153533333Y-99852380D01*
X153438095Y-99804761D01*
X153390476Y-99757142D01*
X120512666Y-120652380D02*
X120512666Y-121366666D01*
X120465047Y-121509523D01*
X120369809Y-121604761D01*
X120226952Y-121652380D01*
X120131714Y-121652380D01*
X121417428Y-120985714D02*
X121417428Y-121652380D01*
X121179333Y-120604761D02*
X120941238Y-121319047D01*
X121560285Y-121319047D01*
D12*
X146490000Y-93937221D02*
X146490000Y-94262779D01*
X147510000Y-93937221D02*
X147510000Y-94262779D01*
X145910000Y-93937221D02*
X145910000Y-94262779D01*
X144890000Y-93937221D02*
X144890000Y-94262779D01*
X136155000Y-96840000D02*
X135655000Y-97340000D01*
X135575000Y-101130000D02*
X135575000Y-83370000D01*
X119845000Y-101130000D02*
X119845000Y-83370000D01*
X135655000Y-97340000D02*
X136155000Y-97840000D01*
X136155000Y-97840000D02*
X136155000Y-96840000D01*
X119845000Y-83370000D02*
X135575000Y-83370000D01*
X119855000Y-101130000D02*
X135575000Y-101130000D01*
X163057500Y-126682500D02*
X157057500Y-126682500D01*
X157057500Y-126682500D02*
X157057500Y-115182500D01*
X157057500Y-115182500D02*
X163057500Y-115182500D01*
X163057500Y-115182500D02*
X163057500Y-126682500D01*
X161857500Y-129182500D02*
X158257500Y-129182500D01*
X158257500Y-129182500D02*
X158257500Y-126682500D01*
X158257500Y-126682500D02*
X161857500Y-126682500D01*
X161857500Y-126682500D02*
X161857500Y-129182500D01*
X156510000Y-97062779D02*
X156510000Y-96737221D01*
X155490000Y-97062779D02*
X155490000Y-96737221D01*
X158410000Y-97050279D02*
X158410000Y-96724721D01*
X157390000Y-97050279D02*
X157390000Y-96724721D01*
X140810000Y-98837221D02*
X140810000Y-99162779D01*
X139790000Y-98837221D02*
X139790000Y-99162779D01*
X137810000Y-98837221D02*
X137810000Y-99162779D01*
X136790000Y-98837221D02*
X136790000Y-99162779D01*
X135560000Y-114587221D02*
X135560000Y-114912779D01*
X134540000Y-114587221D02*
X134540000Y-114912779D01*
X148390000Y-114762779D02*
X148390000Y-114437221D01*
X149410000Y-114762779D02*
X149410000Y-114437221D01*
X128037221Y-113090000D02*
X128362779Y-113090000D01*
X128037221Y-114110000D02*
X128362779Y-114110000D01*
X147250000Y-109410000D02*
X150810000Y-109410000D01*
X137090000Y-109410000D02*
X140650000Y-109410000D01*
X149790000Y-106750000D02*
X153350000Y-106750000D01*
X144710000Y-106750000D02*
X148270000Y-106750000D01*
X155440000Y-109410000D02*
X155440000Y-106750000D01*
X152330000Y-109410000D02*
X155440000Y-109410000D01*
X124390000Y-106750000D02*
X127950000Y-106750000D01*
X154870000Y-106750000D02*
X155440000Y-106750000D01*
X121850000Y-109410000D02*
X125410000Y-109410000D01*
X119760000Y-106750000D02*
X122870000Y-106750000D01*
X119760000Y-109410000D02*
X119760000Y-106750000D01*
X119760000Y-109410000D02*
X120330000Y-109410000D01*
X139630000Y-106750000D02*
X143190000Y-106750000D01*
X126930000Y-109410000D02*
X130490000Y-109410000D01*
X142170000Y-109410000D02*
X145730000Y-109410000D01*
X134550000Y-106750000D02*
X138110000Y-106750000D01*
X120330000Y-109410000D02*
X120330000Y-110930000D01*
X129470000Y-106750000D02*
X133030000Y-106750000D01*
X132010000Y-109410000D02*
X135570000Y-109410000D01*
D11*
X124900000Y-111890000D02*
X119820000Y-111890000D01*
X118550000Y-111890000D02*
X119820000Y-111890000D01*
X119820000Y-119510000D02*
X118550000Y-119510000D01*
X118550000Y-119510000D02*
X118550000Y-111890000D01*
X152840000Y-118240000D02*
X150300000Y-118240000D01*
X124900000Y-119510000D02*
X124900000Y-111890000D01*
X150300000Y-118240000D02*
X150300000Y-113160000D01*
X150300000Y-113160000D02*
X152840000Y-113160000D01*
X124900000Y-119510000D02*
X119820000Y-119510000D01*
X152840000Y-113160000D02*
X152840000Y-118240000D01*
D12*
X157057500Y-83317500D02*
X163057500Y-83317500D01*
X163057500Y-83317500D02*
X163057500Y-94817500D01*
X163057500Y-94817500D02*
X157057500Y-94817500D01*
X157057500Y-94817500D02*
X157057500Y-83317500D01*
X158257500Y-80817500D02*
X161857500Y-80817500D01*
X161857500Y-80817500D02*
X161857500Y-83317500D01*
X161857500Y-83317500D02*
X158257500Y-83317500D01*
X158257500Y-83317500D02*
X158257500Y-80817500D01*
X130400000Y-116050000D02*
X130400000Y-114200000D01*
X131450000Y-116050000D02*
X130400000Y-116050000D01*
X133450000Y-116050000D02*
X132450000Y-116050000D01*
X133460000Y-116030000D02*
X133460000Y-113600000D01*
X143190000Y-96537221D02*
X143190000Y-96862779D01*
X144210000Y-96537221D02*
X144210000Y-96862779D01*
X151562779Y-90490000D02*
X151237221Y-90490000D01*
X151562779Y-91510000D02*
X151237221Y-91510000D01*
X153135000Y-98110000D02*
X153610000Y-98110000D01*
X153610000Y-92890000D02*
X153610000Y-93365000D01*
X148390000Y-92890000D02*
X148390000Y-93365000D01*
X148865000Y-92890000D02*
X148390000Y-92890000D01*
X148390000Y-98110000D02*
X148390000Y-97635000D01*
X153135000Y-92890000D02*
X153610000Y-92890000D01*
X148865000Y-98110000D02*
X148390000Y-98110000D01*
X126960000Y-124650000D02*
X130520000Y-124650000D01*
X119790000Y-121990000D02*
X122900000Y-121990000D01*
X155470000Y-124650000D02*
X155470000Y-121990000D01*
X134580000Y-121990000D02*
X138140000Y-121990000D01*
X139660000Y-121990000D02*
X143220000Y-121990000D01*
X152360000Y-124650000D02*
X155470000Y-124650000D01*
X120360000Y-124650000D02*
X120360000Y-126170000D01*
X124420000Y-121990000D02*
X127980000Y-121990000D01*
X129500000Y-121990000D02*
X133060000Y-121990000D01*
X121880000Y-124650000D02*
X125440000Y-124650000D01*
X147280000Y-124650000D02*
X150840000Y-124650000D01*
X119790000Y-124650000D02*
X119790000Y-121990000D01*
X137120000Y-124650000D02*
X140680000Y-124650000D01*
X154900000Y-121990000D02*
X155470000Y-121990000D01*
X149820000Y-121990000D02*
X153380000Y-121990000D01*
X132040000Y-124650000D02*
X135600000Y-124650000D01*
X142200000Y-124650000D02*
X145760000Y-124650000D01*
X144740000Y-121990000D02*
X148300000Y-121990000D01*
X119790000Y-124650000D02*
X120360000Y-124650000D01*
G36*
X159409258Y-96378184D02*
G01*
X159427934Y-96252281D01*
X159458860Y-96128815D01*
X159501740Y-96008975D01*
X159556159Y-95893915D01*
X159621594Y-95784743D01*
X159697415Y-95682511D01*
X159782891Y-95588202D01*
X159877200Y-95502726D01*
X159979432Y-95426905D01*
X160088604Y-95361470D01*
X160203664Y-95307051D01*
X160323504Y-95264171D01*
X160446970Y-95233245D01*
X160572873Y-95214569D01*
X160700000Y-95208323D01*
X160827127Y-95214569D01*
X160953030Y-95233245D01*
X161076496Y-95264171D01*
X161196336Y-95307051D01*
X161311396Y-95361470D01*
X161420568Y-95426905D01*
X161522800Y-95502726D01*
X161617109Y-95588202D01*
X161702585Y-95682511D01*
X161778406Y-95784743D01*
X161843841Y-95893915D01*
X161898260Y-96008975D01*
X161941140Y-96128815D01*
X161972066Y-96252281D01*
X161990742Y-96378184D01*
X161996988Y-96505311D01*
X161996988Y-103594689D01*
X161990742Y-103721816D01*
X161972066Y-103847719D01*
X161941140Y-103971185D01*
X161898260Y-104091025D01*
X161843841Y-104206085D01*
X161778406Y-104315257D01*
X161702585Y-104417489D01*
X161617109Y-104511798D01*
X161522800Y-104597274D01*
X161420568Y-104673095D01*
X161311396Y-104738530D01*
X161196336Y-104792949D01*
X161076496Y-104835829D01*
X160953030Y-104866755D01*
X160827127Y-104885431D01*
X160700000Y-104891677D01*
X160572873Y-104885431D01*
X160446970Y-104866755D01*
X160323504Y-104835829D01*
X160203664Y-104792949D01*
X160088604Y-104738530D01*
X159979432Y-104673095D01*
X159877200Y-104597274D01*
X159782891Y-104511798D01*
X159697415Y-104417489D01*
X159621594Y-104315257D01*
X159556159Y-104206085D01*
X159501740Y-104091025D01*
X159458860Y-103971185D01*
X159427934Y-103847719D01*
X159409258Y-103721816D01*
X159403012Y-103594689D01*
X159403012Y-103382559D01*
X159830844Y-103382559D01*
X159846917Y-103505194D01*
X159895137Y-103568297D01*
X159958241Y-103590919D01*
X160040394Y-103594491D01*
X161361988Y-103594491D01*
X161485813Y-103580203D01*
X161551892Y-103517100D01*
X161573919Y-103384941D01*
X161557845Y-103262306D01*
X161509625Y-103199203D01*
X161446522Y-103176581D01*
X161364369Y-103173009D01*
X161095288Y-103173009D01*
X161095288Y-102872972D01*
X161090525Y-102799153D01*
X161309865Y-102706549D01*
X161453533Y-102644636D01*
X161521531Y-102613416D01*
X161567966Y-102569363D01*
X161590588Y-102493163D01*
X161557250Y-102370528D01*
X161488194Y-102259800D01*
X161404850Y-102222891D01*
X161281025Y-102258609D01*
X161129419Y-102325284D01*
X161004800Y-102379259D01*
X160907169Y-102420534D01*
X160780698Y-102321316D01*
X160633060Y-102261784D01*
X160464256Y-102241941D01*
X160316619Y-102257419D01*
X160183269Y-102303853D01*
X160070159Y-102374100D01*
X159983244Y-102461016D01*
X159898577Y-102594101D01*
X159847777Y-102729832D01*
X159830844Y-102868209D01*
X159830844Y-103382559D01*
X159403012Y-103382559D01*
X159403012Y-101879991D01*
X159830844Y-101879991D01*
X159846917Y-102002625D01*
X159895137Y-102065728D01*
X159958241Y-102088350D01*
X160040394Y-102091922D01*
X161364369Y-102091922D01*
X161485813Y-102077634D01*
X161553678Y-102014531D01*
X161576300Y-101882372D01*
X161560227Y-101759738D01*
X161512006Y-101696634D01*
X161450094Y-101674013D01*
X161366750Y-101670441D01*
X160042775Y-101670441D01*
X159918950Y-101682347D01*
X159852870Y-101747236D01*
X159830844Y-101879991D01*
X159403012Y-101879991D01*
X159403012Y-100620309D01*
X159799887Y-100620309D01*
X159815738Y-100795331D01*
X159863288Y-100958447D01*
X159942539Y-101109656D01*
X160053491Y-101248959D01*
X160188106Y-101365641D01*
X160338348Y-101448984D01*
X160504217Y-101498991D01*
X160685712Y-101515659D01*
X160868101Y-101499288D01*
X161036649Y-101450175D01*
X161191356Y-101368320D01*
X161332222Y-101253722D01*
X161449424Y-101116949D01*
X161533140Y-100968567D01*
X161583369Y-100808577D01*
X161600113Y-100636978D01*
X161587164Y-100449455D01*
X161548320Y-100286934D01*
X161483580Y-100149417D01*
X161392944Y-100036903D01*
X161247688Y-99970228D01*
X160723813Y-99970228D01*
X160590462Y-99994041D01*
X160523787Y-100151203D01*
X160523787Y-100570303D01*
X160545219Y-100684603D01*
X160597606Y-100723894D01*
X160698809Y-100734609D01*
X160798822Y-100725084D01*
X160854781Y-100684603D01*
X160873831Y-100579828D01*
X160873831Y-100391709D01*
X161133388Y-100391709D01*
X161165534Y-100503033D01*
X161176250Y-100627453D01*
X161140234Y-100798903D01*
X161032184Y-100951303D01*
X160929261Y-101030678D01*
X160812580Y-101078303D01*
X160682141Y-101094178D01*
X160495808Y-101059055D01*
X160348766Y-100953684D01*
X160253218Y-100803070D01*
X160221369Y-100632216D01*
X160237740Y-100503628D01*
X160286853Y-100394091D01*
X160352337Y-100248834D01*
X160320786Y-100168467D01*
X160226131Y-100079766D01*
X160091591Y-100024997D01*
X159985625Y-100089291D01*
X159882437Y-100259418D01*
X159820525Y-100436424D01*
X159799887Y-100620309D01*
X159403012Y-100620309D01*
X159403012Y-99567797D01*
X159830844Y-99567797D01*
X159846917Y-99690431D01*
X159895137Y-99753534D01*
X159958241Y-99776156D01*
X160040394Y-99779728D01*
X161361988Y-99779728D01*
X161485813Y-99765441D01*
X161551892Y-99702338D01*
X161573919Y-99570178D01*
X161557845Y-99447544D01*
X161509625Y-99384441D01*
X161446522Y-99361819D01*
X161364369Y-99358247D01*
X160878594Y-99358247D01*
X160878594Y-98727216D01*
X161361988Y-98727216D01*
X161485813Y-98712928D01*
X161551892Y-98649825D01*
X161573919Y-98517666D01*
X161557845Y-98395031D01*
X161509625Y-98331928D01*
X161446522Y-98309306D01*
X161364369Y-98305734D01*
X160042775Y-98305734D01*
X159918950Y-98317641D01*
X159871325Y-98350978D01*
X159842750Y-98412891D01*
X159830844Y-98522428D01*
X159845131Y-98636728D01*
X159895137Y-98701022D01*
X159958241Y-98723644D01*
X160040394Y-98727216D01*
X160528550Y-98727216D01*
X160528550Y-99358247D01*
X160042775Y-99358247D01*
X159918950Y-99370153D01*
X159852870Y-99435042D01*
X159830844Y-99567797D01*
X159403012Y-99567797D01*
X159403012Y-98000934D01*
X159828462Y-98000934D01*
X159849894Y-98122378D01*
X159901091Y-98162859D01*
X159999912Y-98174766D01*
X160099925Y-98162859D01*
X160155884Y-98115234D01*
X160173744Y-98003316D01*
X160173744Y-97546116D01*
X161369131Y-97546116D01*
X161451284Y-97542544D01*
X161513197Y-97521113D01*
X161562013Y-97459200D01*
X161576300Y-97341328D01*
X161562013Y-97222266D01*
X161513197Y-97159163D01*
X161452475Y-97137731D01*
X161371513Y-97134159D01*
X160173744Y-97134159D01*
X160173744Y-96679341D01*
X160152312Y-96557897D01*
X160101116Y-96517416D01*
X160002294Y-96505509D01*
X159902281Y-96517416D01*
X159846322Y-96565041D01*
X159828462Y-96676959D01*
X159828462Y-98000934D01*
X159403012Y-98000934D01*
X159403012Y-96505311D01*
X159409258Y-96378184D01*
G37*
G36*
X160621419Y-102730097D02*
G01*
X160673806Y-102868209D01*
X160673806Y-103173009D01*
X160252325Y-103173009D01*
X160252325Y-102872972D01*
X160305903Y-102730097D01*
X160464256Y-102661041D01*
X160621419Y-102730097D01*
G37*
G36*
X161814675Y-113346564D02*
G01*
X161796376Y-113469924D01*
X161766074Y-113590897D01*
X161724060Y-113708316D01*
X161670740Y-113821053D01*
X161606626Y-113928020D01*
X161532337Y-114028188D01*
X161448587Y-114120592D01*
X161356183Y-114204342D01*
X161256015Y-114278631D01*
X161149048Y-114342745D01*
X161036312Y-114396065D01*
X160918892Y-114438078D01*
X160797920Y-114468380D01*
X160674560Y-114486679D01*
X160550000Y-114492798D01*
X160425440Y-114486679D01*
X160302080Y-114468380D01*
X160181108Y-114438078D01*
X160063688Y-114396065D01*
X159950952Y-114342745D01*
X159843985Y-114278631D01*
X159743817Y-114204342D01*
X159651413Y-114120592D01*
X159567663Y-114028188D01*
X159493374Y-113928020D01*
X159429260Y-113821053D01*
X159375940Y-113708316D01*
X159333926Y-113590897D01*
X159303624Y-113469924D01*
X159285325Y-113346564D01*
X159279206Y-113222005D01*
X159279206Y-113009875D01*
X159678462Y-113009875D01*
X159694536Y-113132509D01*
X159742756Y-113195613D01*
X159805859Y-113218234D01*
X159888012Y-113221806D01*
X161211988Y-113221806D01*
X161333431Y-113207519D01*
X161401297Y-113144416D01*
X161423919Y-113012256D01*
X161423919Y-112155006D01*
X161400106Y-112031181D01*
X161347719Y-111990700D01*
X161246516Y-111978794D01*
X161145313Y-111990700D01*
X161089353Y-112038325D01*
X161071494Y-112152625D01*
X161071494Y-112800325D01*
X159890394Y-112800325D01*
X159766569Y-112812231D01*
X159700489Y-112877120D01*
X159678462Y-113009875D01*
X159279206Y-113009875D01*
X159279206Y-111607319D01*
X159678462Y-111607319D01*
X159722516Y-111778769D01*
X159888012Y-111824013D01*
X161211988Y-111824013D01*
X161333431Y-111809725D01*
X161401297Y-111746622D01*
X161423919Y-111614463D01*
X161423919Y-110671488D01*
X161409631Y-110547663D01*
X161346528Y-110481583D01*
X161214369Y-110459556D01*
X161091734Y-110475630D01*
X161028631Y-110523850D01*
X161006009Y-110586953D01*
X161002438Y-110669106D01*
X161002438Y-111402531D01*
X160761931Y-111402531D01*
X160761931Y-110935806D01*
X160747644Y-110811981D01*
X160684541Y-110744116D01*
X160552381Y-110721494D01*
X160429747Y-110737567D01*
X160366644Y-110785788D01*
X160344022Y-110848891D01*
X160340450Y-110931044D01*
X160340450Y-111402531D01*
X160099944Y-111402531D01*
X160099944Y-110671488D01*
X160085656Y-110547663D01*
X160022553Y-110481583D01*
X159890394Y-110459556D01*
X159767759Y-110475630D01*
X159704656Y-110523850D01*
X159682034Y-110586953D01*
X159678462Y-110669106D01*
X159678462Y-111607319D01*
X159279206Y-111607319D01*
X159279206Y-110088081D01*
X159678462Y-110088081D01*
X159722516Y-110259531D01*
X159888012Y-110304775D01*
X161211988Y-110304775D01*
X161333431Y-110290488D01*
X161401297Y-110227384D01*
X161423919Y-110095225D01*
X161407845Y-109972591D01*
X161359625Y-109909488D01*
X161297713Y-109886866D01*
X161214369Y-109883294D01*
X160764313Y-109883294D01*
X160764313Y-109416569D01*
X160752406Y-109295125D01*
X160687517Y-109227259D01*
X160554763Y-109204638D01*
X160431533Y-109220116D01*
X160366644Y-109266550D01*
X160344022Y-109329653D01*
X160340450Y-109414188D01*
X160340450Y-109883294D01*
X160099944Y-109883294D01*
X160099944Y-109154631D01*
X160096372Y-109070097D01*
X160074941Y-109006994D01*
X160011837Y-108956988D01*
X159890394Y-108942700D01*
X159768950Y-108956988D01*
X159704656Y-109005803D01*
X159682034Y-109067716D01*
X159678462Y-109149869D01*
X159678462Y-110088081D01*
X159279206Y-110088081D01*
X159279206Y-108673619D01*
X159676081Y-108673619D01*
X159697512Y-108795063D01*
X159748709Y-108835544D01*
X159847531Y-108847450D01*
X159947544Y-108835544D01*
X160003503Y-108787919D01*
X160021362Y-108676000D01*
X160021362Y-108218800D01*
X161216750Y-108218800D01*
X161298903Y-108215228D01*
X161360816Y-108193797D01*
X161409631Y-108131884D01*
X161423919Y-108014013D01*
X161409631Y-107894950D01*
X161360816Y-107831847D01*
X161300094Y-107810416D01*
X161219131Y-107806844D01*
X160021362Y-107806844D01*
X160021362Y-107352025D01*
X159999931Y-107230581D01*
X159948734Y-107190100D01*
X159849912Y-107178194D01*
X159749900Y-107190100D01*
X159693941Y-107237725D01*
X159676081Y-107349644D01*
X159676081Y-108673619D01*
X159279206Y-108673619D01*
X159279206Y-107177995D01*
X159285325Y-107053436D01*
X159303624Y-106930076D01*
X159333926Y-106809103D01*
X159375940Y-106691684D01*
X159429260Y-106578947D01*
X159493374Y-106471980D01*
X159567663Y-106371812D01*
X159651413Y-106279408D01*
X159743817Y-106195658D01*
X159843985Y-106121369D01*
X159950952Y-106057255D01*
X160063688Y-106003935D01*
X160181108Y-105961922D01*
X160302080Y-105931620D01*
X160425440Y-105913321D01*
X160550000Y-105907202D01*
X160674560Y-105913321D01*
X160797920Y-105931620D01*
X160918892Y-105961922D01*
X161036312Y-106003935D01*
X161149048Y-106057255D01*
X161256015Y-106121369D01*
X161356183Y-106195658D01*
X161448587Y-106279408D01*
X161532337Y-106371812D01*
X161606626Y-106471980D01*
X161670740Y-106578947D01*
X161724060Y-106691684D01*
X161766074Y-106809103D01*
X161796376Y-106930076D01*
X161814675Y-107053436D01*
X161820794Y-107177995D01*
X161820794Y-113222005D01*
X161814675Y-113346564D01*
G37*
M02*
