G04 #@! TF.GenerationSoftware,KiCad,Pcbnew,(5.99.0-11678-ga208dac8d8)*
G04 #@! TF.CreationDate,2021-09-01T19:56:06-04:00*
G04 #@! TF.ProjectId,Audio_teensy,41756469-6f5f-4746-9565-6e73792e6b69,1.1*
G04 #@! TF.SameCoordinates,Original*
G04 #@! TF.FileFunction,Copper,L2,Bot*
G04 #@! TF.FilePolarity,Positive*
%FSLAX46Y46*%
G04 Gerber Fmt 4.6, Leading zero omitted, Abs format (unit mm)*
G04 Created by KiCad (PCBNEW (5.99.0-11678-ga208dac8d8)) date 2021-09-01 19:56:06*
%MOMM*%
%LPD*%
G01*
G04 APERTURE LIST*
G04 #@! TA.AperFunction,ComponentPad*
%ADD10C,1.500000*%
G04 #@! TD*
G04 #@! TA.AperFunction,ComponentPad*
%ADD11R,1.500000X1.500000*%
G04 #@! TD*
G04 #@! TA.AperFunction,ComponentPad*
%ADD12O,1.350000X2.250000*%
G04 #@! TD*
G04 #@! TA.AperFunction,ComponentPad*
%ADD13O,1.350000X2.750000*%
G04 #@! TD*
G04 #@! TA.AperFunction,ViaPad*
%ADD14C,0.800000*%
G04 #@! TD*
G04 #@! TA.AperFunction,Conductor*
%ADD15C,0.254000*%
G04 #@! TD*
G04 APERTURE END LIST*
D10*
X123265000Y-99880000D03*
X124535000Y-97340000D03*
X125805000Y-99880000D03*
X127075000Y-97340000D03*
X128345000Y-99880000D03*
X129615000Y-97340000D03*
X130885000Y-99880000D03*
D11*
X132155000Y-97340000D03*
D12*
X162257500Y-93917500D03*
D13*
X157557500Y-85217500D03*
X157557500Y-92117500D03*
D12*
X157857500Y-116082500D03*
D13*
X162557500Y-124782500D03*
X162557500Y-117882500D03*
D14*
X148150000Y-91300000D03*
X146100000Y-109100000D03*
X146125000Y-98150000D03*
X158200000Y-108000000D03*
X153100000Y-113200000D03*
X142800000Y-107400000D03*
X143600000Y-101300000D03*
X141500000Y-104200000D03*
X139340510Y-102026500D03*
X137500000Y-101300000D03*
X152100000Y-101900000D03*
X148200000Y-98900000D03*
X148000000Y-104800000D03*
X147300000Y-96023500D03*
X154700000Y-96200000D03*
D15*
X146125000Y-109075000D02*
X146100000Y-109100000D01*
X146125000Y-98150000D02*
X146125000Y-109075000D01*
X147300000Y-104100000D02*
X148000000Y-104800000D01*
X147300000Y-96023500D02*
X147300000Y-104100000D01*
X143600000Y-101300000D02*
X143600000Y-106600000D01*
X143600000Y-106600000D02*
X142800000Y-107400000D01*
X137500000Y-101300000D02*
X143600000Y-101300000D01*
X141500000Y-104185990D02*
X141500000Y-104200000D01*
X139340510Y-102026500D02*
X141500000Y-104185990D01*
X151200000Y-101900000D02*
X148200000Y-98900000D01*
X152100000Y-101900000D02*
X151200000Y-101900000D01*
X154700000Y-96200000D02*
X154700000Y-99300000D01*
X154700000Y-99300000D02*
X155500000Y-100100000D01*
X154700000Y-96200000D02*
X154700000Y-88075000D01*
X154700000Y-88075000D02*
X157557500Y-85217500D01*
X162557500Y-124482500D02*
X162557500Y-123657500D01*
X162557500Y-123657500D02*
X155500000Y-116600000D01*
X155500000Y-116600000D02*
X155500000Y-100100000D01*
G04 #@! TA.AperFunction,Conductor*
G36*
X156452839Y-83828002D02*
G01*
X156499332Y-83881658D01*
X156509436Y-83951932D01*
X156496226Y-83992668D01*
X156459405Y-84062654D01*
X156394903Y-84270382D01*
X156374000Y-84446990D01*
X156374000Y-85450077D01*
X156353998Y-85518198D01*
X156337095Y-85539172D01*
X154306517Y-87569750D01*
X154298191Y-87577326D01*
X154291697Y-87581447D01*
X154286274Y-87587222D01*
X154244915Y-87631265D01*
X154242160Y-87634107D01*
X154222361Y-87653906D01*
X154219937Y-87657031D01*
X154219929Y-87657040D01*
X154219863Y-87657126D01*
X154212155Y-87666151D01*
X154181783Y-87698494D01*
X154177965Y-87705438D01*
X154177964Y-87705440D01*
X154171978Y-87716329D01*
X154161127Y-87732847D01*
X154148650Y-87748933D01*
X154131024Y-87789666D01*
X154125807Y-87800314D01*
X154104431Y-87839197D01*
X154102460Y-87846872D01*
X154102458Y-87846878D01*
X154099369Y-87858911D01*
X154092966Y-87877613D01*
X154084883Y-87896292D01*
X154083644Y-87904117D01*
X154077940Y-87940127D01*
X154075535Y-87951740D01*
X154064500Y-87994718D01*
X154064500Y-88015065D01*
X154062949Y-88034776D01*
X154059765Y-88054879D01*
X154060511Y-88062771D01*
X154063941Y-88099056D01*
X154064500Y-88110914D01*
X154064500Y-95499697D01*
X154044498Y-95567818D01*
X154032136Y-95584006D01*
X153960960Y-95663056D01*
X153865473Y-95828444D01*
X153806458Y-96010072D01*
X153805768Y-96016633D01*
X153805768Y-96016635D01*
X153798951Y-96081500D01*
X153786496Y-96200000D01*
X153787186Y-96206565D01*
X153805010Y-96376148D01*
X153806458Y-96389928D01*
X153865473Y-96571556D01*
X153960960Y-96736944D01*
X153965378Y-96741851D01*
X153965379Y-96741852D01*
X154032136Y-96815993D01*
X154062854Y-96880000D01*
X154064500Y-96900303D01*
X154064500Y-99220980D01*
X154063970Y-99232214D01*
X154062292Y-99239719D01*
X154062541Y-99247638D01*
X154064438Y-99308012D01*
X154064500Y-99311969D01*
X154064500Y-99339983D01*
X154064996Y-99343908D01*
X154064996Y-99343909D01*
X154065008Y-99344004D01*
X154065941Y-99355849D01*
X154067335Y-99400205D01*
X154069547Y-99407817D01*
X154073013Y-99419748D01*
X154077023Y-99439112D01*
X154079573Y-99459299D01*
X154082489Y-99466663D01*
X154082490Y-99466668D01*
X154095907Y-99500556D01*
X154099752Y-99511785D01*
X154112131Y-99554393D01*
X154116169Y-99561220D01*
X154116170Y-99561223D01*
X154122488Y-99571906D01*
X154131188Y-99589664D01*
X154135761Y-99601215D01*
X154135765Y-99601221D01*
X154138681Y-99608588D01*
X154143339Y-99614999D01*
X154143340Y-99615001D01*
X154164764Y-99644488D01*
X154171281Y-99654410D01*
X154189826Y-99685768D01*
X154189829Y-99685772D01*
X154193866Y-99692598D01*
X154208250Y-99706982D01*
X154221091Y-99722016D01*
X154233058Y-99738487D01*
X154253638Y-99755512D01*
X154267250Y-99766773D01*
X154276031Y-99774763D01*
X154827596Y-100326329D01*
X154861621Y-100388641D01*
X154864500Y-100415424D01*
X154864500Y-116520980D01*
X154863970Y-116532214D01*
X154862292Y-116539719D01*
X154862541Y-116547638D01*
X154864438Y-116608012D01*
X154864500Y-116611969D01*
X154864500Y-116639983D01*
X154864996Y-116643908D01*
X154864996Y-116643909D01*
X154865008Y-116644004D01*
X154865941Y-116655849D01*
X154867335Y-116700205D01*
X154869547Y-116707817D01*
X154873013Y-116719748D01*
X154877023Y-116739112D01*
X154878285Y-116749100D01*
X154879573Y-116759299D01*
X154882489Y-116766663D01*
X154882490Y-116766668D01*
X154895907Y-116800556D01*
X154899752Y-116811785D01*
X154912131Y-116854393D01*
X154916169Y-116861220D01*
X154916170Y-116861223D01*
X154922488Y-116871906D01*
X154931188Y-116889664D01*
X154935761Y-116901215D01*
X154935765Y-116901221D01*
X154938681Y-116908588D01*
X154943339Y-116914999D01*
X154943340Y-116915001D01*
X154964764Y-116944488D01*
X154971281Y-116954410D01*
X154989826Y-116985768D01*
X154989829Y-116985772D01*
X154993866Y-116992598D01*
X155008250Y-117006982D01*
X155021091Y-117022016D01*
X155033058Y-117038487D01*
X155039166Y-117043540D01*
X155067255Y-117066777D01*
X155076035Y-117074767D01*
X160831038Y-122829770D01*
X160865064Y-122892082D01*
X160859999Y-122962897D01*
X160817452Y-123019733D01*
X160750932Y-123044544D01*
X160688693Y-123033060D01*
X160511726Y-122950539D01*
X160511720Y-122950537D01*
X160506743Y-122948216D01*
X160501435Y-122946794D01*
X160501433Y-122946793D01*
X160290902Y-122890381D01*
X160290900Y-122890381D01*
X160285587Y-122888957D01*
X160186020Y-122880246D01*
X160117351Y-122874238D01*
X160117344Y-122874238D01*
X160114627Y-122874000D01*
X160000373Y-122874000D01*
X159997656Y-122874238D01*
X159997649Y-122874238D01*
X159928980Y-122880246D01*
X159829413Y-122888957D01*
X159824100Y-122890381D01*
X159824098Y-122890381D01*
X159613567Y-122946793D01*
X159613565Y-122946794D01*
X159608257Y-122948216D01*
X159603276Y-122950539D01*
X159603275Y-122950539D01*
X159405738Y-123042651D01*
X159405733Y-123042654D01*
X159400751Y-123044977D01*
X159295889Y-123118402D01*
X159217711Y-123173143D01*
X159217708Y-123173145D01*
X159213200Y-123176302D01*
X159051302Y-123338200D01*
X159048145Y-123342708D01*
X159048143Y-123342711D01*
X159001754Y-123408962D01*
X158919977Y-123525751D01*
X158917654Y-123530733D01*
X158917651Y-123530738D01*
X158892779Y-123584077D01*
X158823216Y-123733257D01*
X158763957Y-123954413D01*
X158744002Y-124182500D01*
X158763957Y-124410587D01*
X158823216Y-124631743D01*
X158825539Y-124636724D01*
X158825539Y-124636725D01*
X158917651Y-124834262D01*
X158917654Y-124834267D01*
X158919977Y-124839249D01*
X158923134Y-124843757D01*
X159020818Y-124983264D01*
X159051302Y-125026800D01*
X159213200Y-125188698D01*
X159217708Y-125191855D01*
X159217711Y-125191857D01*
X159295889Y-125246598D01*
X159400751Y-125320023D01*
X159405733Y-125322346D01*
X159405738Y-125322349D01*
X159603275Y-125414461D01*
X159608257Y-125416784D01*
X159613565Y-125418206D01*
X159613567Y-125418207D01*
X159824098Y-125474619D01*
X159824100Y-125474619D01*
X159829413Y-125476043D01*
X159928980Y-125484754D01*
X159997649Y-125490762D01*
X159997656Y-125490762D01*
X160000373Y-125491000D01*
X160114627Y-125491000D01*
X160117344Y-125490762D01*
X160117351Y-125490762D01*
X160186020Y-125484754D01*
X160285587Y-125476043D01*
X160290900Y-125474619D01*
X160290902Y-125474619D01*
X160501433Y-125418207D01*
X160501435Y-125418206D01*
X160506743Y-125416784D01*
X160511725Y-125414461D01*
X160709262Y-125322349D01*
X160709267Y-125322346D01*
X160714249Y-125320023D01*
X160819111Y-125246598D01*
X160897289Y-125191857D01*
X160897292Y-125191855D01*
X160901800Y-125188698D01*
X161063698Y-125026800D01*
X161144787Y-124910993D01*
X161200244Y-124866665D01*
X161270863Y-124859356D01*
X161334224Y-124891387D01*
X161370209Y-124952588D01*
X161374000Y-124983264D01*
X161374000Y-125537676D01*
X161388833Y-125699100D01*
X161447874Y-125908445D01*
X161522748Y-126060274D01*
X161534937Y-126130214D01*
X161507378Y-126195643D01*
X161448820Y-126235787D01*
X161409741Y-126242000D01*
X120334000Y-126242000D01*
X120265879Y-126221998D01*
X120219386Y-126168342D01*
X120208000Y-126116000D01*
X120208000Y-117326918D01*
X138702917Y-117326918D01*
X138718682Y-117600320D01*
X138719507Y-117604525D01*
X138719508Y-117604533D01*
X138719656Y-117605286D01*
X138771405Y-117869053D01*
X138772792Y-117873103D01*
X138772793Y-117873108D01*
X138858723Y-118124088D01*
X138860112Y-118128144D01*
X138983160Y-118372799D01*
X138985586Y-118376328D01*
X138985589Y-118376334D01*
X139135843Y-118594953D01*
X139138274Y-118598490D01*
X139141161Y-118601663D01*
X139141162Y-118601664D01*
X139312713Y-118790197D01*
X139322582Y-118801043D01*
X139532675Y-118976707D01*
X139536316Y-118978991D01*
X139761024Y-119119951D01*
X139761028Y-119119953D01*
X139764664Y-119122234D01*
X139832544Y-119152883D01*
X140010345Y-119233164D01*
X140010349Y-119233166D01*
X140014257Y-119234930D01*
X140018377Y-119236150D01*
X140018376Y-119236150D01*
X140272723Y-119311491D01*
X140272727Y-119311492D01*
X140276836Y-119312709D01*
X140281070Y-119313357D01*
X140281075Y-119313358D01*
X140543298Y-119353483D01*
X140543300Y-119353483D01*
X140547540Y-119354132D01*
X140686912Y-119356322D01*
X140817071Y-119358367D01*
X140817077Y-119358367D01*
X140821362Y-119358434D01*
X141093235Y-119325534D01*
X141358127Y-119256041D01*
X141362087Y-119254401D01*
X141362092Y-119254399D01*
X141497417Y-119198345D01*
X141611136Y-119151241D01*
X141847582Y-119013073D01*
X142063089Y-118844094D01*
X142067785Y-118839249D01*
X142250686Y-118650509D01*
X142253669Y-118647431D01*
X142256202Y-118643983D01*
X142256206Y-118643978D01*
X142413257Y-118430178D01*
X142415795Y-118426723D01*
X142443154Y-118376334D01*
X142544418Y-118189830D01*
X142544419Y-118189828D01*
X142546468Y-118186054D01*
X142643269Y-117929877D01*
X142691931Y-117717406D01*
X142703449Y-117667117D01*
X142703450Y-117667113D01*
X142704407Y-117662933D01*
X142709374Y-117607285D01*
X142728531Y-117392627D01*
X142728531Y-117392625D01*
X142728751Y-117390161D01*
X142729193Y-117348000D01*
X142729024Y-117345519D01*
X142710859Y-117079055D01*
X142710858Y-117079049D01*
X142710567Y-117074778D01*
X142704396Y-117044977D01*
X142676150Y-116908588D01*
X142655032Y-116806612D01*
X142563617Y-116548465D01*
X142524036Y-116471778D01*
X142439978Y-116308919D01*
X142439978Y-116308918D01*
X142438013Y-116305112D01*
X142428040Y-116290921D01*
X142283008Y-116084562D01*
X142280545Y-116081057D01*
X142094125Y-115880445D01*
X142090810Y-115877731D01*
X142090806Y-115877728D01*
X141885523Y-115709706D01*
X141882205Y-115706990D01*
X141675338Y-115580222D01*
X141652366Y-115566145D01*
X141652365Y-115566145D01*
X141648704Y-115563901D01*
X141644351Y-115561990D01*
X141401873Y-115455549D01*
X141401869Y-115455548D01*
X141397945Y-115453825D01*
X141134566Y-115378800D01*
X141130324Y-115378196D01*
X141130318Y-115378195D01*
X140929834Y-115349662D01*
X140863443Y-115340213D01*
X140719589Y-115339460D01*
X140593877Y-115338802D01*
X140593871Y-115338802D01*
X140589591Y-115338780D01*
X140585347Y-115339339D01*
X140585343Y-115339339D01*
X140466302Y-115355011D01*
X140318078Y-115374525D01*
X140313938Y-115375658D01*
X140313936Y-115375658D01*
X140278391Y-115385382D01*
X140053928Y-115446788D01*
X140049980Y-115448472D01*
X139805982Y-115552546D01*
X139805978Y-115552548D01*
X139802030Y-115554232D01*
X139763446Y-115577324D01*
X139570725Y-115692664D01*
X139570721Y-115692667D01*
X139567043Y-115694868D01*
X139353318Y-115866094D01*
X139336717Y-115883588D01*
X139186628Y-116041749D01*
X139164808Y-116064742D01*
X139005002Y-116287136D01*
X138876857Y-116529161D01*
X138875385Y-116533184D01*
X138875383Y-116533188D01*
X138789941Y-116766668D01*
X138782743Y-116786337D01*
X138724404Y-117053907D01*
X138702917Y-117326918D01*
X120208000Y-117326918D01*
X120208000Y-109100000D01*
X145186496Y-109100000D01*
X145206458Y-109289928D01*
X145265473Y-109471556D01*
X145360960Y-109636944D01*
X145488747Y-109778866D01*
X145643248Y-109891118D01*
X145649276Y-109893802D01*
X145649278Y-109893803D01*
X145811681Y-109966109D01*
X145817712Y-109968794D01*
X145911112Y-109988647D01*
X145998056Y-110007128D01*
X145998061Y-110007128D01*
X146004513Y-110008500D01*
X146195487Y-110008500D01*
X146201939Y-110007128D01*
X146201944Y-110007128D01*
X146288887Y-109988647D01*
X146382288Y-109968794D01*
X146388319Y-109966109D01*
X146550722Y-109893803D01*
X146550724Y-109893802D01*
X146556752Y-109891118D01*
X146711253Y-109778866D01*
X146839040Y-109636944D01*
X146934527Y-109471556D01*
X146993542Y-109289928D01*
X147013504Y-109100000D01*
X146993542Y-108910072D01*
X146934527Y-108728444D01*
X146839040Y-108563056D01*
X146792862Y-108511770D01*
X146762146Y-108447764D01*
X146760500Y-108427462D01*
X146760500Y-104763422D01*
X146780502Y-104695301D01*
X146834158Y-104648808D01*
X146904432Y-104638704D01*
X146969012Y-104668198D01*
X146975595Y-104674327D01*
X147053210Y-104751942D01*
X147087236Y-104814254D01*
X147089425Y-104827865D01*
X147106458Y-104989928D01*
X147165473Y-105171556D01*
X147260960Y-105336944D01*
X147388747Y-105478866D01*
X147543248Y-105591118D01*
X147549276Y-105593802D01*
X147549278Y-105593803D01*
X147711681Y-105666109D01*
X147717712Y-105668794D01*
X147811112Y-105688647D01*
X147898056Y-105707128D01*
X147898061Y-105707128D01*
X147904513Y-105708500D01*
X148095487Y-105708500D01*
X148101939Y-105707128D01*
X148101944Y-105707128D01*
X148188888Y-105688647D01*
X148282288Y-105668794D01*
X148288319Y-105666109D01*
X148450722Y-105593803D01*
X148450724Y-105593802D01*
X148456752Y-105591118D01*
X148611253Y-105478866D01*
X148739040Y-105336944D01*
X148834527Y-105171556D01*
X148893542Y-104989928D01*
X148913504Y-104800000D01*
X148908453Y-104751942D01*
X148894232Y-104616635D01*
X148894232Y-104616633D01*
X148893542Y-104610072D01*
X148834527Y-104428444D01*
X148739040Y-104263056D01*
X148611253Y-104121134D01*
X148456752Y-104008882D01*
X148450724Y-104006198D01*
X148450722Y-104006197D01*
X148288319Y-103933891D01*
X148288318Y-103933891D01*
X148282288Y-103931206D01*
X148188888Y-103911353D01*
X148101944Y-103892872D01*
X148101939Y-103892872D01*
X148095487Y-103891500D01*
X148061500Y-103891500D01*
X147993379Y-103871498D01*
X147946886Y-103817842D01*
X147935500Y-103765500D01*
X147935500Y-99928173D01*
X147955502Y-99860052D01*
X148009158Y-99813559D01*
X148079432Y-99803455D01*
X148087694Y-99804926D01*
X148098049Y-99807127D01*
X148098058Y-99807128D01*
X148104513Y-99808500D01*
X148157578Y-99808500D01*
X148225699Y-99828502D01*
X148246673Y-99845405D01*
X149505061Y-101103794D01*
X150694750Y-102293483D01*
X150702326Y-102301809D01*
X150706447Y-102308303D01*
X150712222Y-102313726D01*
X150756265Y-102355085D01*
X150759107Y-102357840D01*
X150778906Y-102377639D01*
X150782031Y-102380063D01*
X150782040Y-102380071D01*
X150782126Y-102380137D01*
X150791151Y-102387845D01*
X150823494Y-102418217D01*
X150830438Y-102422035D01*
X150830440Y-102422036D01*
X150841329Y-102428022D01*
X150857847Y-102438873D01*
X150873933Y-102451350D01*
X150914666Y-102468976D01*
X150925314Y-102474193D01*
X150964197Y-102495569D01*
X150971872Y-102497540D01*
X150971878Y-102497542D01*
X150983911Y-102500631D01*
X151002613Y-102507034D01*
X151021292Y-102515117D01*
X151055128Y-102520476D01*
X151065127Y-102522060D01*
X151076740Y-102524465D01*
X151119718Y-102535500D01*
X151140065Y-102535500D01*
X151159777Y-102537051D01*
X151179879Y-102540235D01*
X151187771Y-102539489D01*
X151224056Y-102536059D01*
X151235914Y-102535500D01*
X151393601Y-102535500D01*
X151461722Y-102555502D01*
X151478908Y-102570109D01*
X151479420Y-102569540D01*
X151484332Y-102573963D01*
X151488747Y-102578866D01*
X151643248Y-102691118D01*
X151649276Y-102693802D01*
X151649278Y-102693803D01*
X151683971Y-102709249D01*
X151817712Y-102768794D01*
X151911113Y-102788647D01*
X151998056Y-102807128D01*
X151998061Y-102807128D01*
X152004513Y-102808500D01*
X152195487Y-102808500D01*
X152201939Y-102807128D01*
X152201944Y-102807128D01*
X152288887Y-102788647D01*
X152382288Y-102768794D01*
X152516029Y-102709249D01*
X152550722Y-102693803D01*
X152550724Y-102693802D01*
X152556752Y-102691118D01*
X152711253Y-102578866D01*
X152732290Y-102555502D01*
X152834621Y-102441852D01*
X152834622Y-102441851D01*
X152839040Y-102436944D01*
X152918246Y-102299756D01*
X152931223Y-102277279D01*
X152931224Y-102277278D01*
X152934527Y-102271556D01*
X152993542Y-102089928D01*
X153000209Y-102026500D01*
X153012814Y-101906565D01*
X153013504Y-101900000D01*
X153012814Y-101893435D01*
X152994232Y-101716635D01*
X152994232Y-101716633D01*
X152993542Y-101710072D01*
X152934527Y-101528444D01*
X152839040Y-101363056D01*
X152711253Y-101221134D01*
X152604134Y-101143307D01*
X152562094Y-101112763D01*
X152562093Y-101112762D01*
X152556752Y-101108882D01*
X152550724Y-101106198D01*
X152550722Y-101106197D01*
X152388319Y-101033891D01*
X152388318Y-101033891D01*
X152382288Y-101031206D01*
X152288888Y-101011353D01*
X152201944Y-100992872D01*
X152201939Y-100992872D01*
X152195487Y-100991500D01*
X152004513Y-100991500D01*
X151998061Y-100992872D01*
X151998056Y-100992872D01*
X151911112Y-101011353D01*
X151817712Y-101031206D01*
X151811682Y-101033891D01*
X151811681Y-101033891D01*
X151649278Y-101106197D01*
X151649276Y-101106198D01*
X151643248Y-101108882D01*
X151637907Y-101112762D01*
X151637906Y-101112763D01*
X151535913Y-101186865D01*
X151469045Y-101210724D01*
X151399893Y-101194643D01*
X151372757Y-101174024D01*
X149146790Y-98948057D01*
X149112764Y-98885745D01*
X149110575Y-98872132D01*
X149094232Y-98716635D01*
X149094232Y-98716633D01*
X149093542Y-98710072D01*
X149034527Y-98528444D01*
X148939040Y-98363056D01*
X148918216Y-98339928D01*
X148815675Y-98226045D01*
X148815674Y-98226044D01*
X148811253Y-98221134D01*
X148656752Y-98108882D01*
X148650724Y-98106198D01*
X148650722Y-98106197D01*
X148488319Y-98033891D01*
X148488318Y-98033891D01*
X148482288Y-98031206D01*
X148388888Y-98011353D01*
X148301944Y-97992872D01*
X148301939Y-97992872D01*
X148295487Y-97991500D01*
X148104513Y-97991500D01*
X148098058Y-97992872D01*
X148098049Y-97992873D01*
X148087694Y-97995074D01*
X148016904Y-97989671D01*
X147960272Y-97946853D01*
X147935780Y-97880215D01*
X147935500Y-97871827D01*
X147935500Y-96723803D01*
X147955502Y-96655682D01*
X147967864Y-96639493D01*
X148034621Y-96565352D01*
X148034622Y-96565351D01*
X148039040Y-96560444D01*
X148134527Y-96395056D01*
X148193542Y-96213428D01*
X148194264Y-96206565D01*
X148212814Y-96030065D01*
X148213504Y-96023500D01*
X148193542Y-95833572D01*
X148134527Y-95651944D01*
X148039040Y-95486556D01*
X147997379Y-95440286D01*
X147915675Y-95349545D01*
X147915674Y-95349544D01*
X147911253Y-95344634D01*
X147756752Y-95232382D01*
X147750724Y-95229698D01*
X147750722Y-95229697D01*
X147588319Y-95157391D01*
X147588318Y-95157391D01*
X147582288Y-95154706D01*
X147488888Y-95134853D01*
X147401944Y-95116372D01*
X147401939Y-95116372D01*
X147395487Y-95115000D01*
X147204513Y-95115000D01*
X147198061Y-95116372D01*
X147198056Y-95116372D01*
X147111112Y-95134853D01*
X147017712Y-95154706D01*
X147011682Y-95157391D01*
X147011681Y-95157391D01*
X146849278Y-95229697D01*
X146849276Y-95229698D01*
X146843248Y-95232382D01*
X146688747Y-95344634D01*
X146684326Y-95349544D01*
X146684325Y-95349545D01*
X146602622Y-95440286D01*
X146560960Y-95486556D01*
X146465473Y-95651944D01*
X146406458Y-95833572D01*
X146386496Y-96023500D01*
X146387186Y-96030065D01*
X146405737Y-96206565D01*
X146406458Y-96213428D01*
X146465473Y-96395056D01*
X146560960Y-96560444D01*
X146565378Y-96565351D01*
X146565379Y-96565352D01*
X146632136Y-96639493D01*
X146662854Y-96703500D01*
X146664500Y-96723803D01*
X146664500Y-97201701D01*
X146644498Y-97269822D01*
X146590842Y-97316315D01*
X146520568Y-97326419D01*
X146487253Y-97316809D01*
X146407288Y-97281206D01*
X146313888Y-97261353D01*
X146226944Y-97242872D01*
X146226939Y-97242872D01*
X146220487Y-97241500D01*
X146029513Y-97241500D01*
X146023061Y-97242872D01*
X146023056Y-97242872D01*
X145936112Y-97261353D01*
X145842712Y-97281206D01*
X145836682Y-97283891D01*
X145836681Y-97283891D01*
X145674278Y-97356197D01*
X145674276Y-97356198D01*
X145668248Y-97358882D01*
X145513747Y-97471134D01*
X145509326Y-97476044D01*
X145509325Y-97476045D01*
X145439230Y-97553894D01*
X145385960Y-97613056D01*
X145382659Y-97618774D01*
X145294150Y-97772076D01*
X145290473Y-97778444D01*
X145231458Y-97960072D01*
X145230768Y-97966633D01*
X145230768Y-97966635D01*
X145223971Y-98031305D01*
X145211496Y-98150000D01*
X145212186Y-98156565D01*
X145230236Y-98328297D01*
X145231458Y-98339928D01*
X145290473Y-98521556D01*
X145293776Y-98527278D01*
X145293777Y-98527279D01*
X145308972Y-98553598D01*
X145385960Y-98686944D01*
X145390378Y-98691851D01*
X145390379Y-98691852D01*
X145457136Y-98765993D01*
X145487854Y-98830000D01*
X145489500Y-98850303D01*
X145489500Y-108371932D01*
X145469498Y-108440053D01*
X145457143Y-108456234D01*
X145360960Y-108563056D01*
X145265473Y-108728444D01*
X145206458Y-108910072D01*
X145186496Y-109100000D01*
X120208000Y-109100000D01*
X120208000Y-101300000D01*
X136586496Y-101300000D01*
X136587186Y-101306565D01*
X136592608Y-101358148D01*
X136606458Y-101489928D01*
X136665473Y-101671556D01*
X136760960Y-101836944D01*
X136765378Y-101841851D01*
X136765379Y-101841852D01*
X136849700Y-101935500D01*
X136888747Y-101978866D01*
X137043248Y-102091118D01*
X137049276Y-102093802D01*
X137049278Y-102093803D01*
X137176836Y-102150595D01*
X137217712Y-102168794D01*
X137311112Y-102188647D01*
X137398056Y-102207128D01*
X137398061Y-102207128D01*
X137404513Y-102208500D01*
X137595487Y-102208500D01*
X137601939Y-102207128D01*
X137601944Y-102207128D01*
X137688887Y-102188647D01*
X137782288Y-102168794D01*
X137823164Y-102150595D01*
X137950722Y-102093803D01*
X137950724Y-102093802D01*
X137956752Y-102091118D01*
X138058124Y-102017467D01*
X138089671Y-101994546D01*
X138111253Y-101978866D01*
X138115668Y-101973963D01*
X138120580Y-101969540D01*
X138122221Y-101971362D01*
X138173210Y-101939950D01*
X138206399Y-101935500D01*
X138303990Y-101935500D01*
X138372111Y-101955502D01*
X138418604Y-102009158D01*
X138429300Y-102048329D01*
X138446135Y-102208500D01*
X138446968Y-102216428D01*
X138505983Y-102398056D01*
X138601470Y-102563444D01*
X138605888Y-102568351D01*
X138605889Y-102568352D01*
X138716428Y-102691118D01*
X138729257Y-102705366D01*
X138883758Y-102817618D01*
X138889786Y-102820302D01*
X138889788Y-102820303D01*
X139052191Y-102892609D01*
X139058222Y-102895294D01*
X139151622Y-102915147D01*
X139238566Y-102933628D01*
X139238571Y-102933628D01*
X139245023Y-102935000D01*
X139298088Y-102935000D01*
X139366209Y-102955002D01*
X139387183Y-102971905D01*
X140551565Y-104136288D01*
X140585591Y-104198600D01*
X140587779Y-104212206D01*
X140606458Y-104389928D01*
X140665473Y-104571556D01*
X140760960Y-104736944D01*
X140888747Y-104878866D01*
X141043248Y-104991118D01*
X141049276Y-104993802D01*
X141049278Y-104993803D01*
X141211681Y-105066109D01*
X141217712Y-105068794D01*
X141311112Y-105088647D01*
X141398056Y-105107128D01*
X141398061Y-105107128D01*
X141404513Y-105108500D01*
X141595487Y-105108500D01*
X141601939Y-105107128D01*
X141601944Y-105107128D01*
X141688888Y-105088647D01*
X141782288Y-105068794D01*
X141788319Y-105066109D01*
X141950722Y-104993803D01*
X141950724Y-104993802D01*
X141956752Y-104991118D01*
X142111253Y-104878866D01*
X142239040Y-104736944D01*
X142334527Y-104571556D01*
X142393542Y-104389928D01*
X142407393Y-104258148D01*
X142412814Y-104206565D01*
X142413504Y-104200000D01*
X142393542Y-104010072D01*
X142334527Y-103828444D01*
X142239040Y-103663056D01*
X142111253Y-103521134D01*
X141956752Y-103408882D01*
X141950724Y-103406198D01*
X141950722Y-103406197D01*
X141788319Y-103333891D01*
X141788318Y-103333891D01*
X141782288Y-103331206D01*
X141688888Y-103311353D01*
X141601944Y-103292872D01*
X141601939Y-103292872D01*
X141595487Y-103291500D01*
X141556432Y-103291500D01*
X141488311Y-103271498D01*
X141467337Y-103254595D01*
X140363338Y-102150595D01*
X140329312Y-102088283D01*
X140334377Y-102017467D01*
X140376924Y-101960632D01*
X140443444Y-101935821D01*
X140452433Y-101935500D01*
X142838500Y-101935500D01*
X142906621Y-101955502D01*
X142953114Y-102009158D01*
X142964500Y-102061500D01*
X142964500Y-106284578D01*
X142944498Y-106352699D01*
X142927595Y-106373673D01*
X142846673Y-106454595D01*
X142784361Y-106488621D01*
X142757578Y-106491500D01*
X142704513Y-106491500D01*
X142698061Y-106492872D01*
X142698056Y-106492872D01*
X142611113Y-106511353D01*
X142517712Y-106531206D01*
X142511682Y-106533891D01*
X142511681Y-106533891D01*
X142349278Y-106606197D01*
X142349276Y-106606198D01*
X142343248Y-106608882D01*
X142188747Y-106721134D01*
X142060960Y-106863056D01*
X142051242Y-106879888D01*
X141969717Y-107021094D01*
X141965473Y-107028444D01*
X141906458Y-107210072D01*
X141886496Y-107400000D01*
X141906458Y-107589928D01*
X141965473Y-107771556D01*
X142060960Y-107936944D01*
X142188747Y-108078866D01*
X142343248Y-108191118D01*
X142349276Y-108193802D01*
X142349278Y-108193803D01*
X142511681Y-108266109D01*
X142517712Y-108268794D01*
X142611112Y-108288647D01*
X142698056Y-108307128D01*
X142698061Y-108307128D01*
X142704513Y-108308500D01*
X142895487Y-108308500D01*
X142901939Y-108307128D01*
X142901944Y-108307128D01*
X142988888Y-108288647D01*
X143082288Y-108268794D01*
X143088319Y-108266109D01*
X143250722Y-108193803D01*
X143250724Y-108193802D01*
X143256752Y-108191118D01*
X143411253Y-108078866D01*
X143539040Y-107936944D01*
X143634527Y-107771556D01*
X143693542Y-107589928D01*
X143710575Y-107427868D01*
X143737588Y-107362211D01*
X143746790Y-107351942D01*
X143993488Y-107105245D01*
X144001807Y-107097675D01*
X144008303Y-107093553D01*
X144055086Y-107043734D01*
X144057840Y-107040893D01*
X144077639Y-107021094D01*
X144080063Y-107017969D01*
X144080071Y-107017960D01*
X144080137Y-107017874D01*
X144087845Y-107008849D01*
X144112790Y-106982285D01*
X144118217Y-106976506D01*
X144128023Y-106958669D01*
X144138873Y-106942153D01*
X144151350Y-106926067D01*
X144168976Y-106885334D01*
X144174193Y-106874686D01*
X144191749Y-106842751D01*
X144195569Y-106835803D01*
X144197540Y-106828128D01*
X144197542Y-106828122D01*
X144200631Y-106816089D01*
X144207034Y-106797387D01*
X144215117Y-106778708D01*
X144222060Y-106734873D01*
X144224467Y-106723251D01*
X144226008Y-106717251D01*
X144235500Y-106680282D01*
X144235500Y-106659935D01*
X144237051Y-106640224D01*
X144238995Y-106627950D01*
X144240235Y-106620121D01*
X144236059Y-106575944D01*
X144235500Y-106564086D01*
X144235500Y-102000303D01*
X144255502Y-101932182D01*
X144267864Y-101915993D01*
X144334621Y-101841852D01*
X144334622Y-101841851D01*
X144339040Y-101836944D01*
X144434527Y-101671556D01*
X144493542Y-101489928D01*
X144507393Y-101358148D01*
X144512814Y-101306565D01*
X144513504Y-101300000D01*
X144496932Y-101142326D01*
X144494232Y-101116635D01*
X144494232Y-101116633D01*
X144493542Y-101110072D01*
X144434527Y-100928444D01*
X144428306Y-100917668D01*
X144342341Y-100768774D01*
X144339040Y-100763056D01*
X144271034Y-100687527D01*
X144215675Y-100626045D01*
X144215674Y-100626044D01*
X144211253Y-100621134D01*
X144056752Y-100508882D01*
X144050724Y-100506198D01*
X144050722Y-100506197D01*
X143888319Y-100433891D01*
X143888318Y-100433891D01*
X143882288Y-100431206D01*
X143788887Y-100411353D01*
X143701944Y-100392872D01*
X143701939Y-100392872D01*
X143695487Y-100391500D01*
X143504513Y-100391500D01*
X143498061Y-100392872D01*
X143498056Y-100392872D01*
X143411113Y-100411353D01*
X143317712Y-100431206D01*
X143311682Y-100433891D01*
X143311681Y-100433891D01*
X143149278Y-100506197D01*
X143149276Y-100506198D01*
X143143248Y-100508882D01*
X142988747Y-100621134D01*
X142984332Y-100626037D01*
X142979420Y-100630460D01*
X142977779Y-100628638D01*
X142926790Y-100660050D01*
X142893601Y-100664500D01*
X138206399Y-100664500D01*
X138138278Y-100644498D01*
X138121092Y-100629891D01*
X138120580Y-100630460D01*
X138115668Y-100626037D01*
X138111253Y-100621134D01*
X137956752Y-100508882D01*
X137950724Y-100506198D01*
X137950722Y-100506197D01*
X137788319Y-100433891D01*
X137788318Y-100433891D01*
X137782288Y-100431206D01*
X137688887Y-100411353D01*
X137601944Y-100392872D01*
X137601939Y-100392872D01*
X137595487Y-100391500D01*
X137404513Y-100391500D01*
X137398061Y-100392872D01*
X137398056Y-100392872D01*
X137311113Y-100411353D01*
X137217712Y-100431206D01*
X137211682Y-100433891D01*
X137211681Y-100433891D01*
X137049278Y-100506197D01*
X137049276Y-100506198D01*
X137043248Y-100508882D01*
X136888747Y-100621134D01*
X136884326Y-100626044D01*
X136884325Y-100626045D01*
X136828967Y-100687527D01*
X136760960Y-100763056D01*
X136757659Y-100768774D01*
X136671695Y-100917668D01*
X136665473Y-100928444D01*
X136606458Y-101110072D01*
X136605768Y-101116633D01*
X136605768Y-101116635D01*
X136603068Y-101142326D01*
X136586496Y-101300000D01*
X120208000Y-101300000D01*
X120208000Y-99880000D01*
X122001693Y-99880000D01*
X122020885Y-100099371D01*
X122077880Y-100312076D01*
X122084852Y-100327027D01*
X122168618Y-100506666D01*
X122168621Y-100506671D01*
X122170944Y-100511653D01*
X122174100Y-100516160D01*
X122174101Y-100516162D01*
X122277969Y-100664500D01*
X122297251Y-100692038D01*
X122452962Y-100847749D01*
X122633346Y-100974056D01*
X122832924Y-101067120D01*
X123045629Y-101124115D01*
X123265000Y-101143307D01*
X123484371Y-101124115D01*
X123697076Y-101067120D01*
X123896654Y-100974056D01*
X124077038Y-100847749D01*
X124232749Y-100692038D01*
X124252032Y-100664500D01*
X124355899Y-100516162D01*
X124355900Y-100516160D01*
X124359056Y-100511653D01*
X124361379Y-100506671D01*
X124361382Y-100506666D01*
X124420805Y-100379231D01*
X124467722Y-100325946D01*
X124535999Y-100306485D01*
X124603959Y-100327027D01*
X124649195Y-100379231D01*
X124708618Y-100506666D01*
X124708621Y-100506671D01*
X124710944Y-100511653D01*
X124714100Y-100516160D01*
X124714101Y-100516162D01*
X124817969Y-100664500D01*
X124837251Y-100692038D01*
X124992962Y-100847749D01*
X125173346Y-100974056D01*
X125372924Y-101067120D01*
X125585629Y-101124115D01*
X125805000Y-101143307D01*
X126024371Y-101124115D01*
X126237076Y-101067120D01*
X126436654Y-100974056D01*
X126617038Y-100847749D01*
X126772749Y-100692038D01*
X126792032Y-100664500D01*
X126895899Y-100516162D01*
X126895900Y-100516160D01*
X126899056Y-100511653D01*
X126901379Y-100506671D01*
X126901382Y-100506666D01*
X126960805Y-100379231D01*
X127007722Y-100325946D01*
X127075999Y-100306485D01*
X127143959Y-100327027D01*
X127189195Y-100379231D01*
X127248618Y-100506666D01*
X127248621Y-100506671D01*
X127250944Y-100511653D01*
X127254100Y-100516160D01*
X127254101Y-100516162D01*
X127357969Y-100664500D01*
X127377251Y-100692038D01*
X127532962Y-100847749D01*
X127713346Y-100974056D01*
X127912924Y-101067120D01*
X128125629Y-101124115D01*
X128345000Y-101143307D01*
X128564371Y-101124115D01*
X128777076Y-101067120D01*
X128976654Y-100974056D01*
X129039342Y-100930161D01*
X130199393Y-100930161D01*
X130208687Y-100942175D01*
X130249088Y-100970464D01*
X130258584Y-100975947D01*
X130448113Y-101064326D01*
X130458405Y-101068072D01*
X130660401Y-101122196D01*
X130671196Y-101124099D01*
X130879525Y-101142326D01*
X130890475Y-101142326D01*
X131098804Y-101124099D01*
X131109599Y-101122196D01*
X131311595Y-101068072D01*
X131321887Y-101064326D01*
X131511416Y-100975947D01*
X131520912Y-100970464D01*
X131562148Y-100941590D01*
X131570523Y-100931112D01*
X131563457Y-100917668D01*
X130897811Y-100252021D01*
X130883868Y-100244408D01*
X130882034Y-100244539D01*
X130875420Y-100248790D01*
X130205820Y-100918391D01*
X130199393Y-100930161D01*
X129039342Y-100930161D01*
X129157038Y-100847749D01*
X129312749Y-100692038D01*
X129332032Y-100664500D01*
X129435899Y-100516162D01*
X129435900Y-100516160D01*
X129439056Y-100511653D01*
X129441379Y-100506671D01*
X129441382Y-100506666D01*
X129501081Y-100378640D01*
X129547998Y-100325355D01*
X129616276Y-100305894D01*
X129684236Y-100326436D01*
X129729471Y-100378640D01*
X129789054Y-100506417D01*
X129794534Y-100515907D01*
X129823411Y-100557149D01*
X129833887Y-100565523D01*
X129847334Y-100558455D01*
X130512979Y-99892811D01*
X130519356Y-99881132D01*
X131249408Y-99881132D01*
X131249539Y-99882966D01*
X131253790Y-99889580D01*
X131923391Y-100559180D01*
X131935161Y-100565607D01*
X131947176Y-100556311D01*
X131975466Y-100515907D01*
X131980946Y-100506417D01*
X132069326Y-100316887D01*
X132073072Y-100306595D01*
X132127196Y-100104599D01*
X132129099Y-100093804D01*
X132147326Y-99885475D01*
X132147326Y-99874525D01*
X132129099Y-99666196D01*
X132127196Y-99655401D01*
X132073072Y-99453405D01*
X132069326Y-99443113D01*
X131980946Y-99253583D01*
X131975466Y-99244093D01*
X131946589Y-99202851D01*
X131936113Y-99194477D01*
X131922666Y-99201545D01*
X131257021Y-99867189D01*
X131249408Y-99881132D01*
X130519356Y-99881132D01*
X130520592Y-99878868D01*
X130520461Y-99877034D01*
X130516210Y-99870420D01*
X129846609Y-99200820D01*
X129834839Y-99194393D01*
X129822824Y-99203689D01*
X129794534Y-99244093D01*
X129789054Y-99253583D01*
X129729471Y-99381360D01*
X129682554Y-99434645D01*
X129614276Y-99454106D01*
X129546316Y-99433564D01*
X129501081Y-99381360D01*
X129441382Y-99253334D01*
X129441379Y-99253329D01*
X129439056Y-99248347D01*
X129426098Y-99229841D01*
X129315908Y-99072473D01*
X129315906Y-99072470D01*
X129312749Y-99067962D01*
X129157038Y-98912251D01*
X129099743Y-98872132D01*
X129039342Y-98829839D01*
X128976654Y-98785944D01*
X128777076Y-98692880D01*
X128564371Y-98635885D01*
X128345000Y-98616693D01*
X128125629Y-98635885D01*
X127912924Y-98692880D01*
X127819562Y-98736415D01*
X127718334Y-98783618D01*
X127718329Y-98783621D01*
X127713347Y-98785944D01*
X127708840Y-98789100D01*
X127708838Y-98789101D01*
X127537473Y-98909092D01*
X127537470Y-98909094D01*
X127532962Y-98912251D01*
X127377251Y-99067962D01*
X127374094Y-99072470D01*
X127374092Y-99072473D01*
X127263902Y-99229841D01*
X127250944Y-99248347D01*
X127248621Y-99253329D01*
X127248618Y-99253334D01*
X127189195Y-99380769D01*
X127142278Y-99434054D01*
X127074001Y-99453515D01*
X127006041Y-99432973D01*
X126960805Y-99380769D01*
X126901382Y-99253334D01*
X126901379Y-99253329D01*
X126899056Y-99248347D01*
X126886098Y-99229841D01*
X126775908Y-99072473D01*
X126775906Y-99072470D01*
X126772749Y-99067962D01*
X126617038Y-98912251D01*
X126559743Y-98872132D01*
X126499342Y-98829839D01*
X126436654Y-98785944D01*
X126237076Y-98692880D01*
X126024371Y-98635885D01*
X125805000Y-98616693D01*
X125585629Y-98635885D01*
X125372924Y-98692880D01*
X125279562Y-98736415D01*
X125178334Y-98783618D01*
X125178329Y-98783621D01*
X125173347Y-98785944D01*
X125168840Y-98789100D01*
X125168838Y-98789101D01*
X124997473Y-98909092D01*
X124997470Y-98909094D01*
X124992962Y-98912251D01*
X124837251Y-99067962D01*
X124834094Y-99072470D01*
X124834092Y-99072473D01*
X124723902Y-99229841D01*
X124710944Y-99248347D01*
X124708621Y-99253329D01*
X124708618Y-99253334D01*
X124649195Y-99380769D01*
X124602278Y-99434054D01*
X124534001Y-99453515D01*
X124466041Y-99432973D01*
X124420805Y-99380769D01*
X124361382Y-99253334D01*
X124361379Y-99253329D01*
X124359056Y-99248347D01*
X124346098Y-99229841D01*
X124235908Y-99072473D01*
X124235906Y-99072470D01*
X124232749Y-99067962D01*
X124077038Y-98912251D01*
X124019743Y-98872132D01*
X123959342Y-98829839D01*
X123896654Y-98785944D01*
X123697076Y-98692880D01*
X123484371Y-98635885D01*
X123265000Y-98616693D01*
X123045629Y-98635885D01*
X122832924Y-98692880D01*
X122739562Y-98736415D01*
X122638334Y-98783618D01*
X122638329Y-98783621D01*
X122633347Y-98785944D01*
X122628840Y-98789100D01*
X122628838Y-98789101D01*
X122457473Y-98909092D01*
X122457470Y-98909094D01*
X122452962Y-98912251D01*
X122297251Y-99067962D01*
X122294094Y-99072470D01*
X122294092Y-99072473D01*
X122183902Y-99229841D01*
X122170944Y-99248347D01*
X122168621Y-99253329D01*
X122168618Y-99253334D01*
X122123582Y-99349915D01*
X122077880Y-99447924D01*
X122020885Y-99660629D01*
X122001693Y-99880000D01*
X120208000Y-99880000D01*
X120208000Y-97340000D01*
X123271693Y-97340000D01*
X123290885Y-97559371D01*
X123347880Y-97772076D01*
X123354348Y-97785946D01*
X123438618Y-97966666D01*
X123438621Y-97966671D01*
X123440944Y-97971653D01*
X123444100Y-97976160D01*
X123444101Y-97976162D01*
X123555123Y-98134717D01*
X123567251Y-98152038D01*
X123722962Y-98307749D01*
X123903346Y-98434056D01*
X124102924Y-98527120D01*
X124315629Y-98584115D01*
X124535000Y-98603307D01*
X124754371Y-98584115D01*
X124967076Y-98527120D01*
X125166654Y-98434056D01*
X125347038Y-98307749D01*
X125502749Y-98152038D01*
X125514878Y-98134717D01*
X125625899Y-97976162D01*
X125625900Y-97976160D01*
X125629056Y-97971653D01*
X125631379Y-97966671D01*
X125631382Y-97966666D01*
X125690805Y-97839231D01*
X125737722Y-97785946D01*
X125805999Y-97766485D01*
X125873959Y-97787027D01*
X125919195Y-97839231D01*
X125978618Y-97966666D01*
X125978621Y-97966671D01*
X125980944Y-97971653D01*
X125984100Y-97976160D01*
X125984101Y-97976162D01*
X126095123Y-98134717D01*
X126107251Y-98152038D01*
X126262962Y-98307749D01*
X126443346Y-98434056D01*
X126642924Y-98527120D01*
X126855629Y-98584115D01*
X127075000Y-98603307D01*
X127294371Y-98584115D01*
X127507076Y-98527120D01*
X127706654Y-98434056D01*
X127887038Y-98307749D01*
X128042749Y-98152038D01*
X128054878Y-98134717D01*
X128165899Y-97976162D01*
X128165900Y-97976160D01*
X128169056Y-97971653D01*
X128171379Y-97966671D01*
X128171382Y-97966666D01*
X128230805Y-97839231D01*
X128277722Y-97785946D01*
X128345999Y-97766485D01*
X128413959Y-97787027D01*
X128459195Y-97839231D01*
X128518618Y-97966666D01*
X128518621Y-97966671D01*
X128520944Y-97971653D01*
X128524100Y-97976160D01*
X128524101Y-97976162D01*
X128635123Y-98134717D01*
X128647251Y-98152038D01*
X128802962Y-98307749D01*
X128983346Y-98434056D01*
X129182924Y-98527120D01*
X129395629Y-98584115D01*
X129615000Y-98603307D01*
X129834371Y-98584115D01*
X130047076Y-98527120D01*
X130246654Y-98434056D01*
X130427038Y-98307749D01*
X130582749Y-98152038D01*
X130594878Y-98134717D01*
X130667287Y-98031305D01*
X130722744Y-97986977D01*
X130793363Y-97979668D01*
X130856724Y-98011699D01*
X130892709Y-98072900D01*
X130896500Y-98103576D01*
X130896500Y-98138134D01*
X130903255Y-98200316D01*
X130954385Y-98336705D01*
X130959770Y-98343890D01*
X130959771Y-98343892D01*
X131015094Y-98417709D01*
X131039942Y-98484216D01*
X131024889Y-98553598D01*
X130974715Y-98603828D01*
X130903285Y-98618794D01*
X130890485Y-98617674D01*
X130879525Y-98617674D01*
X130671196Y-98635901D01*
X130660401Y-98637804D01*
X130458405Y-98691928D01*
X130448113Y-98695674D01*
X130258583Y-98784054D01*
X130249093Y-98789534D01*
X130207851Y-98818411D01*
X130199477Y-98828887D01*
X130206545Y-98842334D01*
X130872189Y-99507979D01*
X130886132Y-99515592D01*
X130887966Y-99515461D01*
X130894580Y-99511210D01*
X131564180Y-98841609D01*
X131570607Y-98829839D01*
X131549602Y-98802688D01*
X131553204Y-98799902D01*
X131531108Y-98772262D01*
X131523795Y-98701643D01*
X131555823Y-98638281D01*
X131617022Y-98602293D01*
X131647705Y-98598500D01*
X132953134Y-98598500D01*
X133015316Y-98591745D01*
X133151705Y-98540615D01*
X133268261Y-98453261D01*
X133355615Y-98336705D01*
X133406745Y-98200316D01*
X133413500Y-98138134D01*
X133413500Y-96541866D01*
X133406745Y-96479684D01*
X133355615Y-96343295D01*
X133268261Y-96226739D01*
X133151705Y-96139385D01*
X133015316Y-96088255D01*
X132953134Y-96081500D01*
X131356866Y-96081500D01*
X131294684Y-96088255D01*
X131158295Y-96139385D01*
X131041739Y-96226739D01*
X130954385Y-96343295D01*
X130903255Y-96479684D01*
X130896500Y-96541866D01*
X130896500Y-96576424D01*
X130876498Y-96644545D01*
X130822842Y-96691038D01*
X130752568Y-96701142D01*
X130687988Y-96671648D01*
X130667287Y-96648695D01*
X130585908Y-96532473D01*
X130585906Y-96532470D01*
X130582749Y-96527962D01*
X130427038Y-96372251D01*
X130246654Y-96245944D01*
X130047076Y-96152880D01*
X129834371Y-96095885D01*
X129615000Y-96076693D01*
X129395629Y-96095885D01*
X129182924Y-96152880D01*
X129095953Y-96193435D01*
X128988334Y-96243618D01*
X128988329Y-96243621D01*
X128983347Y-96245944D01*
X128978840Y-96249100D01*
X128978838Y-96249101D01*
X128807473Y-96369092D01*
X128807470Y-96369094D01*
X128802962Y-96372251D01*
X128647251Y-96527962D01*
X128644094Y-96532470D01*
X128644092Y-96532473D01*
X128562713Y-96648695D01*
X128520944Y-96708347D01*
X128518621Y-96713329D01*
X128518618Y-96713334D01*
X128459195Y-96840769D01*
X128412278Y-96894054D01*
X128344001Y-96913515D01*
X128276041Y-96892973D01*
X128230805Y-96840769D01*
X128171382Y-96713334D01*
X128171379Y-96713329D01*
X128169056Y-96708347D01*
X128127287Y-96648695D01*
X128045908Y-96532473D01*
X128045906Y-96532470D01*
X128042749Y-96527962D01*
X127887038Y-96372251D01*
X127706654Y-96245944D01*
X127507076Y-96152880D01*
X127294371Y-96095885D01*
X127075000Y-96076693D01*
X126855629Y-96095885D01*
X126642924Y-96152880D01*
X126555953Y-96193435D01*
X126448334Y-96243618D01*
X126448329Y-96243621D01*
X126443347Y-96245944D01*
X126438840Y-96249100D01*
X126438838Y-96249101D01*
X126267473Y-96369092D01*
X126267470Y-96369094D01*
X126262962Y-96372251D01*
X126107251Y-96527962D01*
X126104094Y-96532470D01*
X126104092Y-96532473D01*
X126022713Y-96648695D01*
X125980944Y-96708347D01*
X125978621Y-96713329D01*
X125978618Y-96713334D01*
X125919195Y-96840769D01*
X125872278Y-96894054D01*
X125804001Y-96913515D01*
X125736041Y-96892973D01*
X125690805Y-96840769D01*
X125631382Y-96713334D01*
X125631379Y-96713329D01*
X125629056Y-96708347D01*
X125587287Y-96648695D01*
X125505908Y-96532473D01*
X125505906Y-96532470D01*
X125502749Y-96527962D01*
X125347038Y-96372251D01*
X125166654Y-96245944D01*
X124967076Y-96152880D01*
X124754371Y-96095885D01*
X124535000Y-96076693D01*
X124315629Y-96095885D01*
X124102924Y-96152880D01*
X124015953Y-96193435D01*
X123908334Y-96243618D01*
X123908329Y-96243621D01*
X123903347Y-96245944D01*
X123898840Y-96249100D01*
X123898838Y-96249101D01*
X123727473Y-96369092D01*
X123727470Y-96369094D01*
X123722962Y-96372251D01*
X123567251Y-96527962D01*
X123564094Y-96532470D01*
X123564092Y-96532473D01*
X123482713Y-96648695D01*
X123440944Y-96708347D01*
X123438621Y-96713329D01*
X123438618Y-96713334D01*
X123430275Y-96731226D01*
X123347880Y-96907924D01*
X123290885Y-97120629D01*
X123271693Y-97340000D01*
X120208000Y-97340000D01*
X120208000Y-92668596D01*
X120228002Y-92600475D01*
X120281658Y-92553982D01*
X120351932Y-92543878D01*
X120416512Y-92573372D01*
X120426151Y-92582664D01*
X120462642Y-92621796D01*
X120691918Y-92810125D01*
X120944088Y-92966477D01*
X121214722Y-93088105D01*
X121349030Y-93128144D01*
X121495065Y-93171679D01*
X121495067Y-93171679D01*
X121499064Y-93172871D01*
X121503184Y-93173524D01*
X121503186Y-93173524D01*
X121582299Y-93186054D01*
X121792119Y-93219286D01*
X121837146Y-93221331D01*
X121883497Y-93223436D01*
X121883516Y-93223436D01*
X121884916Y-93223500D01*
X122070264Y-93223500D01*
X122291056Y-93208835D01*
X122581910Y-93150188D01*
X122862453Y-93053590D01*
X122866196Y-93051716D01*
X122866200Y-93051714D01*
X123124012Y-92922611D01*
X123124014Y-92922610D01*
X123127756Y-92920736D01*
X123373158Y-92753961D01*
X123594346Y-92556196D01*
X123622013Y-92523917D01*
X123721491Y-92407853D01*
X123787436Y-92330914D01*
X123816235Y-92286568D01*
X123946763Y-92085572D01*
X123946765Y-92085569D01*
X123949035Y-92082073D01*
X123962410Y-92053907D01*
X123997629Y-91979734D01*
X124076304Y-91814046D01*
X124079987Y-91802574D01*
X124165726Y-91535530D01*
X124165727Y-91535524D01*
X124167006Y-91531542D01*
X124202091Y-91336548D01*
X124218809Y-91243632D01*
X124218810Y-91243627D01*
X124219548Y-91239523D01*
X124221179Y-91203620D01*
X124228751Y-91036880D01*
X131186992Y-91036880D01*
X131187355Y-91041028D01*
X131187355Y-91041032D01*
X131212487Y-91328293D01*
X131212488Y-91328301D01*
X131212852Y-91332459D01*
X131213766Y-91336548D01*
X131262039Y-91552506D01*
X131277577Y-91622021D01*
X131279019Y-91625941D01*
X131279021Y-91625947D01*
X131349619Y-91817827D01*
X131380029Y-91900480D01*
X131381980Y-91904180D01*
X131381982Y-91904185D01*
X131458715Y-92049721D01*
X131518410Y-92162942D01*
X131690288Y-92404797D01*
X131892642Y-92621796D01*
X132121918Y-92810125D01*
X132374088Y-92966477D01*
X132644722Y-93088105D01*
X132779030Y-93128144D01*
X132925065Y-93171679D01*
X132925067Y-93171679D01*
X132929064Y-93172871D01*
X132933184Y-93173524D01*
X132933186Y-93173524D01*
X133012299Y-93186054D01*
X133222119Y-93219286D01*
X133267146Y-93221331D01*
X133313497Y-93223436D01*
X133313516Y-93223436D01*
X133314916Y-93223500D01*
X133500264Y-93223500D01*
X133721056Y-93208835D01*
X134011910Y-93150188D01*
X134292453Y-93053590D01*
X134296196Y-93051716D01*
X134296200Y-93051714D01*
X134554012Y-92922611D01*
X134554014Y-92922610D01*
X134557756Y-92920736D01*
X134803158Y-92753961D01*
X135024346Y-92556196D01*
X135052013Y-92523917D01*
X135151491Y-92407853D01*
X135217436Y-92330914D01*
X135220031Y-92326918D01*
X138702917Y-92326918D01*
X138718682Y-92600320D01*
X138719507Y-92604525D01*
X138719508Y-92604533D01*
X138730966Y-92662933D01*
X138771405Y-92869053D01*
X138772792Y-92873103D01*
X138772793Y-92873108D01*
X138846812Y-93089299D01*
X138860112Y-93128144D01*
X138983160Y-93372799D01*
X138985586Y-93376328D01*
X138985589Y-93376334D01*
X139049536Y-93469376D01*
X139138274Y-93598490D01*
X139322582Y-93801043D01*
X139532675Y-93976707D01*
X139536316Y-93978991D01*
X139761024Y-94119951D01*
X139761028Y-94119953D01*
X139764664Y-94122234D01*
X139832544Y-94152883D01*
X140010345Y-94233164D01*
X140010349Y-94233166D01*
X140014257Y-94234930D01*
X140018377Y-94236150D01*
X140018376Y-94236150D01*
X140272723Y-94311491D01*
X140272727Y-94311492D01*
X140276836Y-94312709D01*
X140281070Y-94313357D01*
X140281075Y-94313358D01*
X140543298Y-94353483D01*
X140543300Y-94353483D01*
X140547540Y-94354132D01*
X140686912Y-94356322D01*
X140817071Y-94358367D01*
X140817077Y-94358367D01*
X140821362Y-94358434D01*
X141093235Y-94325534D01*
X141358127Y-94256041D01*
X141362087Y-94254401D01*
X141362092Y-94254399D01*
X141484631Y-94203641D01*
X141611136Y-94151241D01*
X141847582Y-94013073D01*
X142063089Y-93844094D01*
X142104809Y-93801043D01*
X142250686Y-93650509D01*
X142253669Y-93647431D01*
X142256202Y-93643983D01*
X142256206Y-93643978D01*
X142413257Y-93430178D01*
X142415795Y-93426723D01*
X142443154Y-93376334D01*
X142544418Y-93189830D01*
X142544419Y-93189828D01*
X142546468Y-93186054D01*
X142643269Y-92929877D01*
X142671302Y-92807476D01*
X142703449Y-92667117D01*
X142703450Y-92667113D01*
X142704407Y-92662933D01*
X142708079Y-92621796D01*
X142728531Y-92392627D01*
X142728531Y-92392625D01*
X142728751Y-92390161D01*
X142729193Y-92348000D01*
X142729024Y-92345519D01*
X142710859Y-92079055D01*
X142710858Y-92079049D01*
X142710567Y-92074778D01*
X142705623Y-92050902D01*
X142673657Y-91896548D01*
X142655032Y-91806612D01*
X142563617Y-91548465D01*
X142438013Y-91305112D01*
X142428040Y-91290921D01*
X142330392Y-91151983D01*
X142280545Y-91081057D01*
X142094125Y-90880445D01*
X142090810Y-90877731D01*
X142090806Y-90877728D01*
X141953842Y-90765624D01*
X141882205Y-90706990D01*
X141706539Y-90599342D01*
X141652366Y-90566145D01*
X141652365Y-90566145D01*
X141648704Y-90563901D01*
X141644768Y-90562173D01*
X141401873Y-90455549D01*
X141401869Y-90455548D01*
X141397945Y-90453825D01*
X141134566Y-90378800D01*
X141130324Y-90378196D01*
X141130318Y-90378195D01*
X140895068Y-90344714D01*
X140863443Y-90340213D01*
X140719589Y-90339460D01*
X140593877Y-90338802D01*
X140593871Y-90338802D01*
X140589591Y-90338780D01*
X140585347Y-90339339D01*
X140585343Y-90339339D01*
X140473580Y-90354053D01*
X140318078Y-90374525D01*
X140313938Y-90375658D01*
X140313936Y-90375658D01*
X140241008Y-90395609D01*
X140053928Y-90446788D01*
X140049980Y-90448472D01*
X139805982Y-90552546D01*
X139805978Y-90552548D01*
X139802030Y-90554232D01*
X139695021Y-90618275D01*
X139570725Y-90692664D01*
X139570721Y-90692667D01*
X139567043Y-90694868D01*
X139353318Y-90866094D01*
X139164808Y-91064742D01*
X139005002Y-91287136D01*
X138876857Y-91529161D01*
X138875385Y-91533184D01*
X138875383Y-91533188D01*
X138841438Y-91625947D01*
X138782743Y-91786337D01*
X138724404Y-92053907D01*
X138702917Y-92326918D01*
X135220031Y-92326918D01*
X135246235Y-92286568D01*
X135376763Y-92085572D01*
X135376765Y-92085569D01*
X135379035Y-92082073D01*
X135392410Y-92053907D01*
X135427629Y-91979734D01*
X135506304Y-91814046D01*
X135509987Y-91802574D01*
X135595726Y-91535530D01*
X135595727Y-91535524D01*
X135597006Y-91531542D01*
X135632091Y-91336548D01*
X135648809Y-91243632D01*
X135648810Y-91243627D01*
X135649548Y-91239523D01*
X135651179Y-91203620D01*
X135662819Y-90947290D01*
X135662819Y-90947285D01*
X135663008Y-90943120D01*
X135656035Y-90863417D01*
X135637513Y-90651707D01*
X135637512Y-90651699D01*
X135637148Y-90647541D01*
X135606180Y-90509000D01*
X135573336Y-90362063D01*
X135573336Y-90362061D01*
X135572423Y-90357979D01*
X135567543Y-90344714D01*
X135471418Y-90083452D01*
X135471416Y-90083448D01*
X135469971Y-90079520D01*
X135331590Y-89817058D01*
X135159712Y-89575203D01*
X134957358Y-89358204D01*
X134728082Y-89169875D01*
X134475912Y-89013523D01*
X134205278Y-88891895D01*
X134032610Y-88840420D01*
X133924935Y-88808321D01*
X133924933Y-88808321D01*
X133920936Y-88807129D01*
X133916816Y-88806476D01*
X133916814Y-88806476D01*
X133797894Y-88787641D01*
X133627881Y-88760714D01*
X133582854Y-88758669D01*
X133536503Y-88756564D01*
X133536484Y-88756564D01*
X133535084Y-88756500D01*
X133349736Y-88756500D01*
X133128944Y-88771165D01*
X132838090Y-88829812D01*
X132557547Y-88926410D01*
X132553804Y-88928284D01*
X132553800Y-88928286D01*
X132379179Y-89015730D01*
X132292244Y-89059264D01*
X132046842Y-89226039D01*
X131825654Y-89423804D01*
X131632564Y-89649086D01*
X131630290Y-89652588D01*
X131630289Y-89652589D01*
X131525698Y-89813646D01*
X131470965Y-89897927D01*
X131343696Y-90165954D01*
X131342417Y-90169937D01*
X131342416Y-90169940D01*
X131274981Y-90379977D01*
X131252994Y-90448458D01*
X131247595Y-90478463D01*
X131205989Y-90709706D01*
X131200452Y-90740477D01*
X131200263Y-90744644D01*
X131200262Y-90744651D01*
X131187181Y-91032710D01*
X131186992Y-91036880D01*
X124228751Y-91036880D01*
X124232819Y-90947290D01*
X124232819Y-90947285D01*
X124233008Y-90943120D01*
X124226035Y-90863417D01*
X124207513Y-90651707D01*
X124207512Y-90651699D01*
X124207148Y-90647541D01*
X124176180Y-90509000D01*
X124143336Y-90362063D01*
X124143336Y-90362061D01*
X124142423Y-90357979D01*
X124137543Y-90344714D01*
X124041418Y-90083452D01*
X124041416Y-90083448D01*
X124039971Y-90079520D01*
X123901590Y-89817058D01*
X123729712Y-89575203D01*
X123527358Y-89358204D01*
X123298082Y-89169875D01*
X123045912Y-89013523D01*
X122775278Y-88891895D01*
X122602610Y-88840420D01*
X122494935Y-88808321D01*
X122494933Y-88808321D01*
X122490936Y-88807129D01*
X122486816Y-88806476D01*
X122486814Y-88806476D01*
X122367894Y-88787641D01*
X122197881Y-88760714D01*
X122152854Y-88758669D01*
X122106503Y-88756564D01*
X122106484Y-88756564D01*
X122105084Y-88756500D01*
X121919736Y-88756500D01*
X121698944Y-88771165D01*
X121408090Y-88829812D01*
X121127547Y-88926410D01*
X121123804Y-88928284D01*
X121123800Y-88928286D01*
X120949179Y-89015730D01*
X120862244Y-89059264D01*
X120616842Y-89226039D01*
X120471987Y-89355555D01*
X120417983Y-89403840D01*
X120353869Y-89434334D01*
X120283446Y-89425324D01*
X120229074Y-89379671D01*
X120208000Y-89309910D01*
X120208000Y-83934000D01*
X120228002Y-83865879D01*
X120281658Y-83819386D01*
X120334000Y-83808000D01*
X156384718Y-83808000D01*
X156452839Y-83828002D01*
G37*
G04 #@! TD.AperFunction*
G04 #@! TA.AperFunction,Conductor*
G36*
X163234121Y-83828002D02*
G01*
X163280614Y-83881658D01*
X163292000Y-83934000D01*
X163292000Y-92523917D01*
X163271998Y-92592038D01*
X163218342Y-92638531D01*
X163148068Y-92648635D01*
X163080471Y-92616442D01*
X162985296Y-92528463D01*
X162985293Y-92528461D01*
X162981056Y-92524544D01*
X162797099Y-92408476D01*
X162595072Y-92327876D01*
X162381739Y-92285441D01*
X162375964Y-92285365D01*
X162375960Y-92285365D01*
X162266919Y-92283938D01*
X162164246Y-92282594D01*
X162158549Y-92283573D01*
X162158548Y-92283573D01*
X161955565Y-92318452D01*
X161955562Y-92318453D01*
X161949875Y-92319430D01*
X161745807Y-92394714D01*
X161558876Y-92505927D01*
X161395342Y-92649342D01*
X161391770Y-92653873D01*
X161266854Y-92812328D01*
X161260681Y-92820158D01*
X161257993Y-92825267D01*
X161246836Y-92846474D01*
X161159405Y-93012654D01*
X161157692Y-93018171D01*
X161104390Y-93189830D01*
X161094903Y-93220382D01*
X161094224Y-93226119D01*
X161076445Y-93376334D01*
X161074000Y-93396990D01*
X161074000Y-94422676D01*
X161088833Y-94584100D01*
X161147874Y-94793445D01*
X161244077Y-94988526D01*
X161374220Y-95162809D01*
X161378454Y-95166723D01*
X161378456Y-95166725D01*
X161449484Y-95232382D01*
X161533944Y-95310456D01*
X161717901Y-95426524D01*
X161919928Y-95507124D01*
X162133261Y-95549559D01*
X162139036Y-95549635D01*
X162139040Y-95549635D01*
X162248081Y-95551062D01*
X162350754Y-95552406D01*
X162356451Y-95551427D01*
X162356452Y-95551427D01*
X162559435Y-95516548D01*
X162559438Y-95516547D01*
X162565125Y-95515570D01*
X162769193Y-95440286D01*
X162921714Y-95349545D01*
X162951159Y-95332027D01*
X162951160Y-95332026D01*
X162956124Y-95329073D01*
X163061954Y-95236263D01*
X163082923Y-95217874D01*
X163147327Y-95187997D01*
X163217660Y-95197683D01*
X163271591Y-95243856D01*
X163292000Y-95312606D01*
X163292000Y-116017965D01*
X163271998Y-116086086D01*
X163218342Y-116132579D01*
X163148068Y-116142683D01*
X163107806Y-116127858D01*
X163107132Y-116129181D01*
X163101983Y-116126557D01*
X163097099Y-116123476D01*
X162895072Y-116042876D01*
X162681739Y-116000441D01*
X162675964Y-116000365D01*
X162675960Y-116000365D01*
X162566919Y-115998938D01*
X162464246Y-115997594D01*
X162458549Y-115998573D01*
X162458548Y-115998573D01*
X162255565Y-116033452D01*
X162255562Y-116033453D01*
X162249875Y-116034430D01*
X162045807Y-116109714D01*
X161858876Y-116220927D01*
X161695342Y-116364342D01*
X161691770Y-116368873D01*
X161564873Y-116529841D01*
X161560681Y-116535158D01*
X161459405Y-116727654D01*
X161457692Y-116733171D01*
X161401232Y-116915001D01*
X161394903Y-116935382D01*
X161394224Y-116941119D01*
X161378406Y-117074767D01*
X161374000Y-117111990D01*
X161374000Y-117381736D01*
X161353998Y-117449857D01*
X161300342Y-117496350D01*
X161230068Y-117506454D01*
X161165488Y-117476960D01*
X161144787Y-117454007D01*
X161066857Y-117342711D01*
X161066855Y-117342708D01*
X161063698Y-117338200D01*
X160901800Y-117176302D01*
X160897292Y-117173145D01*
X160897289Y-117173143D01*
X160750815Y-117070581D01*
X160714249Y-117044977D01*
X160709267Y-117042654D01*
X160709262Y-117042651D01*
X160511725Y-116950539D01*
X160511724Y-116950539D01*
X160506743Y-116948216D01*
X160501435Y-116946794D01*
X160501433Y-116946793D01*
X160290902Y-116890381D01*
X160290900Y-116890381D01*
X160285587Y-116888957D01*
X160186020Y-116880246D01*
X160117351Y-116874238D01*
X160117344Y-116874238D01*
X160114627Y-116874000D01*
X160000373Y-116874000D01*
X159997656Y-116874238D01*
X159997649Y-116874238D01*
X159928980Y-116880246D01*
X159829413Y-116888957D01*
X159824100Y-116890381D01*
X159824098Y-116890381D01*
X159613567Y-116946793D01*
X159613565Y-116946794D01*
X159608257Y-116948216D01*
X159603276Y-116950539D01*
X159603275Y-116950539D01*
X159405738Y-117042651D01*
X159405733Y-117042654D01*
X159400751Y-117044977D01*
X159364185Y-117070581D01*
X159217711Y-117173143D01*
X159217708Y-117173145D01*
X159213200Y-117176302D01*
X159051302Y-117338200D01*
X159048145Y-117342708D01*
X159048143Y-117342711D01*
X159016651Y-117387686D01*
X158919977Y-117525751D01*
X158917654Y-117530733D01*
X158917651Y-117530738D01*
X158848716Y-117678571D01*
X158823216Y-117733257D01*
X158821794Y-117738565D01*
X158821793Y-117738567D01*
X158770531Y-117929877D01*
X158763957Y-117954413D01*
X158744002Y-118182500D01*
X158763957Y-118410587D01*
X158765381Y-118415900D01*
X158765381Y-118415902D01*
X158768281Y-118426723D01*
X158823216Y-118631743D01*
X158825539Y-118636724D01*
X158825539Y-118636725D01*
X158864373Y-118720005D01*
X158875034Y-118790197D01*
X158846054Y-118855010D01*
X158786634Y-118893866D01*
X158715640Y-118894429D01*
X158661083Y-118862350D01*
X157729515Y-117930782D01*
X157695489Y-117868470D01*
X157700554Y-117797655D01*
X157743101Y-117740819D01*
X157809621Y-117716008D01*
X157820259Y-117715698D01*
X157867278Y-117716313D01*
X157950754Y-117717406D01*
X157956451Y-117716427D01*
X157956452Y-117716427D01*
X158159435Y-117681548D01*
X158159438Y-117681547D01*
X158165125Y-117680570D01*
X158369193Y-117605286D01*
X158556124Y-117494073D01*
X158719658Y-117350658D01*
X158854319Y-117179842D01*
X158857844Y-117173143D01*
X158952907Y-116992455D01*
X158955595Y-116987346D01*
X158985704Y-116890381D01*
X159018383Y-116785139D01*
X159018384Y-116785136D01*
X159020097Y-116779618D01*
X159033509Y-116666301D01*
X159040564Y-116606697D01*
X159040564Y-116606690D01*
X159041000Y-116603010D01*
X159041000Y-115577324D01*
X159026167Y-115415900D01*
X158967126Y-115206555D01*
X158870923Y-115011474D01*
X158740780Y-114837191D01*
X158581056Y-114689544D01*
X158397099Y-114573476D01*
X158195072Y-114492876D01*
X157981739Y-114450441D01*
X157975964Y-114450365D01*
X157975960Y-114450365D01*
X157866919Y-114448938D01*
X157764246Y-114447594D01*
X157758549Y-114448573D01*
X157758548Y-114448573D01*
X157555565Y-114483452D01*
X157555562Y-114483453D01*
X157549875Y-114484430D01*
X157345807Y-114559714D01*
X157158876Y-114670927D01*
X156995342Y-114814342D01*
X156860681Y-114985158D01*
X156759405Y-115177654D01*
X156757692Y-115183171D01*
X156696947Y-115378800D01*
X156694903Y-115385382D01*
X156694224Y-115391119D01*
X156675118Y-115552546D01*
X156674000Y-115561990D01*
X156674000Y-116571077D01*
X156653998Y-116639198D01*
X156600342Y-116685691D01*
X156530068Y-116695795D01*
X156465488Y-116666301D01*
X156458905Y-116660172D01*
X156172405Y-116373672D01*
X156138379Y-116311360D01*
X156135500Y-116284577D01*
X156135500Y-100179032D01*
X156136030Y-100167793D01*
X156137709Y-100160281D01*
X156135562Y-100091969D01*
X156135500Y-100088012D01*
X156135500Y-100060017D01*
X156134992Y-100055994D01*
X156134059Y-100044152D01*
X156132914Y-100007720D01*
X156132665Y-99999795D01*
X156126987Y-99980251D01*
X156122977Y-99960888D01*
X156121420Y-99948560D01*
X156121420Y-99948558D01*
X156120427Y-99940701D01*
X156117511Y-99933337D01*
X156117510Y-99933332D01*
X156104093Y-99899444D01*
X156100248Y-99888215D01*
X156094139Y-99867189D01*
X156087869Y-99845607D01*
X156077753Y-99828502D01*
X156077512Y-99828094D01*
X156068812Y-99810336D01*
X156064239Y-99798785D01*
X156064235Y-99798779D01*
X156061319Y-99791412D01*
X156035234Y-99755509D01*
X156028719Y-99745590D01*
X156010174Y-99714232D01*
X156010171Y-99714228D01*
X156006134Y-99707402D01*
X155991750Y-99693018D01*
X155978909Y-99677984D01*
X155971602Y-99667927D01*
X155966942Y-99661513D01*
X155932750Y-99633227D01*
X155923969Y-99625237D01*
X155372404Y-99073671D01*
X155338379Y-99011359D01*
X155335500Y-98984576D01*
X155335500Y-96900303D01*
X155355502Y-96832182D01*
X155367864Y-96815993D01*
X155434621Y-96741852D01*
X155434622Y-96741851D01*
X155439040Y-96736944D01*
X155534527Y-96571556D01*
X155593542Y-96389928D01*
X155594991Y-96376148D01*
X155612814Y-96206565D01*
X155613504Y-96200000D01*
X155601049Y-96081500D01*
X155594232Y-96016635D01*
X155594232Y-96016633D01*
X155593542Y-96010072D01*
X155534527Y-95828444D01*
X155439040Y-95663056D01*
X155367864Y-95584007D01*
X155337146Y-95520000D01*
X155335500Y-95499697D01*
X155335500Y-91346990D01*
X156374000Y-91346990D01*
X156374000Y-92872676D01*
X156388833Y-93034100D01*
X156390402Y-93039662D01*
X156390402Y-93039664D01*
X156393820Y-93051784D01*
X156447874Y-93243445D01*
X156544077Y-93438526D01*
X156547531Y-93443152D01*
X156547532Y-93443153D01*
X156665898Y-93601664D01*
X156674220Y-93612809D01*
X156678454Y-93616723D01*
X156678456Y-93616725D01*
X156715004Y-93650509D01*
X156833944Y-93760456D01*
X157017901Y-93876524D01*
X157219928Y-93957124D01*
X157433261Y-93999559D01*
X157439036Y-93999635D01*
X157439040Y-93999635D01*
X157548081Y-94001062D01*
X157650754Y-94002406D01*
X157656451Y-94001427D01*
X157656452Y-94001427D01*
X157859435Y-93966548D01*
X157859438Y-93966547D01*
X157865125Y-93965570D01*
X158069193Y-93890286D01*
X158256124Y-93779073D01*
X158419658Y-93635658D01*
X158554319Y-93464842D01*
X158655595Y-93272346D01*
X158683637Y-93182036D01*
X158718383Y-93070139D01*
X158718384Y-93070136D01*
X158720097Y-93064618D01*
X158732793Y-92957349D01*
X158740564Y-92891697D01*
X158740564Y-92891690D01*
X158741000Y-92888010D01*
X158741000Y-92618264D01*
X158761002Y-92550143D01*
X158814658Y-92503650D01*
X158884932Y-92493546D01*
X158949512Y-92523040D01*
X158970213Y-92545993D01*
X159042579Y-92649342D01*
X159051302Y-92661800D01*
X159213200Y-92823698D01*
X159217708Y-92826855D01*
X159217711Y-92826857D01*
X159245727Y-92846474D01*
X159400751Y-92955023D01*
X159405733Y-92957346D01*
X159405738Y-92957349D01*
X159536173Y-93018171D01*
X159608257Y-93051784D01*
X159613565Y-93053206D01*
X159613567Y-93053207D01*
X159824098Y-93109619D01*
X159824100Y-93109619D01*
X159829413Y-93111043D01*
X159928980Y-93119754D01*
X159997649Y-93125762D01*
X159997656Y-93125762D01*
X160000373Y-93126000D01*
X160114627Y-93126000D01*
X160117344Y-93125762D01*
X160117351Y-93125762D01*
X160186020Y-93119754D01*
X160285587Y-93111043D01*
X160290900Y-93109619D01*
X160290902Y-93109619D01*
X160501433Y-93053207D01*
X160501435Y-93053206D01*
X160506743Y-93051784D01*
X160578827Y-93018171D01*
X160709262Y-92957349D01*
X160709267Y-92957346D01*
X160714249Y-92955023D01*
X160869273Y-92846474D01*
X160897289Y-92826857D01*
X160897292Y-92826855D01*
X160901800Y-92823698D01*
X161063698Y-92661800D01*
X161072422Y-92649342D01*
X161170174Y-92509737D01*
X161195023Y-92474249D01*
X161197346Y-92469267D01*
X161197349Y-92469262D01*
X161289461Y-92271725D01*
X161289461Y-92271724D01*
X161291784Y-92266743D01*
X161318684Y-92166354D01*
X161349619Y-92050902D01*
X161349619Y-92050900D01*
X161351043Y-92045587D01*
X161370998Y-91817500D01*
X161351043Y-91589413D01*
X161336605Y-91535530D01*
X161293207Y-91373567D01*
X161293206Y-91373565D01*
X161291784Y-91368257D01*
X161289461Y-91363275D01*
X161197349Y-91165738D01*
X161197346Y-91165733D01*
X161195023Y-91160751D01*
X161108287Y-91036880D01*
X161066857Y-90977711D01*
X161066855Y-90977708D01*
X161063698Y-90973200D01*
X160901800Y-90811302D01*
X160897292Y-90808145D01*
X160897289Y-90808143D01*
X160752827Y-90706990D01*
X160714249Y-90679977D01*
X160709267Y-90677654D01*
X160709262Y-90677651D01*
X160511725Y-90585539D01*
X160511724Y-90585539D01*
X160506743Y-90583216D01*
X160501435Y-90581794D01*
X160501433Y-90581793D01*
X160290902Y-90525381D01*
X160290900Y-90525381D01*
X160285587Y-90523957D01*
X160186020Y-90515246D01*
X160117351Y-90509238D01*
X160117344Y-90509238D01*
X160114627Y-90509000D01*
X160000373Y-90509000D01*
X159997656Y-90509238D01*
X159997649Y-90509238D01*
X159928980Y-90515246D01*
X159829413Y-90523957D01*
X159824100Y-90525381D01*
X159824098Y-90525381D01*
X159613567Y-90581793D01*
X159613565Y-90581794D01*
X159608257Y-90583216D01*
X159603276Y-90585539D01*
X159603275Y-90585539D01*
X159405738Y-90677651D01*
X159405733Y-90677654D01*
X159400751Y-90679977D01*
X159362173Y-90706990D01*
X159217711Y-90808143D01*
X159217708Y-90808145D01*
X159213200Y-90811302D01*
X159051302Y-90973200D01*
X159048145Y-90977708D01*
X159048143Y-90977711D01*
X158926116Y-91151983D01*
X158870659Y-91196311D01*
X158800039Y-91203620D01*
X158736679Y-91171589D01*
X158701634Y-91113913D01*
X158693357Y-91084562D01*
X158667126Y-90991555D01*
X158578235Y-90811302D01*
X158573478Y-90801655D01*
X158570923Y-90796474D01*
X158506131Y-90709706D01*
X158444233Y-90626815D01*
X158444232Y-90626814D01*
X158440780Y-90622191D01*
X158369650Y-90556439D01*
X158285296Y-90478463D01*
X158285293Y-90478461D01*
X158281056Y-90474544D01*
X158097099Y-90358476D01*
X157895072Y-90277876D01*
X157681739Y-90235441D01*
X157675964Y-90235365D01*
X157675960Y-90235365D01*
X157566919Y-90233938D01*
X157464246Y-90232594D01*
X157458549Y-90233573D01*
X157458548Y-90233573D01*
X157255565Y-90268452D01*
X157255562Y-90268453D01*
X157249875Y-90269430D01*
X157045807Y-90344714D01*
X156996641Y-90373965D01*
X156871407Y-90448472D01*
X156858876Y-90455927D01*
X156695342Y-90599342D01*
X156691770Y-90603873D01*
X156584080Y-90740477D01*
X156560681Y-90770158D01*
X156459405Y-90962654D01*
X156457692Y-90968171D01*
X156397894Y-91160751D01*
X156394903Y-91170382D01*
X156394224Y-91176119D01*
X156378957Y-91305112D01*
X156374000Y-91346990D01*
X155335500Y-91346990D01*
X155335500Y-88390422D01*
X155355502Y-88322301D01*
X155372405Y-88301327D01*
X156750084Y-86923648D01*
X156812396Y-86889622D01*
X156883211Y-86894687D01*
X156906413Y-86906181D01*
X157017901Y-86976524D01*
X157219928Y-87057124D01*
X157433261Y-87099559D01*
X157439036Y-87099635D01*
X157439040Y-87099635D01*
X157548081Y-87101062D01*
X157650754Y-87102406D01*
X157656451Y-87101427D01*
X157656452Y-87101427D01*
X157859435Y-87066548D01*
X157859438Y-87066547D01*
X157865125Y-87065570D01*
X158069193Y-86990286D01*
X158210560Y-86906181D01*
X158251159Y-86882027D01*
X158251160Y-86882026D01*
X158256124Y-86879073D01*
X158419658Y-86735658D01*
X158477883Y-86661800D01*
X158550745Y-86569376D01*
X158550747Y-86569374D01*
X158554319Y-86564842D01*
X158652248Y-86378708D01*
X158701668Y-86327735D01*
X158770800Y-86311572D01*
X158837696Y-86335351D01*
X158877952Y-86384126D01*
X158917649Y-86469258D01*
X158917653Y-86469264D01*
X158919977Y-86474249D01*
X159051302Y-86661800D01*
X159213200Y-86823698D01*
X159217708Y-86826855D01*
X159217711Y-86826857D01*
X159251517Y-86850528D01*
X159400751Y-86955023D01*
X159405733Y-86957346D01*
X159405738Y-86957349D01*
X159603275Y-87049461D01*
X159608257Y-87051784D01*
X159613565Y-87053206D01*
X159613567Y-87053207D01*
X159824098Y-87109619D01*
X159824100Y-87109619D01*
X159829413Y-87111043D01*
X159928980Y-87119754D01*
X159997649Y-87125762D01*
X159997656Y-87125762D01*
X160000373Y-87126000D01*
X160114627Y-87126000D01*
X160117344Y-87125762D01*
X160117351Y-87125762D01*
X160186020Y-87119754D01*
X160285587Y-87111043D01*
X160290900Y-87109619D01*
X160290902Y-87109619D01*
X160501433Y-87053207D01*
X160501435Y-87053206D01*
X160506743Y-87051784D01*
X160511725Y-87049461D01*
X160709262Y-86957349D01*
X160709267Y-86957346D01*
X160714249Y-86955023D01*
X160863483Y-86850528D01*
X160897289Y-86826857D01*
X160897292Y-86826855D01*
X160901800Y-86823698D01*
X161063698Y-86661800D01*
X161195023Y-86474249D01*
X161197346Y-86469267D01*
X161197349Y-86469262D01*
X161289461Y-86271725D01*
X161289461Y-86271724D01*
X161291784Y-86266743D01*
X161351043Y-86045587D01*
X161370998Y-85817500D01*
X161351043Y-85589413D01*
X161291784Y-85368257D01*
X161289461Y-85363275D01*
X161197349Y-85165738D01*
X161197346Y-85165733D01*
X161195023Y-85160751D01*
X161115662Y-85047412D01*
X161066857Y-84977711D01*
X161066855Y-84977708D01*
X161063698Y-84973200D01*
X160901800Y-84811302D01*
X160897292Y-84808145D01*
X160897289Y-84808143D01*
X160819111Y-84753402D01*
X160714249Y-84679977D01*
X160709267Y-84677654D01*
X160709262Y-84677651D01*
X160511725Y-84585539D01*
X160511724Y-84585539D01*
X160506743Y-84583216D01*
X160501435Y-84581794D01*
X160501433Y-84581793D01*
X160290902Y-84525381D01*
X160290900Y-84525381D01*
X160285587Y-84523957D01*
X160186020Y-84515246D01*
X160117351Y-84509238D01*
X160117344Y-84509238D01*
X160114627Y-84509000D01*
X160000373Y-84509000D01*
X159997656Y-84509238D01*
X159997649Y-84509238D01*
X159928980Y-84515246D01*
X159829413Y-84523957D01*
X159824100Y-84525381D01*
X159824098Y-84525381D01*
X159613567Y-84581793D01*
X159613565Y-84581794D01*
X159608257Y-84583216D01*
X159603276Y-84585539D01*
X159603275Y-84585539D01*
X159405738Y-84677651D01*
X159405733Y-84677654D01*
X159400751Y-84679977D01*
X159295889Y-84753402D01*
X159217711Y-84808143D01*
X159217708Y-84808145D01*
X159213200Y-84811302D01*
X159051302Y-84973200D01*
X159048145Y-84977708D01*
X159048143Y-84977711D01*
X158970213Y-85089007D01*
X158914756Y-85133335D01*
X158844137Y-85140644D01*
X158780776Y-85108613D01*
X158744791Y-85047412D01*
X158741000Y-85016736D01*
X158741000Y-84462324D01*
X158726167Y-84300900D01*
X158667126Y-84091555D01*
X158650352Y-84057541D01*
X158616911Y-83989728D01*
X158604721Y-83919786D01*
X158632281Y-83854356D01*
X158690839Y-83814213D01*
X158729917Y-83808000D01*
X163166000Y-83808000D01*
X163234121Y-83828002D01*
G37*
G04 #@! TD.AperFunction*
M02*
